<svg width="16" height="16" viewBox="0 0 16 16" fill="none" xmlns="http://www.w3.org/2000/svg">
<g id="icon=anchor" clip-path="url(#clip0_999_35470)">
<path id="Union" fill-rule="evenodd" clip-rule="evenodd" d="M8.00054 0C9.65719 0.000236545 11.0005 1.34329 11.0005 3C11.0005 4.30559 10.1649 5.41289 9.00054 5.8252V13.9209C10.2924 13.7188 11.4927 13.1306 12.4234 12.2305C13.1666 11.5115 13.7001 10.632 13.9888 9.68066C14.0365 9.52307 14.0028 9.38955 13.8873 9.2627C13.7561 9.11899 13.5209 9.00012 13.2378 9H13.0005C12.4483 9 12.0005 8.55229 12.0005 8C12.0005 7.44772 12.4483 7 13.0005 7H13.2378C14.0588 7.00012 14.8394 7.3377 15.3658 7.91504C15.9074 8.50934 16.1747 9.36272 15.9019 10.2617C15.5138 11.5404 14.8004 12.7148 13.814 13.6689C12.2669 15.1652 10.1745 15.9999 8.00054 16C5.8267 15.9999 3.73514 15.165 2.18804 13.6689C1.20149 12.7148 0.487289 11.5405 0.0991715 10.2617C-0.173689 9.36257 0.0944586 8.50938 0.636281 7.91504C1.16273 7.33788 1.9423 7 2.76323 7H3.00054C3.55262 7.00024 4.00054 7.44786 4.00054 8C4.00054 8.55214 3.55262 8.99976 3.00054 9H2.76323C2.48 9 2.24501 9.11893 2.11382 9.2627C1.99808 9.38968 1.96537 9.52289 2.01323 9.68066C2.30201 10.6322 2.8352 11.5114 3.57866 12.2305C4.50946 13.1306 5.70878 13.7189 7.00054 13.9209V5.8252C5.83582 5.41311 5.00054 4.30588 5.00054 3C5.00054 1.34315 6.34368 3.22128e-08 8.00054 0ZM8.00054 2C7.44825 2 7.00054 2.44772 7.00054 3C7.00054 3.55228 7.44825 4 8.00054 4C8.55262 3.99976 9.00054 3.55214 9.00054 3C9.00054 2.44786 8.55262 2.00024 8.00054 2Z" fill="#657077"/>
</g>
<defs>
<clipPath id="clip0_999_35470">
<rect width="16" height="16" fill="white"/>
</clipPath>
</defs>
</svg>
