<svg width="16" height="16" viewBox="0 0 16 16" fill="none" xmlns="http://www.w3.org/2000/svg">
<g id="icon=archive">
<g id="Union">
<path d="M9 9C9.55228 9 10 9.44772 10 10C10 10.5523 9.55228 11 9 11H7C6.44772 11 6 10.5523 6 10C6 9.44772 6.44772 9 7 9H9Z" fill="#657077"/>
<path fill-rule="evenodd" clip-rule="evenodd" d="M15 1C15.5523 1 16 1.44772 16 2V6C16 6.55228 15.5523 7 15 7H14V14C14 14.5523 13.5523 15 13 15H3C2.44772 15 2 14.5523 2 14V7H1C0.447715 7 0 6.55228 0 6V2C0 1.44772 0.447715 1 1 1H15ZM4 13H12V7H4V13ZM2 5H14V3H2V5Z" fill="#657077"/>
</g>
</g>
</svg>
