<svg width="16" height="16" viewBox="0 0 16 16" fill="none" xmlns="http://www.w3.org/2000/svg">
<g id="icon=bookmark">
<path id="Union" fill-rule="evenodd" clip-rule="evenodd" d="M11.5713 0C12.219 0 12.8384 0.260102 13.293 0.719727C13.7471 1.17894 14 1.79967 14 2.44434V14C14 14.3709 13.7949 14.7117 13.4668 14.8848C13.1387 15.0578 12.7417 15.0346 12.4355 14.8252L8.56445 12.1777C8.22411 11.945 7.77589 11.945 7.43555 12.1777L3.56445 14.8252C3.25829 15.0346 2.86128 15.0578 2.5332 14.8848C2.20514 14.7117 2 14.3709 2 14V2.44434C2.00003 1.79967 2.25292 1.17894 2.70703 0.719727C3.1616 0.260102 3.78103 0 4.42871 0H11.5713ZM4.42871 2C4.3188 2 4.21108 2.04407 4.12988 2.12598C4.04829 2.20847 4.00003 2.32296 4 2.44434V12.1045L6.30664 10.5273C7.32774 9.82893 8.67226 9.82893 9.69336 10.5273L12 12.1045V2.44434C12 2.32296 11.9517 2.20847 11.8701 2.12598C11.7889 2.04407 11.6812 2 11.5713 2H4.42871Z" fill="#657077"/>
</g>
</svg>
