<svg width="16" height="16" viewBox="0 0 16 16" fill="none" xmlns="http://www.w3.org/2000/svg">
<g id="icon=Calendar">
<path id="Union" fill-rule="evenodd" clip-rule="evenodd" d="M11 0C11.5523 0 12 0.447715 12 1V2H13.4443C14.8211 2 16 3.08532 16 4.5V13.5C16 14.9147 14.8211 16 13.4443 16H2.55566C1.17886 16 0 14.9147 0 13.5V4.5C0 3.08532 1.17886 2 2.55566 2H4V1C4 0.447715 4.44772 0 5 0C5.55228 0 6 0.447715 6 1V2H10V1C10 0.447715 10.4477 0 11 0ZM2 8V13.5C2 13.7422 2.21425 14 2.55566 14H13.4443C13.7858 14 14 13.7422 14 13.5V8H2ZM2.55566 4C2.21425 4 2 4.25782 2 4.5V6H14V4.5C14 4.25782 13.7858 4 13.4443 4H12C12 4.55228 11.5523 5 11 5C10.4477 5 10 4.55228 10 4H6C6 4.55228 5.55228 5 5 5C4.44772 5 4 4.55228 4 4H2.55566Z" fill="#657077"/>
</g>
</svg>
