<svg width="16" height="16" viewBox="0 0 16 16" fill="none" xmlns="http://www.w3.org/2000/svg">
<g id="icon=camera">
<g id="Union">
<path fill-rule="evenodd" clip-rule="evenodd" d="M8 6C9.65685 6 11 7.34315 11 9C11 10.6569 9.65685 12 8 12C6.34315 12 5 10.6569 5 9C5 7.34315 6.34315 6 8 6ZM8 8C7.44772 8 7 8.44772 7 9C7 9.55229 7.44772 10 8 10C8.55229 10 9 9.55229 9 9C9 8.44772 8.55229 8 8 8Z" fill="#657077"/>
<path fill-rule="evenodd" clip-rule="evenodd" d="M10.1406 1.00977C10.4627 1.05553 10.7464 1.25649 10.8945 1.55273L11.6182 3H13.5C14.8805 3.00013 16.0001 4.11929 16 5.5V12.5L15.9873 12.7559C15.8592 14.0164 14.7941 14.9999 13.5 15H2.5C1.11916 15 6.38752e-05 13.8804 0 12.5V5.5C0 4.11946 1.11925 3 2.5 3H4.38184L5.10547 1.55273L5.17676 1.43164C5.3617 1.16374 5.66859 1 6 1H10L10.1406 1.00977ZM5.89453 4.44727C5.72518 4.78598 5.37868 4.99991 5 5H2.5C2.22403 5 2 5.22382 2 5.5V12.5C2.00006 12.7763 2.22415 13 2.5 13H13.5C13.7761 12.9999 14 12.776 14 12.5V5.5L13.9902 5.39941C13.9438 5.1716 13.7417 5.00012 13.5 5H11C10.6213 5 10.2749 4.78599 10.1055 4.44727L9.38184 3H6.61816L5.89453 4.44727Z" fill="#657077"/>
</g>
</g>
</svg>
