<svg width="16" height="16" viewBox="0 0 16 16" fill="none" xmlns="http://www.w3.org/2000/svg">
<g id="icon=Cart">
<path id="Union" fill-rule="evenodd" clip-rule="evenodd" d="M3.03613 1.00098C3.04756 1.00138 3.05895 1.00213 3.07031 1.00293C3.09067 1.00434 3.11086 1.00617 3.13086 1.00879C3.1466 1.01087 3.16217 1.01378 3.17773 1.0166C3.19815 1.02027 3.21832 1.02441 3.23828 1.0293C3.24419 1.03075 3.24998 1.03262 3.25586 1.03418C3.28331 1.04143 3.31044 1.04912 3.33691 1.05859C3.33982 1.05964 3.34281 1.06045 3.3457 1.06152C3.37306 1.07161 3.39961 1.08336 3.42578 1.0957C3.42947 1.09744 3.43286 1.09978 3.43652 1.10156C3.45636 1.11122 3.47604 1.12094 3.49512 1.13184C3.50744 1.13887 3.51924 1.14675 3.53125 1.1543C3.55017 1.16621 3.56887 1.17829 3.58691 1.19141C3.59124 1.19454 3.59534 1.19797 3.59961 1.20117C3.61724 1.21442 3.63467 1.22782 3.65137 1.24219C3.66343 1.25254 3.67495 1.26348 3.68652 1.27441C3.69958 1.28677 3.71223 1.29946 3.72461 1.3125C3.73303 1.32136 3.74092 1.33066 3.74902 1.33984C3.7631 1.3558 3.77699 1.37183 3.79004 1.38867C3.79458 1.39454 3.79929 1.40027 3.80371 1.40625C3.81751 1.4249 3.83027 1.44425 3.84277 1.46387C3.85091 1.47666 3.85863 1.4897 3.86621 1.50293C3.87521 1.51859 3.88344 1.53461 3.8916 1.55078C3.89493 1.55741 3.89915 1.56359 3.90234 1.57031C3.92915 1.6265 3.94979 1.6857 3.96582 1.74707C3.96678 1.75074 3.96881 1.75413 3.96973 1.75781L4.78027 5H14.3926C15.3368 5.00021 16.0462 5.86245 15.8643 6.78906L15.1201 10.5781C14.9817 11.2826 14.6025 11.8877 14.0791 12.3174C14.6326 12.6731 15 13.2932 15 14C15 15.1046 14.1046 16 13 16C11.8954 16 11 15.1046 11 14C11 13.6354 11.0991 13.2944 11.2695 13H7.73047C7.90094 13.2944 8 13.6354 8 14C8 15.1046 7.10457 16 6 16C4.89543 16 4 15.1046 4 14C4 13.2935 4.3668 12.6732 4.91992 12.3174C4.39685 11.8877 4.01821 11.2823 3.87988 10.5781L3.02051 6.20508L2.21973 3H1C0.447715 3 0 2.55228 0 2C0 1.44772 0.447715 1 1 1H3C3.0121 1 3.02414 1.00055 3.03613 1.00098ZM5.84277 10.1924C5.9349 10.6614 6.34625 11 6.82422 11H12.1758C12.6538 11 13.0651 10.6614 13.1572 10.1924L13.7842 7H5.21582L5.84277 10.1924Z" fill="#657077"/>
</g>
</svg>
