<svg width="16" height="16" viewBox="0 0 16 16" fill="none" xmlns="http://www.w3.org/2000/svg">
<g id="icon=clipboard">
<path id="Union" fill-rule="evenodd" clip-rule="evenodd" d="M9.5 0C10.0765 0 10.4759 0.350532 10.6855 0.665039C10.8999 0.986532 11 1.37301 11 1.75V2H12.5C13.1275 2 13.7492 2.22096 14.2246 2.64355C14.7038 3.0695 14.9999 3.67374 15 4.33301V13.667C14.9999 14.3263 14.7038 14.9305 14.2246 15.3564C13.7492 15.779 13.1275 16 12.5 16H3.5C2.8725 16 2.25082 15.779 1.77539 15.3564C1.2962 14.9305 1.0001 14.3263 1 13.667V4.33301C1.0001 3.67374 1.2962 3.0695 1.77539 2.64355C2.25082 2.22096 2.8725 2 3.5 2H5V1.75C5 1.37301 5.10013 0.986532 5.31445 0.665039C5.52412 0.350532 5.92355 0 6.5 0H9.5ZM10.8623 3.98926C10.8154 4.10975 10.7579 4.22642 10.6855 4.33496C10.4759 4.64947 10.0765 5 9.5 5H6.5C5.92355 5 5.52412 4.64947 5.31445 4.33496C5.24203 4.22632 5.18361 4.10987 5.13672 3.98926C5.09196 3.99539 5.04645 4 5 4H3.5C3.33186 4 3.19069 4.06021 3.10352 4.1377C3.02036 4.21161 3.00009 4.28515 3 4.33301V13.667C3.00009 13.7148 3.02036 13.7884 3.10352 13.8623C3.1907 13.9398 3.33186 14 3.5 14H12.5C12.6681 14 12.8093 13.9398 12.8965 13.8623C12.9796 13.7884 12.9999 13.7148 13 13.667V4.33301C12.9999 4.28515 12.9796 4.21161 12.8965 4.1377C12.8093 4.06021 12.6681 4 12.5 4H11C10.9532 4 10.9074 3.99547 10.8623 3.98926ZM7 3H9V2H7V3Z" fill="#657077"/>
</g>
</svg>
