<svg width="16" height="16" viewBox="0 0 16 16" fill="none" xmlns="http://www.w3.org/2000/svg">
<g id="icon=cloud">
<path id="Union" fill-rule="evenodd" clip-rule="evenodd" d="M3.98045 2.37087C5.04624 1.98328 6.2011 1.897 7.31346 2.12185C8.42595 2.34681 9.45415 2.87512 10.2803 3.64724C10.9132 4.23892 11.4077 4.95671 11.7334 5.74978H11.8193C12.9223 5.74986 13.9842 6.18051 14.7695 6.95193C15.5552 7.724 15.9999 8.77523 16 9.87478C16 10.9744 15.5552 12.0255 14.7695 12.7976C13.9842 13.5691 12.9224 13.9997 11.8193 13.9998H6.09373C4.95835 14.0006 3.84418 13.6884 2.87791 13.0974C1.91154 12.5064 1.1311 11.6589 0.626934 10.6502C0.122784 9.64129 -0.0844466 8.51247 0.031231 7.39236C0.146985 6.27223 0.580208 5.20739 1.27928 4.32009C1.97818 3.43319 2.91466 2.75854 3.98045 2.37087ZM6.91697 4.08279C6.16464 3.93073 5.38362 3.98907 4.66404 4.25076C3.94466 4.51245 3.31696 4.9665 2.85057 5.55837C2.38433 6.15015 2.0971 6.85678 2.02049 7.59743C1.94398 8.33815 2.08017 9.08653 2.41502 9.75661C2.75003 10.4269 3.2719 10.9939 3.92186 11.3914C4.57196 11.7889 5.32418 12.0003 6.09275 11.9998H11.8193C12.4033 11.9997 12.9595 11.7713 13.3672 11.3709C13.7742 10.971 14 10.4325 14 9.87478C13.9999 9.31708 13.7742 8.77855 13.3672 8.37868C13.0506 8.0678 12.6442 7.86196 12.2051 7.78493C12.2573 8.37629 12.2604 9.22453 11.9179 9.93435C11.6779 10.4317 11.0804 10.6402 10.583 10.4002C10.0857 10.1601 9.87716 9.56257 10.1172 9.06521C10.2286 8.83386 10.2613 8.38958 10.2041 7.85622C10.1783 7.61636 10.1392 7.39992 10.1064 7.24392C10.0903 7.16703 10.0762 7.10603 10.0664 7.06618C10.0616 7.0468 10.0579 7.03183 10.0556 7.02322L10.0527 7.01443L10.0537 7.0154L10.0498 7.00368C9.86007 6.28236 9.46797 5.62509 8.91502 5.10818C8.36173 4.59102 7.66935 4.23493 6.91697 4.08279Z" fill="#657077"/>
</g>
</svg>
