<svg width="16" height="16" viewBox="0 0 16 16" fill="none" xmlns="http://www.w3.org/2000/svg">
<g id="icon=Comment_2">
<path id="Union" fill-rule="evenodd" clip-rule="evenodd" d="M8.50012 0C12.6423 0 16.0001 3.35786 16.0001 7.5C16.0001 11.6421 12.6423 15 8.50012 15C7.59624 15 6.75602 14.8539 5.95031 14.5576L1.2882 15.958C0.935948 16.0638 0.55329 15.9679 0.293087 15.708C0.0328811 15.448 -0.0634733 15.0653 0.0421105 14.7129L1.43957 10.0449C1.14141 9.2375 1.00012 8.40565 1.00012 7.5C1.00012 3.35786 4.35798 0 8.50012 0ZM8.50012 2C5.46255 2 3.00012 4.46243 3.00012 7.5C3.00012 8.28154 3.13656 8.95146 3.41711 9.60547C3.50957 9.82098 3.52348 10.0625 3.45617 10.2871L2.49035 13.5078L5.70813 12.542L5.79309 12.5205C5.99204 12.4793 6.19964 12.4999 6.38781 12.5801C7.04175 12.8591 7.72517 13 8.50012 13C11.5377 13 14.0001 10.5376 14.0001 7.5C14.0001 4.46243 11.5377 2 8.50012 2Z" fill="#657077"/>
</g>
</svg>
