<svg width="16" height="16" viewBox="0 0 16 16" fill="none" xmlns="http://www.w3.org/2000/svg">
<g id="icon=Comment_1">
<path id="Union" fill-rule="evenodd" clip-rule="evenodd" d="M13.4443 0C14.1221 0 14.7727 0.268788 15.252 0.748047C15.7312 1.22731 16 1.87789 16 2.55566V10.4482C16 11.126 15.7312 11.7766 15.252 12.2559C14.7727 12.7351 14.1221 13.0039 13.4443 13.0039H4.41504L1.70703 15.708C1.42097 15.9937 0.99065 16.0786 0.617188 15.9238C0.243673 15.769 0 15.4043 0 15V2.55566C0 1.87789 0.268787 1.22731 0.748047 0.748047C1.22731 0.268787 1.87789 0 2.55566 0H13.4443ZM2.55566 2C2.40832 2 2.26727 2.0589 2.16309 2.16309C2.0589 2.26727 2 2.40832 2 2.55566V12.5869L3.29297 11.2959C3.48046 11.1087 3.73502 11.0039 4 11.0039H13.4443C13.5917 11.0039 13.7327 10.945 13.8369 10.8408C13.9411 10.7366 14 10.5956 14 10.4482V2.55566C14 2.40832 13.9411 2.26727 13.8369 2.16309C13.7327 2.0589 13.5917 2 13.4443 2H2.55566Z" fill="#657077"/>
</g>
</svg>
