<svg width="16" height="16" viewBox="0 0 16 16" fill="none" xmlns="http://www.w3.org/2000/svg">
<g id="icon=$">
<path id="Union" fill-rule="evenodd" clip-rule="evenodd" d="M8 0C8.55228 0 9 0.447715 9 1V2H12.167C12.7191 2.00018 13.167 2.44782 13.167 3C13.167 3.55218 12.7191 3.99982 12.167 4H9V7H10.083C11.0762 7 12.0547 7.33651 12.7969 7.97266C13.5438 8.61289 14 9.51765 14 10.5C14 11.4824 13.5438 12.3871 12.7969 13.0273C12.0547 13.6635 11.0762 14 10.083 14H9V15C9 15.5523 8.55228 16 8 16C7.44772 16 7 15.5523 7 15V14H3C2.44772 14 2 13.5523 2 13C2 12.4477 2.44772 12 3 12H7V9H5.91699C4.92377 9 3.9453 8.66349 3.20312 8.02734C2.45622 7.38712 2 6.48235 2 5.5C2 4.51765 2.45622 3.61288 3.20312 2.97266C3.9453 2.33651 4.92377 2 5.91699 2H7V1C7 0.447715 7.44772 0 8 0ZM9 12H10.083C10.6369 12 11.1433 11.8103 11.4951 11.5088C11.8421 11.2113 12 10.8437 12 10.5C12 10.1563 11.8421 9.78866 11.4951 9.49121C11.1433 9.18969 10.6369 9 10.083 9H9V12ZM5.91699 4C5.36314 4 4.85667 4.18969 4.50488 4.49121C4.15786 4.78866 4 5.15629 4 5.5C4 5.84371 4.15786 6.21134 4.50488 6.50879C4.85667 6.81031 5.36314 7 5.91699 7H7V4H5.91699Z" fill="#657077"/>
</g>
</svg>
