<svg width="16" height="16" viewBox="0 0 16 16" fill="none" xmlns="http://www.w3.org/2000/svg">
<g id="icon=face_2" clip-path="url(#clip0_999_35465)">
<g id="Union">
<path d="M10.2002 8.90039C10.5315 8.45861 11.1578 8.36896 11.5996 8.7002C12.0414 9.03153 12.131 9.65779 11.7998 10.0996L11.3291 9.74707C11.7888 10.092 11.7998 10.0992 11.7998 10.0996L11.7979 10.1025L11.7891 10.1143C11.7842 10.1205 11.7777 10.1286 11.7705 10.1377C11.7562 10.1557 11.7373 10.1791 11.7139 10.207C11.6667 10.2632 11.6006 10.3391 11.5166 10.4268C11.3495 10.6011 11.1057 10.8297 10.791 11.0586C10.165 11.5139 9.21296 12 8 12C6.78704 12 5.83505 11.5139 5.20898 11.0586C4.89427 10.8297 4.65054 10.6011 4.4834 10.4268C4.39941 10.3391 4.3333 10.2632 4.28613 10.207C4.26269 10.1791 4.24379 10.1557 4.22949 10.1377C4.22232 10.1286 4.21578 10.1205 4.21094 10.1143L4.20215 10.1025L4.2002 10.1006C4.20025 10.1001 4.21122 10.0919 4.6709 9.74707L4.2002 10.1006C3.86896 9.65877 3.95861 9.03153 4.40039 8.7002C4.84211 8.36904 5.46744 8.45889 5.79883 8.90039C5.80257 8.90505 5.81004 8.91196 5.81836 8.92188C5.84002 8.94767 5.87642 8.98944 5.92676 9.04199C6.02912 9.1488 6.18415 9.2955 6.38477 9.44141C6.78995 9.73609 7.33803 10 8 10C8.66197 10 9.21005 9.73609 9.61523 9.44141C9.81584 9.2955 9.97088 9.1488 10.0732 9.04199C10.1236 8.98944 10.16 8.94767 10.1816 8.92188C10.1897 8.91229 10.1964 8.90507 10.2002 8.90039Z" fill="#657077"/>
<path d="M6 5C6.55228 5 7 5.44772 7 6C7 6.55228 6.55228 7 6 7C5.44772 7 5 6.55228 5 6C5 5.44772 5.44772 5 6 5Z" fill="#657077"/>
<path d="M10 5C10.5523 5 11 5.44772 11 6C11 6.55228 10.5523 7 10 7C9.44772 7 9 6.55228 9 6C9 5.44772 9.44772 5 10 5Z" fill="#657077"/>
<path fill-rule="evenodd" clip-rule="evenodd" d="M8 0C12.4183 0 16 3.58172 16 8C16 12.4183 12.4183 16 8 16C3.58172 16 0 12.4183 0 8C0 3.58172 3.58172 0 8 0ZM8 2C4.68629 2 2 4.68629 2 8C2 11.3137 4.68629 14 8 14C11.3137 14 14 11.3137 14 8C14 4.68629 11.3137 2 8 2Z" fill="#657077"/>
</g>
</g>
<defs>
<clipPath id="clip0_999_35465">
<rect width="16" height="16" fill="white"/>
</clipPath>
</defs>
</svg>
