<svg width="16" height="16" viewBox="0 0 16 16" fill="none" xmlns="http://www.w3.org/2000/svg">
<g id="icon=face_1" clip-path="url(#clip0_999_35455)">
<g id="Union">
<path d="M9.66211 10.5449C9.66486 10.5491 9.66719 10.5531 9.66895 10.5557C9.67119 10.5589 9.6724 10.5609 9.67285 10.5615C9.67147 10.5597 9.66203 10.5471 9.64355 10.5273C9.60626 10.4876 9.53233 10.4175 9.41406 10.3418C9.18612 10.196 8.74837 10 8 10C7.25163 10 6.81388 10.196 6.58594 10.3418C6.46767 10.4175 6.39374 10.4876 6.35645 10.5273C6.33797 10.5471 6.32853 10.5597 6.32715 10.5615C6.3276 10.5609 6.32881 10.5589 6.33105 10.5557C6.33281 10.5531 6.33514 10.5491 6.33789 10.5449C6.33926 10.5428 6.34116 10.5406 6.34277 10.5381C6.34356 10.5369 6.34486 10.5355 6.3457 10.5342L6.34668 10.5322L6.34766 10.5312L6.34668 10.5303C6.05377 10.998 5.4378 11.1402 4.96973 10.8477C4.50167 10.5549 4.35971 9.93795 4.65234 9.46973L5.40137 9.93848C4.66056 9.47541 4.6521 9.47032 4.65234 9.46973L4.65527 9.46582C4.6563 9.4642 4.65709 9.46171 4.6582 9.45996C4.66034 9.45663 4.66256 9.453 4.66504 9.44922C4.67027 9.44124 4.6768 9.43175 4.68359 9.42188C4.69713 9.40219 4.71433 9.37895 4.73438 9.35254C4.77462 9.29952 4.82841 9.23382 4.89746 9.16016C5.03596 9.01243 5.23573 8.83236 5.50781 8.6582C6.06119 8.30404 6.87361 8 8 8C9.12639 8 9.93881 8.30404 10.4922 8.6582C10.7643 8.83236 10.964 9.01243 11.1025 9.16016C11.1716 9.23382 11.2254 9.29952 11.2656 9.35254C11.2857 9.37895 11.3029 9.40219 11.3164 9.42188C11.3232 9.43175 11.3297 9.44124 11.335 9.44922C11.3374 9.453 11.3397 9.45663 11.3418 9.45996C11.3429 9.46171 11.3437 9.4642 11.3447 9.46582L11.3477 9.46875C11.3479 9.46935 11.3395 9.4754 10.5986 9.93848L11.3477 9.46875C11.6403 9.93697 11.4983 10.5549 11.0303 10.8477C10.5913 11.122 10.0217 11.0144 9.71094 10.6143L9.66211 10.5449Z" fill="#657077"/>
<path d="M6 5C6.55228 5 7 5.44772 7 6C7 6.55228 6.55228 7 6 7C5.44772 7 5 6.55228 5 6C5 5.44772 5.44772 5 6 5Z" fill="#657077"/>
<path d="M10 5C10.5523 5 11 5.44772 11 6C11 6.55228 10.5523 7 10 7C9.44772 7 9 6.55228 9 6C9 5.44772 9.44772 5 10 5Z" fill="#657077"/>
<path fill-rule="evenodd" clip-rule="evenodd" d="M8 0C12.4183 0 16 3.58172 16 8C16 12.4183 12.4183 16 8 16C3.58172 16 0 12.4183 0 8C0 3.58172 3.58172 0 8 0ZM8 2C4.68629 2 2 4.68629 2 8C2 11.3137 4.68629 14 8 14C11.3137 14 14 11.3137 14 8C14 4.68629 11.3137 2 8 2Z" fill="#657077"/>
</g>
</g>
<defs>
<clipPath id="clip0_999_35455">
<rect width="16" height="16" fill="white"/>
</clipPath>
</defs>
</svg>
