<svg width="16" height="16" viewBox="0 0 16 16" fill="none" xmlns="http://www.w3.org/2000/svg">
<g id="icon=file_2">
<g id="Union">
<path d="M11 10C11.5523 10 12 10.4477 12 11C12 11.5523 11.5523 12 11 12H5C4.44772 12 4 11.5523 4 11C4 10.4477 4.44772 10 5 10H11Z" fill="#657077"/>
<path fill-rule="evenodd" clip-rule="evenodd" d="M8.71191 0C9.4717 6.07917e-05 10.2033 0.288223 10.7588 0.806641L14.0469 3.87598C14.6548 4.44335 15 5.23779 15 6.06934V13.5996C15 14.2593 14.7188 14.8774 14.2432 15.3213C13.7699 15.763 13.1416 16 12.5 16H3.5C2.85839 16 2.23013 15.763 1.75684 15.3213C1.28121 14.8774 1 14.2593 1 13.5996V2.40039C1 1.74074 1.28121 1.12263 1.75684 0.678711C2.23013 0.236995 2.85839 0 3.5 0H8.71191ZM3.5 2C3.34625 2 3.21139 2.0575 3.12207 2.14062C3.03509 2.22181 3 2.31744 3 2.40039V13.5996C3 13.6826 3.03509 13.7782 3.12207 13.8594C3.21139 13.9425 3.34625 14 3.5 14H12.5C12.6538 14 12.7886 13.9425 12.8779 13.8594C12.9649 13.7782 13 13.6826 13 13.5996V7H11C9.34315 7 8 5.65685 8 4V2H3.5ZM10 4C10 4.55228 10.4477 5 11 5H12.3203L10 2.83398V4Z" fill="#657077"/>
</g>
</g>
</svg>
