<svg width="16" height="16" viewBox="0 0 16 16" fill="none" xmlns="http://www.w3.org/2000/svg">
<g id="icon=Movie">
<path id="Union" fill-rule="evenodd" clip-rule="evenodd" d="M13.4736 1C14.7184 1 15.9998 1.8941 16 3.30762V12.6924C15.9998 14.1059 14.7184 15 13.4736 15H2.52637C1.28158 15 0.000231006 14.1059 0 12.6924V3.30762C0.000231222 1.8941 1.28158 1 2.52637 1H13.4736ZM2 12.6924C2.0001 12.7229 2.01232 12.7842 2.09766 12.8574C2.1856 12.9328 2.33435 13 2.52637 13H4V11H2V12.6924ZM6 13H10V9H6V13ZM12 13H13.4736C13.6657 13 13.8144 12.9328 13.9023 12.8574C13.9877 12.7842 13.9999 12.7229 14 12.6924V11H12V13ZM2 9H4V7H2V9ZM12 7V9H14V7H12ZM6 7H10V3H6V7ZM12 5H14V3.30762C13.9999 3.27713 13.9877 3.21579 13.9023 3.14258C13.8144 3.0672 13.6657 3 13.4736 3H12V5ZM2.52637 3C2.33435 3 2.1856 3.0672 2.09766 3.14258C2.01232 3.21579 2.0001 3.27713 2 3.30762V5H4V3H2.52637Z" fill="#657077"/>
</g>
</svg>
