<svg width="16" height="16" viewBox="0 0 16 16" fill="none" xmlns="http://www.w3.org/2000/svg">
<g id="icon=Flag">
<path id="Union" fill-rule="evenodd" clip-rule="evenodd" d="M13.5068 0.130004C13.8164 -0.0453371 14.1965 -0.0432408 14.5039 0.135863C14.8112 0.315017 14.9999 0.644436 15 1.00012V10.0001C15 10.3602 14.8064 10.6927 14.4932 10.8702L14 10.0001C14.4551 10.8034 14.4906 10.8654 14.4932 10.8702L14.4834 10.8751C14.4786 10.8778 14.4719 10.8814 14.4639 10.8859C14.4477 10.8948 14.425 10.9076 14.3965 10.923C14.3392 10.9539 14.2579 10.9969 14.1572 11.048C13.9568 11.1497 13.6755 11.2856 13.3506 11.422C12.7371 11.6795 11.8298 12.0001 11 12.0001C9.60598 12.0001 8.55778 11.717 7.64062 11.464C6.72371 11.211 5.97142 11.0001 5 11.0001C4.02925 11.0001 3.44235 11.2147 3.12695 11.3829C3.07892 11.4086 3.03749 11.4355 3 11.4591V15.0001C3 15.5524 2.55228 16.0001 2 16.0001C1.44772 16.0001 1 15.5524 1 15.0001V2.00012C1.00004 1.78387 1.07048 1.57354 1.2002 1.40051L2 2.00012C1.20008 1.40018 1.20117 1.39856 1.20117 1.39856L1.20215 1.39758L1.20312 1.39563L1.20703 1.39075C1.20968 1.38729 1.21274 1.38294 1.21582 1.37903C1.22201 1.37116 1.22935 1.36231 1.2373 1.35266C1.25333 1.33323 1.27338 1.31011 1.29688 1.2843C1.34431 1.23222 1.40809 1.16809 1.48828 1.0968C1.64911 0.953851 1.87732 0.781694 2.18555 0.617309C2.80766 0.285551 3.72093 0.000121307 5 0.000121307C6.27843 0.000121307 7.27638 0.289219 8.17188 0.536254C9.06717 0.783231 9.89414 1.00012 11 1.00012C11.4051 1.00012 11.9984 0.820742 12.5762 0.578246C12.8464 0.464832 13.083 0.350473 13.252 0.26477C13.336 0.222114 13.4032 0.186979 13.4473 0.163207C13.4688 0.151583 13.4849 0.142492 13.4951 0.13684C13.4999 0.134206 13.5039 0.132105 13.5059 0.130981L13.5068 0.130004ZM5 2.00012C4.02925 2.00012 3.44235 2.21474 3.12695 2.38293C3.0789 2.40857 3.03743 2.43544 3 2.45911V9.28039C3.53396 9.11356 4.19438 9.00012 5 9.00012C6.27843 9.00012 7.27638 9.28922 8.17188 9.53625C9.06717 9.78323 9.89414 10.0001 11 10.0001C11.4051 10.0001 11.9984 9.82074 12.5762 9.57825C12.7306 9.51342 12.8738 9.44765 13 9.38782V2.55872C12.4188 2.77939 11.6839 3.00012 11 3.00012C9.60598 3.00012 8.55778 2.71699 7.64062 2.46399C6.72371 2.21105 5.97142 2.00012 5 2.00012Z" fill="#657077"/>
</g>
</svg>
