<svg width="16" height="16" viewBox="0 0 16 16" fill="none" xmlns="http://www.w3.org/2000/svg">
<g id="icon=Folder">
<path id="Union" fill-rule="evenodd" clip-rule="evenodd" d="M7.09863 2.00488C7.32764 2.02755 7.54288 2.12884 7.70703 2.29297L9.41406 4H13.5C14.8807 4 16 5.11929 16 6.5V12.625C16 13.2975 15.697 13.9135 15.207 14.3467C14.721 14.7763 14.085 15 13.4443 15H2.55566C1.91499 15 1.27901 14.7763 0.792969 14.3467C0.303045 13.9135 3.83353e-10 13.2974 3.83352e-10 12.625V4.375C-2.33061e-05 3.06335 1.06335 2 2.375 2H7L7.09863 2.00488ZM2.375 4C2.16793 4 1.99999 4.16793 2 4.375V12.625C2 12.6818 2.02483 12.7651 2.11816 12.8477C2.21557 12.9338 2.37122 13 2.55566 13H13.4443C13.6288 13 13.7844 12.9338 13.8818 12.8477C13.9752 12.7651 14 12.6818 14 12.625V6.5C14 6.22386 13.7761 6 13.5 6H9C8.73478 6 8.4805 5.89457 8.29297 5.70703L6.58594 4H2.375Z" fill="#657077"/>
</g>
</svg>
