<svg width="16" height="16" viewBox="0 0 16 16" fill="none" xmlns="http://www.w3.org/2000/svg">
<g id="icon=Gift">
<path id="Union" fill-rule="evenodd" clip-rule="evenodd" d="M11.8574 0C12.6694 6.87901e-05 13.4609 0.300364 14.0547 0.854492C14.6509 1.41093 15 2.18122 15 3C15 3.34631 14.9365 3.68356 14.8193 4H15C15.5523 4 16 4.44772 16 5V9C16 9.55229 15.5523 10 15 10H14V15C14 15.5523 13.5523 16 13 16H3C2.44772 16 2 15.5523 2 15V10H1C0.447715 10 0 9.55229 0 9V5C0 4.44772 0.447715 4 1 4H1.18066C1.06348 3.68356 1 3.34631 1 3C1 2.18122 1.34913 1.41093 1.94531 0.854492C2.53908 0.300364 3.3306 6.88581e-05 4.14258 0C6.10715 0 7.32375 1.29074 8 2.39746C8.67625 1.29074 9.89285 0 11.8574 0ZM4 14H7V10H4V14ZM9 14H12V10H9V14ZM2 8H7V6H2V8ZM9 8H14V6H9V8ZM4.14258 2C3.81818 2.00007 3.51938 2.12059 3.30957 2.31641C3.10203 2.51011 3 2.75792 3 3C3 3.24208 3.10203 3.48989 3.30957 3.68359C3.51938 3.87941 3.81818 3.99993 4.14258 4H6.59082C6.51569 3.8392 6.43194 3.6724 6.33496 3.50781C5.82021 2.6343 5.12132 2 4.14258 2ZM11.8574 2C10.8787 2 10.1798 2.6343 9.66504 3.50781C9.56806 3.6724 9.48431 3.8392 9.40918 4H11.8574C12.1818 3.99993 12.4806 3.87941 12.6904 3.68359C12.898 3.48989 13 3.24208 13 3C13 2.75792 12.898 2.51011 12.6904 2.31641C12.4806 2.12059 12.1818 2.00007 11.8574 2Z" fill="#657077"/>
</g>
</svg>
