<svg width="16" height="16" viewBox="0 0 16 16" fill="none" xmlns="http://www.w3.org/2000/svg">
<g id="icon=hash">
<path id="Union" fill-rule="evenodd" clip-rule="evenodd" d="M10.0137 1.83597C10.1045 1.29132 10.6194 0.923107 11.1641 1.0137C11.7087 1.10448 12.0769 1.61945 11.9863 2.16409L11.5137 5.00003H13C13.5523 5.00003 14 5.44776 14 6.00003C14 6.55231 13.5523 7.00003 13 7.00003H11.1807L10.8467 9.00003H13C13.5523 9.00003 14 9.44776 14 10C14 10.5523 13.5523 11 13 11H10.5137L9.98633 14.1641C9.89555 14.7088 9.38059 15.077 8.83594 14.9864C8.29128 14.8956 7.92307 14.3806 8.01367 13.836L8.48633 11H6.51367L5.98633 14.1641C5.89555 14.7088 5.38059 15.077 4.83594 14.9864C4.29128 14.8956 3.92307 14.3806 4.01367 13.836L4.48633 11H3C2.44772 11 2 10.5523 2 10C2.00002 9.44776 2.44773 9.00003 3 9.00003H4.81934L5.15332 7.00003H3C2.44772 7.00003 2 6.55231 2 6.00003C2.00002 5.44776 2.44773 5.00003 3 5.00003H5.48633L6.01367 1.83597C6.10446 1.29132 6.61942 0.923107 7.16406 1.0137C7.70872 1.10448 8.07691 1.61945 7.98633 2.16409L7.51367 5.00003H9.48633L10.0137 1.83597ZM7.18066 7.00003L6.84668 9.00003H8.81934L9.15332 7.00003H7.18066Z" fill="#657077"/>
</g>
</svg>
