<svg width="16" height="16" viewBox="0 0 16 16" fill="none" xmlns="http://www.w3.org/2000/svg">
<g id="icon=headphones">
<path id="Union" fill-rule="evenodd" clip-rule="evenodd" d="M8 1C10.1033 1 12.1316 1.78697 13.6357 3.20508C15.1418 4.62511 15.9999 6.56449 16 8.59961V12.5C16 13.8807 14.8807 15 13.5 15H12.5C11.1193 15 10 13.8807 10 12.5V11.5C10 10.1193 11.1193 9 12.5 9H13.5C13.6712 9 13.8385 9.01702 14 9.0498V8.59961C13.9999 7.13424 13.3828 5.71638 12.2637 4.66113C11.1424 3.60389 9.60966 3 8 3C6.39034 3 4.85764 3.60389 3.73633 4.66113C2.61723 5.71638 2.00011 7.13424 2 8.59961V9.0498C2.16154 9.01702 2.32878 9 2.5 9H3.5C4.88071 9 6 10.1193 6 11.5V12.5C6 13.8807 4.88071 15 3.5 15H2.5C1.11929 15 0 13.8807 0 12.5V8.59961C0.000109917 6.56449 0.858163 4.62511 2.36426 3.20508C3.86843 1.78697 5.89674 1 8 1ZM2.5 11C2.22386 11 2 11.2239 2 11.5V12.5C2 12.7761 2.22386 13 2.5 13H3.5C3.77614 13 4 12.7761 4 12.5V11.5C4 11.2239 3.77614 11 3.5 11H2.5ZM12.5 11C12.2239 11 12 11.2239 12 11.5V12.5C12 12.7761 12.2239 13 12.5 13H13.5C13.7761 13 14 12.7761 14 12.5V11.5C14 11.2239 13.7761 11 13.5 11H12.5Z" fill="#657077"/>
</g>
</svg>
