<svg width="17" height="16" viewBox="0 0 17 16" fill="none" xmlns="http://www.w3.org/2000/svg">
<g id="icon=Heart">
<path id="Union" fill-rule="evenodd" clip-rule="evenodd" d="M11.3359 1C11.9485 1.00006 12.5561 1.11879 13.123 1.34961C13.6898 1.58048 14.206 1.9195 14.6415 2.34766L14.8007 2.51172C15.1623 2.9037 15.4538 3.35512 15.6611 3.84668C15.8867 4.38178 16.1191 5.19337 16.0136 6.11426C15.9537 6.63704 15.873 6.89292 15.6611 7.39551C15.4538 7.8871 15.1623 8.33846 14.8007 8.73047L14.6415 8.89453L8.72063 14.7129C8.33156 15.0951 7.7083 15.0952 7.31927 14.7129L1.39837 8.89453C1.00515 8.50806 0.680603 8.11078 0.444267 7.63672C0.206413 7.15953 0.086044 6.66103 0.0262985 6.10742C-0.143488 4.53375 0.531478 3.19967 1.39837 2.34766C2.27813 1.48309 3.46823 1.00005 4.70501 1C5.89756 1.00005 6.90351 1.44783 7.72747 2.19434L7.89056 2.34766L7.93841 2.39844L8.01751 2.4873L8.09466 2.40039C8.1106 2.38226 8.12725 2.36458 8.14446 2.34766C8.49572 2.00231 8.90533 1.61134 9.54778 1.34961C10.1148 1.11871 10.7231 1.00002 11.3359 1ZM11.3359 3C10.981 3.00002 10.6296 3.06905 10.3027 3.20215C10.0555 3.30282 9.88474 3.44177 9.56243 3.75781L8.77142 4.66016C8.58204 4.87555 8.30918 4.9994 8.02239 5C7.73557 5.00042 7.46155 4.87782 7.27142 4.66309L6.47259 3.75977C5.94807 3.25023 5.3804 3.00005 4.70501 3C3.98754 3.00005 3.30283 3.28098 2.80071 3.77441C2.28581 4.28047 1.92212 5.03515 2.01458 5.89258C2.05679 6.2838 2.1309 6.53664 2.23431 6.74414C2.33924 6.95464 2.5032 7.17636 2.80071 7.46875L8.01946 12.5977L13.2402 7.46875C13.4885 7.22471 13.6848 6.93473 13.8183 6.61816C13.9089 6.40333 13.9465 6.30171 13.9697 6.21973C13.9902 6.1468 14.0069 6.06347 14.0273 5.88574C14.0805 5.42038 13.9631 4.96745 13.8183 4.62402C13.6848 4.30739 13.4886 4.01849 13.2402 3.77441C12.9917 3.53019 12.695 3.33526 12.3681 3.20215C12.0413 3.06914 11.6905 3.00006 11.3359 3Z" fill="#657077"/>
</g>
</svg>
