<svg width="16" height="16" viewBox="0 0 16 16" fill="none" xmlns="http://www.w3.org/2000/svg">
<g id="icon=Home">
<path id="Union" fill-rule="evenodd" clip-rule="evenodd" d="M7.40137 0.198296C7.78075 -0.0854602 8.31448 -0.0644438 8.67188 0.259819L14.6719 5.70415C14.8807 5.89365 14.9999 6.16242 15 6.44439V13.4444C15 14.1106 14.7449 14.7565 14.2803 15.2383C13.8145 15.7214 13.175 16.0001 12.5 16.0001H3.5C2.82498 16.0001 2.18553 15.7214 1.71973 15.2383C1.25515 14.7565 1 14.1106 1 13.4444V6.44439C1.00006 6.16242 1.11931 5.89365 1.32812 5.70415L7.32812 0.259819L7.40137 0.198296ZM3 6.88677V13.4444C3 13.6032 3.06121 13.749 3.15918 13.8506C3.25596 13.9509 3.37944 14.0001 3.5 14.0001H5V9.00005C5.00005 8.44781 5.44775 8.00005 6 8.00005H10C10.5523 8.00005 11 8.44781 11 9.00005V14.0001H12.5C12.6206 14.0001 12.744 13.9509 12.8408 13.8506C12.9388 13.749 13 13.6032 13 13.4444V6.88677L8 2.34966L3 6.88677ZM7 14.0001H9V10.0001H7V14.0001Z" fill="#657077"/>
</g>
</svg>
