<svg width="16" height="16" viewBox="0 0 16 16" fill="none" xmlns="http://www.w3.org/2000/svg">
<g id="icon=User">
<g id="Union">
<path d="M11 9C12.0969 9 13.1242 9.48538 13.8643 10.3076C14.6011 11.1263 14.9999 12.2159 15 13.333V15C15 15.5523 14.5523 16 14 16C13.4477 16 13 15.5523 13 15V13.333C12.9999 12.6823 12.7661 12.0769 12.3779 11.6455C11.9927 11.2175 11.4944 11 11 11H5C4.5056 11 4.00726 11.2175 3.62207 11.6455C3.23386 12.0769 3.00008 12.6823 3 13.333V15C3 15.5523 2.55228 16 2 16C1.44772 16 1 15.5523 1 15V13.333C1.00008 12.2159 1.39891 11.1263 2.13574 10.3076C2.87577 9.48538 3.90311 9 5 9H11Z" fill="#657077"/>
<path fill-rule="evenodd" clip-rule="evenodd" d="M8 0C10.2091 0 12 1.79086 12 4C12 6.20914 10.2091 8 8 8C5.79086 8 4 6.20914 4 4C4 1.79086 5.79086 0 8 0ZM8 2C6.89543 2 6 2.89543 6 4C6 5.10457 6.89543 6 8 6C9.10457 6 10 5.10457 10 4C10 2.89543 9.10457 2 8 2Z" fill="#657077"/>
</g>
</g>
</svg>
