<svg width="16" height="16" viewBox="0 0 16 16" fill="none" xmlns="http://www.w3.org/2000/svg">
<g id="icon=Image">
<g id="Union">
<path d="M6 4C7.10457 4 8 4.89543 8 6C8 7.10457 7.10457 8 6 8C4.89543 8 4 7.10457 4 6C4 4.89543 4.89543 4 6 4Z" fill="#657077"/>
<path fill-rule="evenodd" clip-rule="evenodd" d="M13.4443 0C14.8557 0 16 1.14427 16 2.55566V13.4443C16 14.8557 14.8557 16 13.4443 16H2.55566C1.14427 16 0 14.8557 0 13.4443V2.55566C0 1.14427 1.14427 0 2.55566 0H13.4443ZM8.20312 14H13.4443C13.7406 14 13.9798 13.7678 13.9961 13.4756L11.2666 10.498L8.20312 14ZM2.55566 2C2.24884 2 2 2.24884 2 2.55566V13.4443C2 13.7512 2.24884 14 2.55566 14H5.5459L10.4971 8.3418C10.6843 8.12786 10.954 8.00333 11.2383 8C11.5226 7.99671 11.7952 8.11462 11.9873 8.32422L14 10.5195V2.55566C14 2.24884 13.7512 2 13.4443 2H2.55566Z" fill="#657077"/>
</g>
</g>
</svg>
