<svg width="16" height="16" viewBox="0 0 16 16" fill="none" xmlns="http://www.w3.org/2000/svg">
<g id="icon=Location">
<g id="Union">
<path fill-rule="evenodd" clip-rule="evenodd" d="M8 4C9.65685 4 11 5.34315 11 7C11 8.65685 9.65685 10 8 10C6.34315 10 5 8.65685 5 7C5 5.34315 6.34315 4 8 4ZM8 6C7.44772 6 7 6.44772 7 7C7 7.55229 7.44772 8 8 8C8.55229 8 9 7.55229 9 7C9 6.44772 8.55229 6 8 6Z" fill="#657077"/>
<path fill-rule="evenodd" clip-rule="evenodd" d="M8 0C9.84189 0 11.6177 0.697973 12.9336 1.9541C14.251 3.21172 15 4.92806 15 6.72754C14.9999 9.37426 13.2455 11.6911 11.71 13.2383C10.9188 14.0355 10.1312 14.6827 9.54297 15.1299C9.24798 15.3541 9.0004 15.5296 8.8252 15.6504C8.73773 15.7107 8.66816 15.7576 8.61914 15.79C8.59471 15.8062 8.5753 15.8192 8.56152 15.8281C8.55464 15.8326 8.54899 15.8363 8.54492 15.8389C8.54301 15.8401 8.54004 15.8418 8.54004 15.8418L8.53809 15.8428L8.53711 15.8438C8.25049 16.0261 7.89389 16.0489 7.58984 15.9121L7.46289 15.8438L7.45996 15.8418C7.45996 15.8418 7.45699 15.8401 7.45508 15.8389C7.45101 15.8363 7.44536 15.8326 7.43848 15.8281C7.4247 15.8192 7.40529 15.8062 7.38086 15.79C7.33184 15.7576 7.26227 15.7107 7.1748 15.6504C6.9996 15.5296 6.75202 15.3541 6.45703 15.1299C5.86876 14.6827 5.08122 14.0355 4.29004 13.2383C2.75452 11.6911 1.00012 9.37426 1 6.72754C1 4.92806 1.74903 3.21172 3.06641 1.9541C4.38235 0.697973 6.15811 0 8 0ZM8 2C6.6595 2 5.3827 2.50863 4.44824 3.40039C3.51533 4.2909 3 5.4892 3 6.72754C3.00012 8.53504 4.24565 10.3547 5.70996 11.8301C6.41857 12.544 7.13134 13.1302 7.66797 13.5381C7.78857 13.6298 7.90013 13.7117 8 13.7842C8.09987 13.7117 8.21143 13.6298 8.33203 13.5381C8.86866 13.1302 9.58143 12.544 10.29 11.8301C11.7543 10.3547 12.9999 8.53504 13 6.72754C13 5.4892 12.4847 4.2909 11.5518 3.40039C10.6173 2.50863 9.3405 2 8 2Z" fill="#657077"/>
</g>
</g>
</svg>
