<svg width="16" height="16" viewBox="0 0 16 16" fill="none" xmlns="http://www.w3.org/2000/svg">
<g id="icon=layers">
<g id="Union">
<path d="M13.5311 10.1165C14.019 9.85788 14.625 10.0437 14.8837 10.5315C15.1422 11.0194 14.9564 11.6253 14.4686 11.884L9.10535 14.7258C8.41413 15.0922 7.58562 15.0922 6.89441 14.7258L1.53113 11.884C1.0434 11.6253 0.857579 11.0194 1.11609 10.5315C1.37479 10.0437 1.98074 9.85791 2.46863 10.1165L7.83093 12.9592C7.93634 13.0151 8.0634 13.0151 8.16882 12.9592L13.5311 10.1165Z" fill="#657077"/>
<path d="M13.5311 7.11647C14.019 6.85788 14.625 7.04372 14.8837 7.53151C15.1422 8.0194 14.9564 8.62534 14.4686 8.88405L9.10535 11.7258C8.41413 12.0922 7.58562 12.0922 6.89441 11.7258L1.53113 8.88405C1.0434 8.62534 0.857579 8.01937 1.11609 7.53151C1.37479 7.04373 1.98074 6.85791 2.46863 7.11647L7.83093 9.95924C7.93634 10.0151 8.0634 10.0151 8.16882 9.95924L13.5311 7.11647Z" fill="#657077"/>
<path fill-rule="evenodd" clip-rule="evenodd" d="M6.89441 1.27369C7.58554 0.907444 8.4142 0.907489 9.10535 1.27369L14.4686 4.11647C14.7952 4.28979 14.9996 4.62955 14.9999 4.99928C14.9999 5.36931 14.7954 5.70959 14.4686 5.88307L9.10535 8.72584C8.41411 9.0922 7.58565 9.0922 6.89441 8.72584L1.53113 5.88307C1.20439 5.70957 0.999877 5.36927 0.999878 4.99928C1.0002 4.62955 1.20453 4.28979 1.53113 4.11647L6.89441 1.27369ZM8.16882 3.04127C8.06346 2.98553 7.93627 2.98549 7.83093 3.04127L4.13464 4.99928L7.83093 6.95826C7.93638 7.01415 8.06338 7.01415 8.16882 6.95826L11.8641 4.99928L8.16882 3.04127Z" fill="#657077"/>
</g>
</g>
</svg>
