<svg width="16" height="16" viewBox="0 0 16 16" fill="none" xmlns="http://www.w3.org/2000/svg">
<g id="icon=life_buoy" clip-path="url(#clip0_999_35446)">
<path id="Union" fill-rule="evenodd" clip-rule="evenodd" d="M8 0C12.4183 0 16 3.58172 16 8C16 12.4183 12.4183 16 8 16C3.58172 16 0 12.4183 0 8C0 3.58172 3.58172 0 8 0ZM10.0312 11.4453C9.43577 11.7971 8.74175 12 8 12C7.25795 12 6.56341 11.7974 5.96777 11.4453L4.52441 12.8887C5.5053 13.5873 6.70401 14 8 14C9.2957 14 10.4938 13.587 11.4746 12.8887L10.0312 11.4453ZM3.11035 4.52441C2.41194 5.50521 2 6.70422 2 8C2 9.2955 2.41222 10.4939 3.11035 11.4746L4.55371 10.0312C4.20203 9.43587 4 8.74157 4 8C4 7.25813 4.20177 6.56332 4.55371 5.96777L3.11035 4.52441ZM11.4453 5.96777C11.7974 6.56341 12 7.25795 12 8C12 8.74175 11.7971 9.43577 11.4453 10.0312L12.8887 11.4746C13.587 10.4938 14 9.2957 14 8C14 6.70401 13.5873 5.5053 12.8887 4.52441L11.4453 5.96777ZM8 6C6.89543 6 6 6.89543 6 8C6 9.10457 6.89543 10 8 10C9.10457 10 10 9.10457 10 8C10 6.89543 9.10457 6 8 6ZM8 2C6.70422 2 5.50521 2.41194 4.52441 3.11035L5.96777 4.55371C6.56332 4.20177 7.25813 4 8 4C8.74157 4 9.43587 4.20203 10.0312 4.55371L11.4746 3.11035C10.4939 2.41222 9.2955 2 8 2Z" fill="#657077"/>
</g>
<defs>
<clipPath id="clip0_999_35446">
<rect width="16" height="16" fill="white"/>
</clipPath>
</defs>
</svg>
