<svg width="16" height="16" viewBox="0 0 16 16" fill="none" xmlns="http://www.w3.org/2000/svg">
<g id="icon=lock_security">
<path id="Union" fill-rule="evenodd" clip-rule="evenodd" d="M8 0C9.03709 0 10.0458 0.381 10.8008 1.08008C11.5582 1.78145 11.9999 2.74972 12 3.77734V6H12.667C13.9111 6.00017 14.9999 6.97418 15 8.27246V12.7275C14.9999 14.0258 13.9111 14.9998 12.667 15H3.33301C2.08891 14.9998 1.00015 14.0258 1 12.7275V8.27246C1.00015 6.97418 2.08891 6.00017 3.33301 6H4V3.77734C4.00012 2.74972 4.44182 1.78145 5.19922 1.08008C5.95422 0.381 6.96291 2.91773e-08 8 0ZM3.33301 8C3.10498 8.00016 3.00017 8.16521 3 8.27246V12.7275C3.00017 12.8348 3.10498 12.9998 3.33301 13H12.667C12.895 12.9998 12.9998 12.8348 13 12.7275V8.27246C12.9998 8.16521 12.895 8.00016 12.667 8H3.33301ZM8 2C7.44579 2 6.92783 2.20408 6.55762 2.54688C6.19012 2.88715 6.00012 3.33192 6 3.77734V6H10V3.77734C9.99988 3.33192 9.80988 2.88715 9.44238 2.54688C9.07217 2.20408 8.55421 2 8 2Z" fill="#657077"/>
</g>
</svg>
