<svg width="16" height="16" viewBox="0 0 16 16" fill="none" xmlns="http://www.w3.org/2000/svg">
<g id="icon=Award">
<path id="Union" fill-rule="evenodd" clip-rule="evenodd" d="M8.5 0C11.5376 0 14 2.46243 14 5.5C14 7.42405 13.011 9.11573 11.5146 10.0986L11.9951 14.9004C12.0368 15.3172 11.8142 15.7162 11.4375 15.8994C11.0609 16.0826 10.6098 16.0116 10.3076 15.7217L8.5 13.9854L6.69238 15.7217C6.39017 16.0116 5.93913 16.0826 5.5625 15.8994C5.18577 15.7162 4.9632 15.3172 5.00488 14.9004L5.48438 10.0986C3.98844 9.11566 3 7.42376 3 5.5C3 2.46243 5.46243 0 8.5 0ZM9.58398 10.8926C9.23349 10.9626 8.8711 11 8.5 11C8.12857 11 7.76582 10.9628 7.41504 10.8926L7.26465 12.3994L7.80762 11.8789L7.88281 11.8135C8.27022 11.5088 8.82963 11.5307 9.19238 11.8789L9.73438 12.3994L9.58398 10.8926ZM8.5 2C6.567 2 5 3.567 5 5.5C5 7.433 6.567 9 8.5 9C10.433 9 12 7.433 12 5.5C12 3.567 10.433 2 8.5 2Z" fill="#657077"/>
</g>
</svg>
