<svg width="16" height="16" viewBox="0 0 16 16" fill="none" xmlns="http://www.w3.org/2000/svg">
<g id="icon=package">
<path id="Union" fill-rule="evenodd" clip-rule="evenodd" d="M7.99976 0C8.41899 0 8.82844 0.115707 9.1853 0.332031L9.18433 0.333008L13.8474 3.13086L13.8513 3.13281C14.2073 3.34869 14.4977 3.65562 14.697 4.01758C14.8076 4.21841 14.888 4.43344 14.9382 4.65527C14.9895 4.79416 15.0072 4.93837 14.9958 5.0791C14.9978 5.11877 14.9997 5.15845 14.9998 5.19824V10.8018C14.9993 11.2134 14.8961 11.6206 14.697 11.9824C14.4977 12.3444 14.2073 12.6513 13.8513 12.8672L13.8474 12.8691L9.18433 15.667C8.82751 15.8832 8.41891 16 7.99976 16C7.58054 15.9999 7.17103 15.8843 6.81421 15.668L2.1521 12.8691L2.14819 12.8672C1.79222 12.6513 1.50174 12.3444 1.30249 11.9824C1.10341 11.6207 1.00019 11.2134 0.999756 10.8018V5.19824L1.00366 5.07031C0.993255 4.9249 1.01263 4.77551 1.06909 4.63281C1.11966 4.41916 1.1958 4.21144 1.30249 4.01758C1.50174 3.65564 1.79222 3.34871 2.14819 3.13281L2.1521 3.13086L6.81421 0.333008C7.17104 0.116649 7.58054 5.72413e-05 7.99976 0ZM2.99976 10.7998L3.0144 10.915C3.02376 10.9514 3.03717 10.9861 3.05444 11.0176C3.08912 11.0806 3.13653 11.1266 3.1853 11.1562L6.99976 13.4463V8.61816L2.99976 6.61816V10.7998ZM8.99976 8.61816V13.4453L12.8142 11.1562C12.863 11.1266 12.9103 11.0806 12.9451 11.0176C12.9797 10.9546 12.9995 10.8796 12.9998 10.8008V6.61816L8.99976 8.61816ZM3.51929 4.6416L7.99976 6.88184L9.26343 6.25L4.66772 3.95215L3.51929 4.6416ZM7.99976 2C7.95107 2.00006 7.89969 2.01364 7.85132 2.04297L7.84741 2.04492L6.70093 2.73242L11.447 5.10547C11.4637 5.11383 11.4798 5.12366 11.4958 5.13281L12.4792 4.6416L8.1521 2.04492L8.14819 2.04297C8.09979 2.01367 8.04846 2 7.99976 2Z" fill="#657077"/>
</g>
</svg>
