<svg width="16" height="16" viewBox="0 0 16 16" fill="none" xmlns="http://www.w3.org/2000/svg">
<g id="icon=Pen">
<path id="Union" fill-rule="evenodd" clip-rule="evenodd" d="M13.0029 0C13.3964 0 13.7859 0.077973 14.1494 0.228516C14.513 0.37913 14.8438 0.59963 15.1221 0.87793C15.4004 1.15623 15.6209 1.48697 15.7715 1.85059C15.922 2.21413 16 2.60359 16 2.99707C16 3.39056 15.922 3.78 15.7715 4.14355C15.6209 4.50717 15.4004 4.83791 15.1221 5.11621L5.5908 14.6484C5.46779 14.7715 5.3143 14.8595 5.14647 14.9053L1.26268 15.9648C0.916586 16.0591 0.546602 15.9607 0.292952 15.707C0.0393033 15.4534 -0.0590905 15.0834 0.0351399 14.7373L1.09471 10.8535L1.1367 10.7305C1.18676 10.6109 1.25931 10.5014 1.35155 10.4092L10.8838 0.87793C11.1621 0.599629 11.4928 0.37913 11.8564 0.228516C12.22 0.0779596 12.6094 5.13319e-06 13.0029 0ZM13.0029 2C12.872 2.00001 12.742 2.02607 12.6211 2.07617C12.5003 2.12627 12.3903 2.19951 12.2978 2.29199L2.95311 11.6367L2.42479 13.5742L4.36229 13.0459L13.708 3.70215C13.8005 3.60966 13.8737 3.49972 13.9238 3.37891C13.9739 3.25796 14 3.12799 14 2.99707C14 2.86614 13.9739 2.7362 13.9238 2.61523C13.8737 2.49439 13.8005 2.3845 13.708 2.29199C13.6155 2.19949 13.5056 2.12627 13.3847 2.07617C13.2638 2.02607 13.1338 2 13.0029 2Z" fill="#657077"/>
</g>
</svg>
