<svg width="16" height="16" viewBox="0 0 16 16" fill="none" xmlns="http://www.w3.org/2000/svg">
<g id="icon=Percent">
<g id="Union">
<path fill-rule="evenodd" clip-rule="evenodd" d="M12.5 9C14.433 9 16 10.567 16 12.5C16 14.433 14.433 16 12.5 16C10.567 16 9 14.433 9 12.5C9 10.567 10.567 9 12.5 9ZM12.5 11C11.6716 11 11 11.6716 11 12.5C11 13.3284 11.6716 14 12.5 14C13.3284 14 14 13.3284 14 12.5C14 11.6716 13.3284 11 12.5 11Z" fill="#657077"/>
<path d="M13.293 1.29297C13.6835 0.902444 14.3165 0.902444 14.707 1.29297C15.0976 1.68349 15.0976 2.31651 14.707 2.70703L2.70703 14.707C2.31651 15.0976 1.68349 15.0976 1.29297 14.707C0.902444 14.3165 0.902444 13.6835 1.29297 13.293L13.293 1.29297Z" fill="#657077"/>
<path fill-rule="evenodd" clip-rule="evenodd" d="M3.5 0C5.433 0 7 1.567 7 3.5C7 5.433 5.433 7 3.5 7C1.567 7 0 5.433 0 3.5C0 1.567 1.567 0 3.5 0ZM3.5 2C2.67157 2 2 2.67157 2 3.5C2 4.32843 2.67157 5 3.5 5C4.32843 5 5 4.32843 5 3.5C5 2.67157 4.32843 2 3.5 2Z" fill="#657077"/>
</g>
</g>
</svg>
