<svg width="16" height="16" viewBox="0 0 16 16" fill="none" xmlns="http://www.w3.org/2000/svg">
<g id="icon=Globe">
<path id="Union" fill-rule="evenodd" clip-rule="evenodd" d="M8 0C12.4183 0 16 3.58172 16 8C16 12.4183 12.4183 16 8 16C3.58172 16 0 12.4183 0 8C0 3.58172 3.58172 0 8 0ZM2.08496 9C2.42356 11.0175 3.76797 12.692 5.58594 13.4922C4.76503 12.1143 4.24491 10.5874 4.06738 9H2.08496ZM11.9326 9C11.7551 10.5876 11.2341 12.1142 10.4131 13.4922C12.2315 12.6921 13.5764 11.0178 13.915 9H11.9326ZM6.08398 9C6.30581 10.615 6.96199 12.1571 8 13.4814C9.038 12.1571 9.69344 10.615 9.91504 9H6.08398ZM10.4131 2.50684C11.2344 3.88505 11.755 5.41212 11.9326 7H13.915C13.5764 4.98202 12.2317 3.30686 10.4131 2.50684ZM8 2.51758C6.96171 3.84206 6.30573 5.38465 6.08398 7H9.91504C9.69352 5.38466 9.03828 3.84206 8 2.51758ZM5.58594 2.50684C3.76779 3.30701 2.42358 4.98232 2.08496 7H4.06738C4.24494 5.41228 4.76478 3.88494 5.58594 2.50684Z" fill="#657077"/>
</g>
</svg>
