<svg width="16" height="16" viewBox="0 0 16 16" fill="none" xmlns="http://www.w3.org/2000/svg">
<g id="icon=Schedule">
<g id="Union">
<path d="M5.07129 1.10449C5.5657 0.858924 6.16525 1.06047 6.41113 1.55469C6.65692 2.04927 6.45552 2.64972 5.96094 2.89551C4.20397 3.76871 3.00006 5.58016 3 7.6709C3 10.614 5.38601 13 8.3291 13C10.4198 12.9999 12.2313 11.796 13.1045 10.0391C13.3503 9.54448 13.9507 9.34308 14.4453 9.58887C14.9395 9.83475 15.1411 10.4343 14.8955 10.9287C13.6975 13.3394 11.2081 14.9999 8.3291 15C4.28144 15 1 11.7186 1 7.6709C1.00006 4.7919 2.66056 2.30252 5.07129 1.10449Z" fill="#657077"/>
<path fill-rule="evenodd" clip-rule="evenodd" d="M8 0C9.05058 0 10.0909 0.207337 11.0615 0.609375C12.0321 1.01141 12.9144 1.59995 13.6572 2.34277C14.4 3.08559 14.9886 3.96795 15.3906 4.93848C15.7927 5.90908 16 6.94943 16 8C16 8.55228 15.5523 9 15 9H8C7.44772 9 7 8.55228 7 8V1C7 0.734784 7.10543 0.480505 7.29297 0.292969C7.4805 0.105432 7.73478 0 8 0ZM9 7H13.9141C13.8391 6.55651 13.7159 6.12161 13.543 5.7041C13.2414 4.97615 12.7993 4.31496 12.2422 3.75781C11.685 3.20066 11.0239 2.75856 10.2959 2.45703C9.87834 2.28408 9.44355 2.15995 9 2.08496V7Z" fill="#657077"/>
</g>
</g>
</svg>
