<svg width="16" height="16" viewBox="0 0 16 16" fill="none" xmlns="http://www.w3.org/2000/svg">
<g id="icon=share" clip-path="url(#clip0_999_35504)">
<path id="Union" fill-rule="evenodd" clip-rule="evenodd" d="M13 0C14.6569 0 16 1.34315 16 3C16 4.65685 14.6569 6 13 6C12.1912 6 11.4585 5.67857 10.9189 5.1582L5.97559 7.62988C5.99053 7.75123 6 7.87461 6 8C6 8.12506 5.99045 8.2481 5.97559 8.36914L10.9189 10.8408C11.4584 10.3207 12.1915 10 13 10C14.6569 10 16 11.3431 16 13C16 14.6569 14.6569 16 13 16C11.3431 16 10 14.6569 10 13C10 12.8747 10.0085 12.7512 10.0234 12.6299L5.08008 10.1582C4.54059 10.6783 3.80854 11 3 11C1.34315 11 0 9.65685 0 8C0 6.34315 1.34315 5 3 5C3.8083 5 4.54063 5.32101 5.08008 5.84082L10.0234 3.36914C10.0086 3.24814 10 3.12502 10 3C10 1.34315 11.3431 0 13 0ZM13 12C12.4477 12 12 12.4477 12 13C12 13.5523 12.4477 14 13 14C13.5523 14 14 13.5523 14 13C14 12.4477 13.5523 12 13 12ZM3 7C2.44772 7 2 7.44772 2 8C2 8.55229 2.44772 9 3 9C3.55228 9 4 8.55229 4 8C4 7.44772 3.55228 7 3 7ZM13 2C12.4477 2 12 2.44772 12 3C12 3.55228 12.4477 4 13 4C13.5523 4 14 3.55228 14 3C14 2.44772 13.5523 2 13 2Z" fill="#657077"/>
</g>
<defs>
<clipPath id="clip0_999_35504">
<rect width="16" height="16" fill="white"/>
</clipPath>
</defs>
</svg>
