<svg width="16" height="16" viewBox="0 0 16 16" fill="none" xmlns="http://www.w3.org/2000/svg">
<g id="icon=shield">
<path id="Union" fill-rule="evenodd" clip-rule="evenodd" d="M6.91504 1.20896C7.61308 0.938157 8.38692 0.938158 9.08496 1.20896L12.085 2.37303C13.2392 2.82086 14 3.9318 14 5.1699V7.99998C14 9.64971 13.1705 11.0626 12.2549 12.1299C11.3305 13.2072 10.2265 14.0409 9.46777 14.5498C8.57484 15.1486 7.42516 15.1486 6.53223 14.5498C5.77349 14.0409 4.6695 13.2072 3.74512 12.1299C2.82945 11.0626 2.00001 9.64971 2 7.99998V5.1699C2 3.9318 2.76077 2.82086 3.91504 2.37303L6.91504 1.20896ZM8.36133 3.07322C8.12885 2.98313 7.87115 2.98313 7.63867 3.07322L4.63867 4.23729C4.25391 4.38656 4 4.7572 4 5.1699V7.99998C4.00001 8.96956 4.49436 9.9326 5.2627 10.8281C6.02234 11.7135 6.96316 12.4303 7.64648 12.8887C7.86544 13.0354 8.13456 13.0354 8.35352 12.8887C9.03684 12.4303 9.97766 11.7135 10.7373 10.8281C11.5056 9.9326 12 8.96956 12 7.99998V5.1699C12 4.7572 11.7461 4.38656 11.3613 4.23729L8.36133 3.07322Z" fill="#657077"/>
</g>
</svg>
