<svg width="16" height="16" viewBox="0 0 16 16" fill="none" xmlns="http://www.w3.org/2000/svg">
<g id="icon=sliders">
<g id="Union">
<path d="M4 9C4.55228 9 5 9.44771 5 10C5 10.5523 4.55228 11 4 11V14C4 14.5523 3.55228 15 3 15C2.44772 15 2 14.5523 2 14V11C1.44772 11 1 10.5523 1 10C1 9.44771 1.44772 9 2 9H4Z" fill="#657077"/>
<path d="M8 8C8.55228 8 9 8.44772 9 9V14C9 14.5523 8.55228 15 8 15C7.44772 15 7 14.5523 7 14V9C7 8.44772 7.44772 8 8 8Z" fill="#657077"/>
<path d="M14 10C14.5523 10 15 10.4477 15 11C15 11.5523 14.5523 12 14 12V14C14 14.5523 13.5523 15 13 15C12.4477 15 12 14.5523 12 14V12C11.4477 12 11 11.5523 11 11C11 10.4477 11.4477 10 12 10H14Z" fill="#657077"/>
<path d="M13 1C13.5523 1 14 1.44772 14 2V7C14 7.55229 13.5523 8 13 8C12.4477 8 12 7.55229 12 7V2C12 1.44772 12.4477 1 13 1Z" fill="#657077"/>
<path d="M3 1C3.55228 1 4 1.44772 4 2V6C4 6.55228 3.55228 7 3 7C2.44772 7 2 6.55228 2 6V2C2 1.44772 2.44772 1 3 1Z" fill="#657077"/>
<path d="M8 1C8.55228 1 9 1.44772 9 2V4C9.55228 4 10 4.44772 10 5C10 5.55228 9.55228 6 9 6H7C6.44772 6 6 5.55228 6 5C6 4.44772 6.44772 4 7 4V2C7 1.44772 7.44772 1 8 1Z" fill="#657077"/>
</g>
</g>
</svg>
