<svg width="16" height="16" viewBox="0 0 16 16" fill="none" xmlns="http://www.w3.org/2000/svg">
<g id="icon=Star">
<path id="Union" fill-rule="evenodd" clip-rule="evenodd" d="M8.00037 0C8.37741 0.0001372 8.72283 0.212324 8.89294 0.548828L10.8207 4.3623L15.142 4.97949C15.5211 5.03389 15.8359 5.30014 15.9525 5.66504C16.0689 6.02986 15.9671 6.42928 15.6898 6.69336L12.5775 9.65234L13.3109 13.8271C13.3765 14.2009 13.2247 14.5795 12.9193 14.8047C12.6138 15.0298 12.2071 15.0629 11.8695 14.8896L8.00037 12.9023L4.13123 14.8896C3.79364 15.063 3.38698 15.0297 3.08142 14.8047C2.77585 14.5795 2.62418 14.201 2.68982 13.8271L3.42224 9.65234L0.310913 6.69336C0.0334332 6.42926 -0.0682762 6.02998 0.048218 5.66504C0.164876 5.30008 0.479494 5.03377 0.858765 4.97949L5.17908 4.3623L7.10779 0.548828L7.18005 0.428711C7.36528 0.162758 7.67045 0 8.00037 0ZM6.72986 5.72949C6.58259 6.02081 6.30199 6.22224 5.97888 6.26855L3.18591 6.66699L5.18982 8.57324C5.43214 8.80402 5.5436 9.14109 5.48572 9.4707L5.0072 12.1904L7.54334 10.8887C7.83 10.7416 8.17077 10.7415 8.4574 10.8887L10.9926 12.1904L10.515 9.4707C10.4571 9.14098 10.5684 8.80404 10.8109 8.57324L12.8138 6.66699L10.0219 6.26855C9.69865 6.22235 9.41822 6.02084 9.27087 5.72949L8.00037 3.21582L6.72986 5.72949Z" fill="#657077"/>
</g>
</svg>
