<svg width="16" height="16" viewBox="0 0 16 16" fill="none" xmlns="http://www.w3.org/2000/svg">
<g id="icon=Phone">
<path id="Union" fill-rule="evenodd" clip-rule="evenodd" d="M4.51859 0.000976562C5.09871 -0.00228922 5.66109 0.202967 6.1016 0.581055C6.48917 0.91377 6.7596 1.35984 6.87602 1.85352L6.91606 2.06836L6.91801 2.07715C6.99713 2.6759 7.14313 3.26414 7.35453 3.83008L7.40922 3.99316C7.5233 4.37739 7.5402 4.78494 7.45609 5.17871C7.35992 5.62877 7.13637 6.04231 6.81254 6.36914L6.80863 6.37305L6.47563 6.7041C7.21993 7.8116 8.17404 8.76318 9.28422 9.50586L9.61918 9.17188L9.62309 9.16797C9.95051 8.84486 10.3637 8.62212 10.8135 8.52637C11.2624 8.43082 11.7293 8.46627 12.1592 8.62695C12.5852 8.78556 13.0246 8.90764 13.4707 8.99219L13.919 9.06445L13.9288 9.06543C14.5129 9.14779 15.0468 9.44174 15.4288 9.8916C15.8053 10.3352 16.0065 10.9 15.9981 11.4814H16V13.585L15.9873 13.8359C15.9622 14.0849 15.8987 14.3294 15.7979 14.5596C15.6634 14.8665 15.4659 15.1419 15.2188 15.3682C14.9717 15.5944 14.6797 15.7659 14.3623 15.873C14.045 15.9802 13.7086 16.0203 13.375 15.9902C13.3692 15.9897 13.3633 15.9889 13.3575 15.9883C11.0362 15.7366 8.80597 14.9448 6.84672 13.6768C5.0283 12.5218 3.48548 10.9822 2.32816 9.16699L2.09477 8.79492C0.956051 6.92202 0.244016 4.81998 0.0117583 2.6377C0.0112159 2.6326 0.0102692 2.62718 0.00980519 2.62207C-0.0203308 2.28925 0.0191644 1.95334 0.126016 1.63672C0.232826 1.32026 0.404589 1.02964 0.629922 0.783203C0.855367 0.536723 1.13001 0.339813 1.43559 0.205078C1.74113 0.0703834 2.07143 0.000354441 2.40531 0L4.51859 0.000976562ZM2.40727 2C2.35043 2.00008 2.29409 2.01229 2.24223 2.03516C2.19049 2.058 2.14444 2.09137 2.10648 2.13281C2.06846 2.17438 2.03945 2.22332 2.02152 2.27637C2.00361 2.32945 1.99598 2.3857 2.00102 2.44141C2.20373 4.3248 2.82058 6.13878 3.80375 7.75586L4.0059 8.07812L4.01078 8.08496C4.94999 9.56007 6.18301 10.8254 7.63285 11.8018L7.92582 11.9932L8.25492 12.1992C9.86791 13.1773 11.6775 13.7909 13.5567 13.9971C13.6129 14.0019 13.6693 13.9965 13.7227 13.9785C13.7767 13.9603 13.8264 13.9308 13.8682 13.8926C13.9099 13.8544 13.9433 13.8083 13.9659 13.7568C13.9884 13.7054 14.0002 13.6497 14 13.5938V11.457C14.0025 11.3583 13.9687 11.2614 13.9043 11.1855C13.8399 11.1096 13.749 11.0599 13.6495 11.0459C12.9022 10.9468 12.1683 10.764 11.462 10.501L11.46 10.5C11.3869 10.4726 11.307 10.4672 11.2305 10.4834C11.1539 10.4997 11.0837 10.5373 11.0284 10.5918L10.1377 11.4795C9.81965 11.7969 9.3294 11.8633 8.93852 11.6416C7.01985 10.5528 5.43017 8.96712 4.33891 7.05176C4.11599 6.66012 4.18304 6.16799 4.50199 5.84961L5.39164 4.95996C5.44608 4.90485 5.48398 4.83591 5.50004 4.76074C5.51607 4.68554 5.51052 4.60723 5.48344 4.53516L5.48246 4.53223C5.21884 3.82709 5.03489 3.09473 4.93559 2.34863L4.91898 2.27734C4.89601 2.20869 4.8549 2.14674 4.79887 2.09863C4.72396 2.03434 4.6278 1.99908 4.52836 2H2.40727Z" fill="#657077"/>
</g>
</svg>
