<svg width="16" height="16" viewBox="0 0 16 16" fill="none" xmlns="http://www.w3.org/2000/svg">
<g id="icon=truck">
<path id="Union" fill-rule="evenodd" clip-rule="evenodd" d="M8 1C9.30912 1 10.4195 1.83954 10.8291 3.00879C10.8855 3.00401 10.9424 3 11 3H12.1719C12.9674 3.00008 13.7304 3.31637 14.293 3.87891L15.1211 4.70703C15.6836 5.26957 15.9999 6.03259 16 6.82812V8C16 9.20792 15.2847 10.2461 14.2559 10.7217C14.7149 11.1749 15 11.8039 15 12.5C15 13.8807 13.8807 15 12.5 15C11.1193 15 10 13.8807 10 12.5C10 11.9363 10.1892 11.4182 10.5039 11H5.49609C5.81083 11.4182 6 11.9363 6 12.5C6 13.8807 4.88071 15 3.5 15C2.11929 15 1 13.8807 1 12.5C1 11.8042 1.28442 11.1749 1.74316 10.7217C0.714717 10.246 0 9.2076 0 8V4C0 2.34315 1.34315 1 3 1H8ZM3.5 12C3.22386 12 3 12.2239 3 12.5C3 12.7761 3.22386 13 3.5 13C3.77614 13 4 12.7761 4 12.5C4 12.2239 3.77614 12 3.5 12ZM12.5 12C12.2239 12 12 12.2239 12 12.5C12 12.7761 12.2239 13 12.5 13C12.7761 13 13 12.7761 13 12.5C13 12.2239 12.7761 12 12.5 12ZM3 3C2.44772 3 2 3.44772 2 4V8C2 8.55228 2.44772 9 3 9H9V4C9 3.44772 8.55228 3 8 3H3ZM11 9H13C13.5523 9 14 8.55228 14 8V6.82812C13.9999 6.56302 13.8945 6.30856 13.707 6.12109L12.8789 5.29297C12.6914 5.1055 12.437 5.00008 12.1719 5H11V9Z" fill="#657077"/>
</g>
</svg>
