<svg width="16" height="16" viewBox="0 0 16 16" fill="none" xmlns="http://www.w3.org/2000/svg">
<g id="icon=umbrella">
<path id="Union" fill-rule="evenodd" clip-rule="evenodd" d="M7.99977 1C9.86291 1 11.8303 1.31519 13.4568 3.03711C14.2145 3.83937 14.6291 4.67523 14.8718 5.54883C15.4106 7.48827 13.7038 9 12.0359 9H8.99977V12.2002C8.99973 12.5601 9.12129 12.7082 9.23317 12.7939C9.38386 12.9095 9.64765 13 9.99977 13C10.3527 13 10.5681 12.9271 10.741 12.7578C10.8808 12.6208 10.9998 12.3208 10.9998 12C10.9998 11.4477 11.4475 11 11.9998 11C12.5521 11 12.9998 11.4477 12.9998 12C12.9998 12.679 12.7763 13.5649 12.1404 14.1875C11.457 14.8566 10.6469 15 9.99977 15C9.3519 15 8.61563 14.8403 8.01637 14.3809C7.37845 13.8917 6.99973 13.14 6.99977 12.2002V9H3.96657C2.29845 8.99999 0.592339 7.48796 1.12965 5.54883C1.3717 4.67552 1.78548 3.84045 2.54274 3.03809C4.16898 1.31504 6.13689 1.00002 7.99977 1ZM7.99977 3C6.3643 3.00002 5.0695 3.27371 3.99684 4.41016C3.48843 4.94883 3.22287 5.486 3.05739 6.08301C3.00168 6.28407 3.04985 6.48624 3.21364 6.66992C3.38672 6.86393 3.66403 7 3.96657 7H12.0359C12.3383 7 12.6159 6.86466 12.7888 6.6709C12.9525 6.48735 13.0009 6.28488 12.9451 6.08398C12.7791 5.48676 12.5118 4.95012 12.0027 4.41113C10.9293 3.27463 9.63503 3 7.99977 3Z" fill="#657077"/>
</g>
</svg>
