<svg width="16" height="16" viewBox="0 0 16 16" fill="none" xmlns="http://www.w3.org/2000/svg">
<g id="icon=video_camera">
<path id="Union" fill-rule="evenodd" clip-rule="evenodd" d="M9 2C10.1046 2 11 2.89543 11 4V6.2334L14.4854 4.14258C14.7943 3.95722 15.1797 3.95238 15.4932 4.12988C15.8064 4.30744 16 4.63988 16 5V11C16 11.3601 15.8064 11.6926 15.4932 11.8701C15.1797 12.0476 14.7943 12.0428 14.4854 11.8574L11 9.76562V11C11 12.1046 10.1046 13 9 13H2C0.89543 13 4.0266e-09 12.1046 0 11V4C0 2.89543 0.895431 2 2 2H9ZM2 11H9V4H2V11ZM11.9434 8L14 9.2334V6.76562L11.9434 8Z" fill="#657077"/>
</g>
</svg>
