<svg width="16" height="16" viewBox="0 0 16 16" fill="none" xmlns="http://www.w3.org/2000/svg">
<g id="icon=zap" clip-path="url(#clip0_999_35480)">
<path id="Union" fill-rule="evenodd" clip-rule="evenodd" d="M8.2003 0.400994C8.45855 0.0566478 8.90816 -0.0837411 9.31651 0.052361C9.72456 0.188615 10.0001 0.57036 10.0001 1.0006V6.0006H13.0001C13.3789 6.0006 13.7252 6.21455 13.8946 6.55334C14.0638 6.892 14.027 7.2973 13.7999 7.60021L7.7999 15.6002C7.5416 15.9443 7.0919 16.0849 6.68369 15.9488C6.27554 15.8127 6.00029 15.4308 6.0001 15.0006V10.0006H3.0001C2.62149 10.0006 2.275 9.78644 2.10557 9.44787C1.93627 9.10927 1.97337 8.70396 2.2003 8.40099L8.2003 0.400994ZM4.99912 8.0006H7.0001C7.26532 8.0006 7.5196 8.10604 7.70713 8.29357C7.89457 8.48109 8.0001 8.73546 8.0001 9.0006V12.0006L11.0011 8.0006H9.0001C8.44804 8.00053 8.00035 7.55263 8.0001 7.0006V3.99963L4.99912 8.0006Z" fill="#657077"/>
</g>
<defs>
<clipPath id="clip0_999_35480">
<rect width="16" height="16" fill="white"/>
</clipPath>
</defs>
</svg>
