<svg width="20" height="20" viewBox="0 0 20 20" fill="none" xmlns="http://www.w3.org/2000/svg">
<path d="M10.5498 0.314136C10.9047 0.936591 11.2595 1.56486 11.6144 2.19895C11.6202 2.21059 11.6289 2.22222 11.6406 2.23386C11.6522 2.23967 11.6638 2.2484 11.6755 2.26003C11.6871 2.26585 11.7016 2.27167 11.7191 2.27749C11.7307 2.27749 11.7453 2.27749 11.7627 2.27749H16.8062C16.9633 2.27749 17.0971 2.37638 17.2076 2.57417L18.5339 4.91274C18.7084 5.21815 18.752 5.34904 18.5513 5.6719C18.3187 6.06166 18.0889 6.45724 17.862 6.85864L17.5304 7.45201C17.4345 7.63525 17.3297 7.70506 17.4955 7.91448L19.9038 12.1291C20.0609 12.4084 20.0085 12.5829 19.8689 12.836C19.4676 13.5457 19.0603 14.2525 18.6473 14.9564C18.5077 15.2094 18.3332 15.3054 18.0365 15.2967C17.3268 15.285 16.62 15.2909 15.9162 15.3141C15.9104 15.3141 15.9045 15.3141 15.8987 15.3141C15.8871 15.3141 15.8784 15.317 15.8725 15.3229C15.8667 15.3287 15.8609 15.3345 15.8551 15.3403C15.8493 15.3461 15.8464 15.3519 15.8464 15.3578C15.6428 15.7184 15.4392 16.0791 15.2356 16.4398C15.032 16.7946 14.8254 17.1524 14.616 17.5131C14.4124 17.8738 14.2088 18.2315 14.0052 18.5864C13.8016 18.9471 13.5951 19.3077 13.3857 19.6684C13.2286 19.9302 13.0367 19.9913 12.7313 20C11.8238 20 10.9076 20 9.98266 20C9.94194 20 9.90122 19.9942 9.8605 19.9825C9.81978 19.9709 9.77906 19.9535 9.73834 19.9302C9.70343 19.9069 9.67144 19.8807 9.64235 19.8517C9.60745 19.8226 9.58127 19.7906 9.56382 19.7557L8.35094 17.644C8.34512 17.6323 8.33931 17.6236 8.33349 17.6178C8.32767 17.612 8.32186 17.6091 8.31604 17.6091C8.31022 17.6033 8.3044 17.6003 8.29859 17.6003C8.28695 17.5945 8.27823 17.5916 8.27241 17.5916H3.62158C3.35981 17.6207 3.11549 17.5945 2.88862 17.5131L1.43142 14.9913C1.40815 14.9564 1.3907 14.9186 1.37907 14.8778C1.37325 14.8371 1.37034 14.7935 1.37034 14.7469C1.37034 14.7062 1.37325 14.6655 1.37907 14.6248C1.3907 14.5782 1.40815 14.5375 1.43142 14.5026L2.53086 12.5742C2.53668 12.5625 2.5425 12.548 2.54832 12.5305C2.54832 12.5189 2.54832 12.5044 2.54832 12.4869C2.54832 12.4695 2.54832 12.4549 2.54832 12.4433C2.5425 12.4258 2.53668 12.4113 2.53086 12.3997C2.38544 12.1495 2.24291 11.9023 2.1033 11.6579C1.95787 11.4078 1.81535 11.1576 1.67574 10.9075C1.53031 10.6632 1.38779 10.4159 1.24818 10.1658C1.10857 9.92147 0.966046 9.67423 0.820617 9.42408L0.105105 8.15881C-0.0432325 7.87085 -0.0519583 7.70506 0.192363 7.27749C0.617016 6.53869 1.03585 5.79988 1.44887 5.06108C1.57103 4.85166 1.7281 4.75567 1.98114 4.75567C2.17893 4.75567 2.37671 4.75567 2.57449 4.75567C2.76646 4.75567 2.96133 4.75567 3.15912 4.75567C3.3569 4.75567 3.55469 4.75567 3.75247 4.75567C3.94444 4.75567 4.13931 4.75567 4.3371 4.75567C4.34873 4.75567 4.35746 4.75567 4.36327 4.75567C4.37491 4.74985 4.38363 4.74404 4.38945 4.73822C4.40108 4.73822 4.40981 4.7324 4.41563 4.72077C4.42144 4.71495 4.42726 4.70913 4.43308 4.70332L6.981 0.253054C7.00427 0.21815 7.02753 0.186155 7.0508 0.157068C7.07989 0.127981 7.11188 0.104712 7.14679 0.08726C7.18169 0.069808 7.21659 0.0552647 7.2515 0.04363C7.29222 0.0319953 7.33003 0.026178 7.36493 0.026178C7.84485 0.026178 8.32476 0.026178 8.80468 0.026178L9.72961 0C10.0437 0 10.3928 0.026178 10.5498 0.314136ZM7.42601 0.680628C7.42601 0.680628 7.4231 0.680628 7.41729 0.680628C7.41147 0.680628 7.40565 0.680628 7.39983 0.680628C7.39983 0.686446 7.39693 0.689354 7.39111 0.689354C7.38529 0.695172 7.38238 0.700989 7.38238 0.706806L4.77338 5.26178C4.76757 5.27341 4.76175 5.28214 4.75593 5.28796C4.7443 5.29959 4.73557 5.30832 4.72975 5.31414C4.71812 5.31995 4.70649 5.32577 4.69485 5.33159C4.68322 5.33159 4.66867 5.33159 4.65122 5.33159H2.05095C1.99859 5.33159 1.98696 5.35486 2.01605 5.4014L7.29513 14.6335C7.31839 14.6684 7.30676 14.6859 7.26022 14.6859L4.72103 14.7033C4.70358 14.7033 4.68613 14.7062 4.66867 14.712C4.65122 14.712 4.63377 14.7179 4.61632 14.7295C4.59887 14.7411 4.58432 14.7528 4.57269 14.7644C4.56106 14.776 4.54942 14.7906 4.53779 14.808L3.34236 16.911C3.30164 16.9808 3.322 17.0157 3.40344 17.0157L8.59526 17.0244C8.63598 17.0244 8.66798 17.0419 8.69125 17.0768L9.96521 19.3106C10.0059 19.3863 10.0496 19.3863 10.0961 19.3106L14.6422 11.3438L15.3577 10.0873C15.3635 10.0814 15.3694 10.0756 15.3752 10.0698C15.381 10.064 15.3897 10.0611 15.4013 10.0611C15.4072 10.0611 15.4159 10.064 15.4275 10.0698C15.4333 10.0756 15.4392 10.0814 15.445 10.0873L16.7364 12.3909C16.7422 12.3967 16.748 12.4055 16.7538 12.4171C16.7597 12.4229 16.7684 12.4287 16.78 12.4346C16.7858 12.4346 16.7946 12.4375 16.8062 12.4433C16.8178 12.4433 16.8266 12.4433 16.8324 12.4433L19.3454 12.4258C19.3512 12.4258 19.3541 12.4258 19.3541 12.4258C19.3599 12.4258 19.3628 12.4258 19.3628 12.4258C19.3687 12.42 19.3716 12.4171 19.3716 12.4171C19.3716 12.4171 19.3745 12.4142 19.3803 12.4084C19.3803 12.4084 19.3803 12.4055 19.3803 12.3997C19.3803 12.3997 19.3803 12.3967 19.3803 12.3909C19.3803 12.3909 19.3803 12.388 19.3803 12.3822C19.3803 12.3764 19.3803 12.3735 19.3803 12.3735L16.7451 7.74869C16.7393 7.74287 16.7335 7.73415 16.7277 7.72251C16.7277 7.7167 16.7277 7.70797 16.7277 7.69633C16.7277 7.69052 16.7277 7.68179 16.7277 7.67016C16.7335 7.66434 16.7393 7.65561 16.7451 7.64398L17.0069 7.19023L18.0278 5.39267C18.0511 5.35195 18.0394 5.33159 17.9929 5.33159H7.45219C7.39983 5.33159 7.3882 5.30832 7.41729 5.26178L8.71742 2.98429C8.72324 2.97848 8.72906 2.96975 8.73487 2.95812C8.73487 2.9523 8.73487 2.94357 8.73487 2.93194C8.73487 2.92612 8.73487 2.91739 8.73487 2.90576C8.72906 2.89994 8.72324 2.89122 8.71742 2.87958L7.47837 0.706806C7.47837 0.700989 7.47546 0.695172 7.46964 0.689354C7.46382 0.689354 7.46091 0.686446 7.46091 0.680628C7.4551 0.680628 7.44928 0.680628 7.44346 0.680628C7.43765 0.680628 7.43183 0.680628 7.42601 0.680628ZM13.1501 7.96684C13.1908 7.96684 13.1996 7.98429 13.1763 8.0192L12.4171 9.35427L10.0437 13.5166C10.0437 13.5224 10.0408 13.5282 10.035 13.534C10.035 13.534 10.0321 13.5369 10.0263 13.5428C10.0205 13.5428 10.0176 13.5428 10.0176 13.5428C10.0117 13.5428 10.0059 13.5428 10.0001 13.5428C9.99429 13.5428 9.99138 13.5428 9.99138 13.5428C9.98557 13.5428 9.97975 13.5428 9.97393 13.5428C9.96811 13.5369 9.96521 13.534 9.96521 13.534C9.95939 13.5282 9.95648 13.5224 9.95648 13.5166L6.81521 8.03665C6.79776 8.00756 6.80648 7.99011 6.84139 7.98429L7.04208 7.97557L13.1501 7.96684Z" fill="url(#paint0_linear_5969_26598)"/>
<defs>
<linearGradient id="paint0_linear_5969_26598" x1="207.876" y1="207.973" x2="4791.24" y2="207.973" gradientUnits="userSpaceOnUse">
<stop stop-color="#6336E7" stop-opacity="0.84"/>
<stop offset="1" stop-color="#6F69F7" stop-opacity="0.84"/>
</linearGradient>
</defs>
</svg>
