<svg width="24" height="24" viewBox="0 0 24 24" fill="none" xmlns="http://www.w3.org/2000/svg">
<path fill-rule="evenodd" clip-rule="evenodd" d="M3.24461 4.7991C3.2808 4.54115 3.46782 4.32912 3.72064 4.2594L11.8234 2.02392C11.939 1.99203 12.0611 1.99203 12.1766 2.02392L20.2794 4.2594C20.5322 4.32912 20.7192 4.54124 20.7554 4.7991C20.8024 5.13444 21.8745 13.0557 19.1246 16.9962C16.3779 20.9321 12.3259 21.9407 12.1547 21.9818C12.1038 21.9939 12.052 22 12 22C11.948 22 11.8962 21.994 11.8453 21.9818C11.6742 21.9407 7.62217 20.9321 4.87545 16.9962C2.12547 13.0556 3.19761 5.13436 3.24461 4.7991ZM13.7183 19.1926C12.9761 19.5963 12.353 19.8289 12 19.9442C11.647 19.8289 11.024 19.5962 10.2818 19.1926C9.10269 18.5514 7.66872 17.5041 6.51556 15.8517C5.49926 14.3953 5.07867 11.9489 5.01039 9.49014C4.97021 8.04306 5.05424 6.75284 5.12887 5.94561L12 4.04993L18.8711 5.94561C18.9458 6.75288 19.0298 8.04312 18.9896 9.4902C18.9213 11.9489 18.5007 14.3954 17.4845 15.8516L17.4844 15.8517C16.3313 17.5041 14.8974 18.5514 13.7183 19.1926ZM16.3892 9.73261C16.5845 9.53735 16.5845 9.22077 16.3892 9.0255L15.6821 8.3184C15.4868 8.12314 15.1702 8.12314 14.975 8.3184L11.0858 12.2076L10.0251 11.1468C9.82983 10.9516 9.51325 10.9516 9.31798 11.1468L8.61088 11.8539C8.41562 12.0492 8.41562 12.3658 8.61088 12.561L10.7323 14.6824C10.9275 14.8777 11.2441 14.8777 11.4394 14.6824L16.3892 9.73261Z" fill="#657077"/>
</svg>
