<svg width="32" height="32" viewBox="0 0 32 32" fill="none" xmlns="http://www.w3.org/2000/svg">
<path fill-rule="evenodd" clip-rule="evenodd" d="M22 22V13.0951L18.9049 10H18V13C18 13.5523 17.5523 14 17 14H13C12.4477 14 12 13.5523 12 13V10H10V22H11V17C11 16.4477 11.4477 16 12 16H20C20.5523 16 21 16.4477 21 17V22H22ZM20 24H23C23.5523 24 24 23.5523 24 23V12.6809C24 12.4157 23.8946 12.1613 23.7071 11.9738L20.0262 8.29289C19.8387 8.10536 19.5843 8 19.3191 8H17H13H9C8.44772 8 8 8.44772 8 9V23C8 23.5523 8.44772 24 9 24H12H20ZM19 22V18H13V22H19ZM14 10H16V12H14V10Z" fill="#4781D1"/>
<rect opacity="0.15" width="32" height="32" rx="8" fill="#4781D1"/>
</svg>
