<svg width="24" height="24" viewBox="0 0 24 24" fill="none" xmlns="http://www.w3.org/2000/svg">
<path fill-rule="evenodd" clip-rule="evenodd" d="M10.648 21C10.0209 20.9993 9.43039 20.7045 9.05296 20.2037C8.67553 19.7029 8.55486 19.054 8.727 18.451L8.985 17.551C9.03685 17.3719 9.06311 17.1864 9.063 17C9.063 15.8954 8.16757 15 7.063 15H5C3.89543 15 3 14.1046 3 13V12C3 11.914 3 11.827 3 11.741C3.06773 9.35479 4.08069 7.09324 5.816 5.45395C7.55131 3.81466 9.8668 2.93193 12.253 3C17.0081 3.17823 20.8218 6.99195 21 11.747C21 11.833 21 11.919 21 12.005C20.9972 16.9736 16.9686 21 12 21H10.648Z" stroke="#657077" stroke-width="2" stroke-linecap="round" stroke-linejoin="round"/>
<path d="M17.0002 11.7231C16.8605 11.7237 16.7477 11.8372 16.7481 11.9769C16.7484 12.1165 16.8619 12.2295 17.0015 12.2293C17.1412 12.2291 17.2543 12.1159 17.2543 11.9762C17.2546 11.9088 17.2278 11.8442 17.1801 11.7966C17.1324 11.749 17.0676 11.7226 17.0002 11.7231" stroke="#657077" stroke-width="2" stroke-linecap="round" stroke-linejoin="round"/>
<path d="M12.0246 6.75013C11.922 6.75054 11.8299 6.8128 11.7912 6.90778C11.7525 7.00275 11.775 7.11168 11.8481 7.18362C11.9211 7.25556 12.0304 7.27628 12.1248 7.2361C12.2191 7.19592 12.2799 7.10278 12.2787 7.00024C12.279 6.93285 12.2522 6.86816 12.2045 6.82061C12.1568 6.77306 12.092 6.74659 12.0246 6.74713" stroke="#657077" stroke-width="2" stroke-linecap="round" stroke-linejoin="round"/>
<path d="M8.50797 8.20012C8.36845 8.20122 8.25614 8.31502 8.25687 8.45455C8.2576 8.59407 8.37111 8.70669 8.51063 8.70632C8.65016 8.70596 8.76307 8.59275 8.76308 8.45322C8.76335 8.38567 8.7365 8.32082 8.68854 8.27324C8.64058 8.22566 8.57553 8.19931 8.50797 8.20012" stroke="#657077" stroke-width="2" stroke-linecap="round" stroke-linejoin="round"/>
<path d="M15.5431 15.2381C15.4035 15.2386 15.2907 15.3522 15.291 15.4918C15.2914 15.6315 15.4048 15.7445 15.5445 15.7443C15.6841 15.7441 15.7973 15.6308 15.7973 15.4912C15.7978 15.4237 15.7712 15.3589 15.7234 15.3113C15.6756 15.2636 15.6106 15.2373 15.5431 15.2381" stroke="#657077" stroke-width="2" stroke-linecap="round" stroke-linejoin="round"/>
<path d="M15.5431 8.20012C15.4035 8.20067 15.2907 8.31423 15.291 8.45389C15.2914 8.59354 15.4048 8.70651 15.5445 8.70632C15.6841 8.70614 15.7973 8.59288 15.7973 8.45322C15.7978 8.38575 15.7712 8.32091 15.7234 8.27329C15.6756 8.22568 15.6106 8.19931 15.5431 8.20012" stroke="#657077" stroke-width="2" stroke-linecap="round" stroke-linejoin="round"/>
</svg>
