<svg width="20" height="20" viewBox="0 0 20 20" fill="none" xmlns="http://www.w3.org/2000/svg">
<path d="M19.7896 3.25856C19.5779 3.15323 19.4862 3.35453 19.3629 3.45731C19.3204 3.49043 19.2846 3.53375 19.2487 3.57282C18.9388 3.91002 18.5771 4.13086 18.1046 4.10453C17.4138 4.06546 16.8238 4.28629 16.3021 4.82479C16.1913 4.16058 15.823 3.76478 15.263 3.50997C14.9697 3.37747 14.673 3.24582 14.4672 2.95788C14.3238 2.75318 14.2847 2.5247 14.213 2.30047C14.1672 2.16457 14.1213 2.02612 13.9688 2.00319C13.8022 1.97686 13.7372 2.1187 13.6722 2.23762C13.4114 2.72345 13.3105 3.25856 13.3205 3.80045C13.343 5.02014 13.848 5.99182 14.8522 6.68236C14.9663 6.76135 14.9955 6.84119 14.9597 6.9567C14.8913 7.19453 14.8097 7.42555 14.738 7.66423C14.6922 7.81626 14.6238 7.84854 14.4638 7.78314C13.9232 7.54633 13.4322 7.20611 13.0172 6.78088C12.303 6.07761 11.6581 5.30129 10.8531 4.69314C10.6666 4.55267 10.475 4.41923 10.2789 4.29309C9.4581 3.48024 10.3873 2.81264 10.6022 2.73365C10.8272 2.65041 10.6797 2.36672 9.95309 2.37012C9.22644 2.37351 8.56146 2.62068 7.71397 2.95108C7.58804 3.00027 7.45846 3.03918 7.32648 3.06745C6.53452 2.91535 5.72455 2.88615 4.92403 2.98081C3.35322 3.15918 2.09908 3.91682 1.1766 5.2087C0.06829 6.76135 -0.192538 8.52634 0.126622 10.3661C0.462449 12.306 1.4341 13.9122 2.92657 15.1675C4.47487 16.4696 6.25733 17.1075 8.29146 16.9852C9.52644 16.913 10.9022 16.744 12.453 15.4054C12.8447 15.6041 13.2547 15.6831 13.9364 15.7426C14.4613 15.7927 14.9663 15.7171 15.3572 15.6338C15.9696 15.5013 15.9271 14.9229 15.7063 14.8176C13.9105 13.9648 14.3047 14.3122 13.9455 14.0311C14.8588 12.9303 16.2338 11.7871 16.7721 8.08296C16.8138 7.78823 16.778 7.60307 16.7721 7.36525C16.7688 7.22086 16.8013 7.16395 16.9638 7.14781C17.4146 7.10014 17.852 6.96309 18.2513 6.74436C19.4146 6.09629 19.8846 5.03289 19.9954 3.75713C20.0121 3.56178 19.9921 3.36133 19.7896 3.25856ZM9.6506 14.7403C7.9098 13.3456 7.06565 12.8861 6.71733 12.9057C6.39066 12.9261 6.44983 13.3057 6.5215 13.5537C6.59649 13.7984 6.69399 13.9665 6.83066 14.1814C6.92565 14.3233 6.99065 14.5348 6.73649 14.6936C6.17567 15.0469 5.20152 14.5747 5.15569 14.5518C4.02154 13.8706 3.0724 12.9719 2.40491 11.7429C1.75992 10.5597 1.38493 9.29077 1.32327 7.93602C1.3066 7.60817 1.40076 7.49265 1.72076 7.4332C2.14084 7.35126 2.57126 7.34007 2.9949 7.40007C4.77153 7.66508 6.28317 8.47452 7.55148 9.75622C8.27479 10.4867 8.82228 11.359 9.38644 12.2117C9.98643 13.1172 10.6314 13.9801 11.4531 14.6868C11.7431 14.9348 11.9739 15.1234 12.1955 15.2618C11.5272 15.3383 10.4123 15.3553 9.6506 14.7403ZM10.4839 9.27038C10.4838 9.22819 10.4937 9.18659 10.5129 9.14919C10.532 9.11179 10.5598 9.0797 10.5939 9.0557C10.6279 9.0317 10.6672 9.01651 10.7083 9.01145C10.7494 9.00638 10.7911 9.01158 10.8297 9.02661C10.879 9.04464 10.9216 9.0779 10.9515 9.12174C10.9813 9.16559 10.9971 9.21785 10.9964 9.27123C10.9965 9.30572 10.9899 9.33989 10.9769 9.37175C10.964 9.4036 10.9449 9.43251 10.9208 9.45678C10.8968 9.48105 10.8683 9.5002 10.8369 9.51311C10.8055 9.52602 10.7719 9.53244 10.7381 9.53199C10.7045 9.5321 10.6712 9.52539 10.6402 9.51225C10.6092 9.4991 10.5811 9.47978 10.5575 9.45542C10.5339 9.43106 10.5153 9.40214 10.5028 9.37037C10.4903 9.3386 10.4834 9.30461 10.4839 9.27038ZM13.0755 10.626C12.9089 10.6948 12.743 10.7542 12.5839 10.7619C12.3444 10.7704 12.1095 10.6942 11.9189 10.5461C11.6906 10.3508 11.5272 10.2421 11.4589 9.90231C11.4353 9.73628 11.4398 9.56736 11.4722 9.40288C11.5306 9.12514 11.4656 8.94677 11.2731 8.78539C11.1172 8.65289 10.9181 8.61637 10.6997 8.61637C10.625 8.61195 10.5524 8.58922 10.4881 8.55012C10.3964 8.50425 10.3214 8.38874 10.3931 8.24604C10.4164 8.20018 10.5264 8.08806 10.5531 8.06768C10.8497 7.8961 11.1922 7.95216 11.5081 8.08127C11.8014 8.20358 12.0231 8.42781 12.3422 8.74547C12.668 9.12854 12.7272 9.23471 12.913 9.52179C13.0597 9.74688 13.193 9.97791 13.2839 10.2421C13.3397 10.4077 13.268 10.5427 13.0755 10.626Z" fill="#4D6BFE"/>
</svg>
