<svg width="32" height="32" viewBox="0 0 32 32" fill="none" xmlns="http://www.w3.org/2000/svg">
<rect x="0.5" y="0.5" width="31" height="31" rx="3.5" stroke="#ECEEF1"/>
<path d="M25.7896 10.2586C25.5779 10.1532 25.4862 10.3545 25.3629 10.4573C25.3204 10.4904 25.2846 10.5338 25.2487 10.5728C24.9388 10.91 24.5771 11.1309 24.1046 11.1045C23.4138 11.0655 22.8238 11.2863 22.3021 11.8248C22.1913 11.1606 21.823 10.7648 21.263 10.51C20.9697 10.3775 20.673 10.2458 20.4672 9.95788C20.3238 9.75318 20.2847 9.5247 20.213 9.30047C20.1672 9.16457 20.1213 9.02612 19.9688 9.00319C19.8022 8.97686 19.7372 9.1187 19.6722 9.23762C19.4114 9.72345 19.3105 10.2586 19.3205 10.8005C19.343 12.0201 19.848 12.9918 20.8522 13.6824C20.9663 13.7613 20.9955 13.8412 20.9597 13.9567C20.8913 14.1945 20.8097 14.4256 20.738 14.6642C20.6922 14.8163 20.6238 14.8485 20.4638 14.7831C19.9232 14.5463 19.4322 14.2061 19.0172 13.7809C18.303 13.0776 17.6581 12.3013 16.8531 11.6931C16.6666 11.5527 16.475 11.4192 16.2789 11.2931C15.4581 10.4802 16.3873 9.81264 16.6022 9.73365C16.8272 9.65041 16.6797 9.36672 15.9531 9.37012C15.2264 9.37351 14.5615 9.62068 13.714 9.95108C13.588 10.0003 13.4585 10.0392 13.3265 10.0674C12.5345 9.91535 11.7246 9.88615 10.924 9.98081C9.35322 10.1592 8.09908 10.9168 7.1766 12.2087C6.06829 13.7613 5.80746 15.5263 6.12662 17.3661C6.46245 19.306 7.4341 20.9122 8.92657 22.1675C10.4749 23.4696 12.2573 24.1075 14.2915 23.9852C15.5264 23.913 16.9022 23.744 18.453 22.4054C18.8447 22.6041 19.2547 22.6831 19.9364 22.7426C20.4613 22.7927 20.9663 22.7171 21.3572 22.6338C21.9696 22.5013 21.9271 21.9229 21.7063 21.8176C19.9105 20.9648 20.3047 21.3122 19.9455 21.0311C20.8588 19.9303 22.2338 18.7871 22.7721 15.083C22.8138 14.7882 22.778 14.6031 22.7721 14.3652C22.7688 14.2209 22.8013 14.1639 22.9638 14.1478C23.4146 14.1001 23.852 13.9631 24.2513 13.7444C25.4146 13.0963 25.8846 12.0329 25.9954 10.7571C26.0121 10.5618 25.9921 10.3613 25.7896 10.2586ZM15.6506 21.7403C13.9098 20.3456 13.0657 19.8861 12.7173 19.9057C12.3907 19.9261 12.4498 20.3057 12.5215 20.5537C12.5965 20.7984 12.694 20.9665 12.8307 21.1814C12.9257 21.3233 12.9907 21.5348 12.7365 21.6936C12.1757 22.0469 11.2015 21.5747 11.1557 21.5518C10.0215 20.8706 9.0724 19.9719 8.40491 18.7429C7.75992 17.5597 7.38493 16.2908 7.32327 14.936C7.3066 14.6082 7.40076 14.4927 7.72076 14.4332C8.14084 14.3513 8.57126 14.3401 8.9949 14.4001C10.7715 14.6651 12.2832 15.4745 13.5515 16.7562C14.2748 17.4867 14.8223 18.359 15.3864 19.2117C15.9864 20.1172 16.6314 20.9801 17.4531 21.6868C17.7431 21.9348 17.9739 22.1234 18.1955 22.2618C17.5272 22.3383 16.4123 22.3553 15.6506 21.7403ZM16.4839 16.2704C16.4838 16.2282 16.4937 16.1866 16.5129 16.1492C16.532 16.1118 16.5598 16.0797 16.5939 16.0557C16.6279 16.0317 16.6672 16.0165 16.7083 16.0114C16.7494 16.0064 16.7911 16.0116 16.8297 16.0266C16.879 16.0446 16.9216 16.0779 16.9515 16.1217C16.9813 16.1656 16.9971 16.2178 16.9964 16.2712C16.9965 16.3057 16.9899 16.3399 16.9769 16.3717C16.964 16.4036 16.9449 16.4325 16.9208 16.4568C16.8968 16.481 16.8683 16.5002 16.8369 16.5131C16.8055 16.526 16.7719 16.5324 16.7381 16.532C16.7045 16.5321 16.6712 16.5254 16.6402 16.5122C16.6092 16.4991 16.5811 16.4798 16.5575 16.4554C16.5339 16.4311 16.5153 16.4021 16.5028 16.3704C16.4903 16.3386 16.4834 16.3046 16.4839 16.2704ZM19.0755 17.626C18.9089 17.6948 18.743 17.7542 18.5839 17.7619C18.3444 17.7704 18.1095 17.6942 17.9189 17.5461C17.6906 17.3508 17.5272 17.2421 17.4589 16.9023C17.4353 16.7363 17.4398 16.5674 17.4722 16.4029C17.5306 16.1251 17.4656 15.9468 17.2731 15.7854C17.1172 15.6529 16.9181 15.6164 16.6997 15.6164C16.625 15.6119 16.5524 15.5892 16.4881 15.5501C16.3964 15.5043 16.3214 15.3887 16.3931 15.246C16.4164 15.2002 16.5264 15.0881 16.5531 15.0677C16.8497 14.8961 17.1922 14.9522 17.5081 15.0813C17.8014 15.2036 18.0231 15.4278 18.3422 15.7455C18.668 16.1285 18.7272 16.2347 18.913 16.5218C19.0597 16.7469 19.193 16.9779 19.2839 17.2421C19.3397 17.4077 19.268 17.5427 19.0755 17.626Z" fill="#4D6BFE"/>
</svg>
