<svg width="24" height="24" viewBox="0 0 24 24" fill="none" xmlns="http://www.w3.org/2000/svg">
<path fill-rule="evenodd" clip-rule="evenodd" d="M12 5C9.52325 5 7.46537 6.80181 7.06906 9.16616L6.92624 10.0182L6.06251 10.0006C6.04174 10.0002 6.02091 10 6 10C4.34315 10 3 11.3431 3 13C3 14.6569 4.34315 16 6 16H9C9.55228 16 10 16.4477 10 17C10 17.5523 9.55228 18 9 18H6C3.23858 18 1 15.7614 1 13C1 10.4849 2.85707 8.40347 5.27483 8.05221C6.11882 5.1338 8.80939 3 12 3C15.1775 3 17.8517 5.16865 18.7166 8.05097C21.1386 8.39857 23 10.4819 23 13C23 15.7614 20.7614 18 18 18H15C14.4477 18 14 17.5523 14 17C14 16.4477 14.4477 16 15 16H18C19.6569 16 21 14.6569 21 13C21 11.3431 19.6569 10 18 10C17.9779 10 17.956 9.99969 17.9496 9.9996L17.9479 9.99958C17.9475 9.99957 17.9472 9.99957 17.9469 9.99957C17.9464 9.99958 17.9454 9.9996 17.9439 9.99964L17.0848 10.0227L16.9328 9.17683C16.5106 6.8268 14.4428 5 12 5ZM13 11.4142L15.2929 13.7071C15.6834 14.0976 16.3166 14.0976 16.7071 13.7071C17.0976 13.3166 17.0976 12.6834 16.7071 12.2929L12.8485 8.43431C12.3799 7.96569 11.6201 7.96569 11.1515 8.43431L7.29289 12.2929C6.90237 12.6834 6.90237 13.3166 7.29289 13.7071C7.68342 14.0976 8.31658 14.0976 8.70711 13.7071L11 11.4142V20C11 20.5523 11.4477 21 12 21C12.5523 21 13 20.5523 13 20V11.4142Z" fill="#657077"/>
</svg>
