<svg width="32" height="32" viewBox="0 0 32 32" fill="none" xmlns="http://www.w3.org/2000/svg">
<rect x="0.5" y="0.5" width="31" height="31" rx="5.5" stroke="#ECEEF1"/>
<g clip-path="url(#clip0_6392_25905)">
<path d="M23.1789 15.0293C21.7945 14.44 20.5357 13.5911 19.4705 12.5285C17.9871 11.0421 16.9288 9.1856 16.4055 7.15185C16.3826 7.06152 16.3302 6.98142 16.2566 6.92421C16.183 6.867 16.0925 6.83594 15.9993 6.83594C15.9061 6.83594 15.8156 6.867 15.742 6.92421C15.6684 6.98142 15.616 7.06152 15.593 7.15185C15.0687 9.18533 14.0102 11.0416 12.5272 12.5285C11.4619 13.591 10.2032 14.4399 8.81888 15.0293C8.27721 15.2627 7.72055 15.4502 7.15055 15.5943C7.05966 15.6167 6.9789 15.6688 6.92115 15.7425C6.86341 15.8161 6.83203 15.907 6.83203 16.0006C6.83203 16.0942 6.86341 16.1851 6.92115 16.2587C6.9789 16.3324 7.05966 16.3845 7.15055 16.4068C7.72055 16.5502 8.27555 16.7377 8.81888 16.971C10.2032 17.5604 11.462 18.4092 12.5272 19.4718C14.011 20.9584 15.0697 22.8152 15.593 24.8493C15.6154 24.9402 15.6675 25.021 15.7412 25.0787C15.8148 25.1365 15.9057 25.1679 15.9993 25.1679C16.0929 25.1679 16.1838 25.1365 16.2574 25.0787C16.3311 25.021 16.3832 24.9402 16.4055 24.8493C16.5489 24.2785 16.7364 23.7235 16.9697 23.1802C17.559 21.7958 18.4079 20.537 19.4705 19.4718C20.9572 17.9884 22.814 16.93 24.848 16.4068C24.9384 16.3839 25.0185 16.3315 25.0757 16.2579C25.1329 16.1843 25.164 16.0938 25.164 16.0006C25.164 15.9074 25.1329 15.8169 25.0757 15.7433C25.0185 15.6697 24.9384 15.6173 24.848 15.5943C24.2775 15.4508 23.7193 15.2619 23.1789 15.0293Z" fill="#3186FF"/>
<path d="M23.1789 15.0293C21.7945 14.44 20.5357 13.5911 19.4705 12.5285C17.9871 11.0421 16.9288 9.1856 16.4055 7.15185C16.3826 7.06152 16.3302 6.98142 16.2566 6.92421C16.183 6.867 16.0925 6.83594 15.9993 6.83594C15.9061 6.83594 15.8156 6.867 15.742 6.92421C15.6684 6.98142 15.616 7.06152 15.593 7.15185C15.0687 9.18533 14.0102 11.0416 12.5272 12.5285C11.4619 13.591 10.2032 14.4399 8.81888 15.0293C8.27721 15.2627 7.72055 15.4502 7.15055 15.5943C7.05966 15.6167 6.9789 15.6688 6.92115 15.7425C6.86341 15.8161 6.83203 15.907 6.83203 16.0006C6.83203 16.0942 6.86341 16.1851 6.92115 16.2587C6.9789 16.3324 7.05966 16.3845 7.15055 16.4068C7.72055 16.5502 8.27555 16.7377 8.81888 16.971C10.2032 17.5604 11.462 18.4092 12.5272 19.4718C14.011 20.9584 15.0697 22.8152 15.593 24.8493C15.6154 24.9402 15.6675 25.021 15.7412 25.0787C15.8148 25.1365 15.9057 25.1679 15.9993 25.1679C16.0929 25.1679 16.1838 25.1365 16.2574 25.0787C16.3311 25.021 16.3832 24.9402 16.4055 24.8493C16.5489 24.2785 16.7364 23.7235 16.9697 23.1802C17.559 21.7958 18.4079 20.537 19.4705 19.4718C20.9572 17.9884 22.814 16.93 24.848 16.4068C24.9384 16.3839 25.0185 16.3315 25.0757 16.2579C25.1329 16.1843 25.164 16.0938 25.164 16.0006C25.164 15.9074 25.1329 15.8169 25.0757 15.7433C25.0185 15.6697 24.9384 15.6173 24.848 15.5943C24.2775 15.4508 23.7193 15.2619 23.1789 15.0293Z" fill="url(#paint0_linear_6392_25905)"/>
<path d="M23.1789 15.0293C21.7945 14.44 20.5357 13.5911 19.4705 12.5285C17.9871 11.0421 16.9288 9.1856 16.4055 7.15185C16.3826 7.06152 16.3302 6.98142 16.2566 6.92421C16.183 6.867 16.0925 6.83594 15.9993 6.83594C15.9061 6.83594 15.8156 6.867 15.742 6.92421C15.6684 6.98142 15.616 7.06152 15.593 7.15185C15.0687 9.18533 14.0102 11.0416 12.5272 12.5285C11.4619 13.591 10.2032 14.4399 8.81888 15.0293C8.27721 15.2627 7.72055 15.4502 7.15055 15.5943C7.05966 15.6167 6.9789 15.6688 6.92115 15.7425C6.86341 15.8161 6.83203 15.907 6.83203 16.0006C6.83203 16.0942 6.86341 16.1851 6.92115 16.2587C6.9789 16.3324 7.05966 16.3845 7.15055 16.4068C7.72055 16.5502 8.27555 16.7377 8.81888 16.971C10.2032 17.5604 11.462 18.4092 12.5272 19.4718C14.011 20.9584 15.0697 22.8152 15.593 24.8493C15.6154 24.9402 15.6675 25.021 15.7412 25.0787C15.8148 25.1365 15.9057 25.1679 15.9993 25.1679C16.0929 25.1679 16.1838 25.1365 16.2574 25.0787C16.3311 25.021 16.3832 24.9402 16.4055 24.8493C16.5489 24.2785 16.7364 23.7235 16.9697 23.1802C17.559 21.7958 18.4079 20.537 19.4705 19.4718C20.9572 17.9884 22.814 16.93 24.848 16.4068C24.9384 16.3839 25.0185 16.3315 25.0757 16.2579C25.1329 16.1843 25.164 16.0938 25.164 16.0006C25.164 15.9074 25.1329 15.8169 25.0757 15.7433C25.0185 15.6697 24.9384 15.6173 24.848 15.5943C24.2775 15.4508 23.7193 15.2619 23.1789 15.0293Z" fill="url(#paint1_linear_6392_25905)"/>
<path d="M23.1789 15.0293C21.7945 14.44 20.5357 13.5911 19.4705 12.5285C17.9871 11.0421 16.9288 9.1856 16.4055 7.15185C16.3826 7.06152 16.3302 6.98142 16.2566 6.92421C16.183 6.867 16.0925 6.83594 15.9993 6.83594C15.9061 6.83594 15.8156 6.867 15.742 6.92421C15.6684 6.98142 15.616 7.06152 15.593 7.15185C15.0687 9.18533 14.0102 11.0416 12.5272 12.5285C11.4619 13.591 10.2032 14.4399 8.81888 15.0293C8.27721 15.2627 7.72055 15.4502 7.15055 15.5943C7.05966 15.6167 6.9789 15.6688 6.92115 15.7425C6.86341 15.8161 6.83203 15.907 6.83203 16.0006C6.83203 16.0942 6.86341 16.1851 6.92115 16.2587C6.9789 16.3324 7.05966 16.3845 7.15055 16.4068C7.72055 16.5502 8.27555 16.7377 8.81888 16.971C10.2032 17.5604 11.462 18.4092 12.5272 19.4718C14.011 20.9584 15.0697 22.8152 15.593 24.8493C15.6154 24.9402 15.6675 25.021 15.7412 25.0787C15.8148 25.1365 15.9057 25.1679 15.9993 25.1679C16.0929 25.1679 16.1838 25.1365 16.2574 25.0787C16.3311 25.021 16.3832 24.9402 16.4055 24.8493C16.5489 24.2785 16.7364 23.7235 16.9697 23.1802C17.559 21.7958 18.4079 20.537 19.4705 19.4718C20.9572 17.9884 22.814 16.93 24.848 16.4068C24.9384 16.3839 25.0185 16.3315 25.0757 16.2579C25.1329 16.1843 25.164 16.0938 25.164 16.0006C25.164 15.9074 25.1329 15.8169 25.0757 15.7433C25.0185 15.6697 24.9384 15.6173 24.848 15.5943C24.2775 15.4508 23.7193 15.2619 23.1789 15.0293Z" fill="url(#paint2_linear_6392_25905)"/>
</g>
<defs>
<linearGradient id="paint0_linear_6392_25905" x1="11.8322" y1="18.9168" x2="15.1655" y2="16.0002" gradientUnits="userSpaceOnUse">
<stop stop-color="#08B962"/>
<stop offset="1" stop-color="#08B962" stop-opacity="0"/>
</linearGradient>
<linearGradient id="paint1_linear_6392_25905" x1="12.6655" y1="10.5835" x2="15.5822" y2="15.1668" gradientUnits="userSpaceOnUse">
<stop stop-color="#F94543"/>
<stop offset="1" stop-color="#F94543" stop-opacity="0"/>
</linearGradient>
<linearGradient id="paint2_linear_6392_25905" x1="8.91555" y1="17.2502" x2="20.5822" y2="16.0002" gradientUnits="userSpaceOnUse">
<stop stop-color="#FABC12"/>
<stop offset="0.46" stop-color="#FABC12" stop-opacity="0"/>
</linearGradient>
<clipPath id="clip0_6392_25905">
<rect width="20" height="20" fill="white" transform="translate(6 6)"/>
</clipPath>
</defs>
</svg>
