<svg width="20" height="20" viewBox="0 0 20 20" fill="none" xmlns="http://www.w3.org/2000/svg">
<g clip-path="url(#clip0_4268_60880)">
<path d="M17.1789 9.02911C15.7945 8.43977 14.5357 7.59088 13.4705 6.52827C11.9871 5.04188 10.9288 3.18535 10.4055 1.1516C10.3826 1.06128 10.3302 0.981178 10.2566 0.923966C10.183 0.866754 10.0925 0.835693 9.9993 0.835693C9.9061 0.835693 9.81556 0.866754 9.74198 0.923966C9.66841 0.981178 9.616 1.06128 9.59305 1.1516C9.06869 3.18509 8.0102 5.04141 6.52721 6.52827C5.46191 7.59076 4.20317 8.43962 2.81888 9.02911C2.27721 9.26244 1.72055 9.44994 1.15055 9.5941C1.05966 9.61644 0.978895 9.66859 0.921153 9.74224C0.863411 9.81589 0.832031 9.90677 0.832031 10.0004C0.832031 10.0939 0.863411 10.1848 0.921153 10.2585C0.978895 10.3321 1.05966 10.3843 1.15055 10.4066C1.72055 10.5499 2.27555 10.7374 2.81888 10.9708C4.20325 11.5601 5.46201 12.409 6.52721 13.4716C8.01104 14.9582 9.06966 16.815 9.59305 18.8491C9.61538 18.94 9.66753 19.0208 9.74118 19.0785C9.81483 19.1362 9.90571 19.1676 9.9993 19.1676C10.0929 19.1676 10.1838 19.1362 10.2574 19.0785C10.3311 19.0208 10.3832 18.94 10.4055 18.8491C10.5489 18.2783 10.7364 17.7233 10.9697 17.1799C11.559 15.7955 12.4079 14.5368 13.4705 13.4716C14.9572 11.9881 16.814 10.9298 18.848 10.4066C18.9384 10.3836 19.0185 10.3312 19.0757 10.2577C19.1329 10.1841 19.164 10.0936 19.164 10.0004C19.164 9.90716 19.1329 9.81661 19.0757 9.74304C19.0185 9.66947 18.9384 9.61706 18.848 9.5941C18.2775 9.45056 17.7193 9.26162 17.1789 9.02911Z" fill="#3186FF"/>
<path d="M17.1789 9.02911C15.7945 8.43977 14.5357 7.59088 13.4705 6.52827C11.9871 5.04188 10.9288 3.18535 10.4055 1.1516C10.3826 1.06128 10.3302 0.981178 10.2566 0.923966C10.183 0.866754 10.0925 0.835693 9.9993 0.835693C9.9061 0.835693 9.81556 0.866754 9.74198 0.923966C9.66841 0.981178 9.616 1.06128 9.59305 1.1516C9.06869 3.18509 8.0102 5.04141 6.52721 6.52827C5.46191 7.59076 4.20317 8.43962 2.81888 9.02911C2.27721 9.26244 1.72055 9.44994 1.15055 9.5941C1.05966 9.61644 0.978895 9.66859 0.921153 9.74224C0.863411 9.81589 0.832031 9.90677 0.832031 10.0004C0.832031 10.0939 0.863411 10.1848 0.921153 10.2585C0.978895 10.3321 1.05966 10.3843 1.15055 10.4066C1.72055 10.5499 2.27555 10.7374 2.81888 10.9708C4.20325 11.5601 5.46201 12.409 6.52721 13.4716C8.01104 14.9582 9.06966 16.815 9.59305 18.8491C9.61538 18.94 9.66753 19.0208 9.74118 19.0785C9.81483 19.1362 9.90571 19.1676 9.9993 19.1676C10.0929 19.1676 10.1838 19.1362 10.2574 19.0785C10.3311 19.0208 10.3832 18.94 10.4055 18.8491C10.5489 18.2783 10.7364 17.7233 10.9697 17.1799C11.559 15.7955 12.4079 14.5368 13.4705 13.4716C14.9572 11.9881 16.814 10.9298 18.848 10.4066C18.9384 10.3836 19.0185 10.3312 19.0757 10.2577C19.1329 10.1841 19.164 10.0936 19.164 10.0004C19.164 9.90716 19.1329 9.81661 19.0757 9.74304C19.0185 9.66947 18.9384 9.61706 18.848 9.5941C18.2775 9.45056 17.7193 9.26162 17.1789 9.02911Z" fill="url(#paint0_linear_4268_60880)"/>
<path d="M17.1789 9.02911C15.7945 8.43977 14.5357 7.59088 13.4705 6.52827C11.9871 5.04188 10.9288 3.18535 10.4055 1.1516C10.3826 1.06128 10.3302 0.981178 10.2566 0.923966C10.183 0.866754 10.0925 0.835693 9.9993 0.835693C9.9061 0.835693 9.81556 0.866754 9.74198 0.923966C9.66841 0.981178 9.616 1.06128 9.59305 1.1516C9.06869 3.18509 8.0102 5.04141 6.52721 6.52827C5.46191 7.59076 4.20317 8.43962 2.81888 9.02911C2.27721 9.26244 1.72055 9.44994 1.15055 9.5941C1.05966 9.61644 0.978895 9.66859 0.921153 9.74224C0.863411 9.81589 0.832031 9.90677 0.832031 10.0004C0.832031 10.0939 0.863411 10.1848 0.921153 10.2585C0.978895 10.3321 1.05966 10.3843 1.15055 10.4066C1.72055 10.5499 2.27555 10.7374 2.81888 10.9708C4.20325 11.5601 5.46201 12.409 6.52721 13.4716C8.01104 14.9582 9.06966 16.815 9.59305 18.8491C9.61538 18.94 9.66753 19.0208 9.74118 19.0785C9.81483 19.1362 9.90571 19.1676 9.9993 19.1676C10.0929 19.1676 10.1838 19.1362 10.2574 19.0785C10.3311 19.0208 10.3832 18.94 10.4055 18.8491C10.5489 18.2783 10.7364 17.7233 10.9697 17.1799C11.559 15.7955 12.4079 14.5368 13.4705 13.4716C14.9572 11.9881 16.814 10.9298 18.848 10.4066C18.9384 10.3836 19.0185 10.3312 19.0757 10.2577C19.1329 10.1841 19.164 10.0936 19.164 10.0004C19.164 9.90716 19.1329 9.81661 19.0757 9.74304C19.0185 9.66947 18.9384 9.61706 18.848 9.5941C18.2775 9.45056 17.7193 9.26162 17.1789 9.02911Z" fill="url(#paint1_linear_4268_60880)"/>
<path d="M17.1789 9.02911C15.7945 8.43977 14.5357 7.59088 13.4705 6.52827C11.9871 5.04188 10.9288 3.18535 10.4055 1.1516C10.3826 1.06128 10.3302 0.981178 10.2566 0.923966C10.183 0.866754 10.0925 0.835693 9.9993 0.835693C9.9061 0.835693 9.81556 0.866754 9.74198 0.923966C9.66841 0.981178 9.616 1.06128 9.59305 1.1516C9.06869 3.18509 8.0102 5.04141 6.52721 6.52827C5.46191 7.59076 4.20317 8.43962 2.81888 9.02911C2.27721 9.26244 1.72055 9.44994 1.15055 9.5941C1.05966 9.61644 0.978895 9.66859 0.921153 9.74224C0.863411 9.81589 0.832031 9.90677 0.832031 10.0004C0.832031 10.0939 0.863411 10.1848 0.921153 10.2585C0.978895 10.3321 1.05966 10.3843 1.15055 10.4066C1.72055 10.5499 2.27555 10.7374 2.81888 10.9708C4.20325 11.5601 5.46201 12.409 6.52721 13.4716C8.01104 14.9582 9.06966 16.815 9.59305 18.8491C9.61538 18.94 9.66753 19.0208 9.74118 19.0785C9.81483 19.1362 9.90571 19.1676 9.9993 19.1676C10.0929 19.1676 10.1838 19.1362 10.2574 19.0785C10.3311 19.0208 10.3832 18.94 10.4055 18.8491C10.5489 18.2783 10.7364 17.7233 10.9697 17.1799C11.559 15.7955 12.4079 14.5368 13.4705 13.4716C14.9572 11.9881 16.814 10.9298 18.848 10.4066C18.9384 10.3836 19.0185 10.3312 19.0757 10.2577C19.1329 10.1841 19.164 10.0936 19.164 10.0004C19.164 9.90716 19.1329 9.81661 19.0757 9.74304C19.0185 9.66947 18.9384 9.61706 18.848 9.5941C18.2775 9.45056 17.7193 9.26162 17.1789 9.02911Z" fill="url(#paint2_linear_4268_60880)"/>
</g>
<defs>
<linearGradient id="paint0_linear_4268_60880" x1="5.83221" y1="12.9166" x2="9.16555" y2="9.99994" gradientUnits="userSpaceOnUse">
<stop stop-color="#08B962"/>
<stop offset="1" stop-color="#08B962" stop-opacity="0"/>
</linearGradient>
<linearGradient id="paint1_linear_4268_60880" x1="6.66555" y1="4.58327" x2="9.58221" y2="9.1666" gradientUnits="userSpaceOnUse">
<stop stop-color="#F94543"/>
<stop offset="1" stop-color="#F94543" stop-opacity="0"/>
</linearGradient>
<linearGradient id="paint2_linear_4268_60880" x1="2.91555" y1="11.2499" x2="14.5822" y2="9.99994" gradientUnits="userSpaceOnUse">
<stop stop-color="#FABC12"/>
<stop offset="0.46" stop-color="#FABC12" stop-opacity="0"/>
</linearGradient>
<clipPath id="clip0_4268_60880">
<rect width="20" height="20" fill="white"/>
</clipPath>
</defs>
</svg>
