<svg width="32" height="32" viewBox="0 0 32 32" fill="none" xmlns="http://www.w3.org/2000/svg">
<rect width="32" height="32" rx="4" fill="white"/>
<g clip-path="url(#clip0_6392_25884)">
<path d="M24.5691 14.1842C24.7927 13.5108 24.8701 12.7974 24.796 12.0917C24.7218 11.386 24.498 10.7042 24.1393 10.0919C23.6077 9.16642 22.7958 8.43369 21.8208 7.99936C20.8459 7.56503 19.7581 7.45153 18.7145 7.67523C18.1216 7.0157 17.3656 6.52379 16.5224 6.24891C15.6792 5.97402 14.7785 5.92585 13.9108 6.10921C13.0431 6.29258 12.239 6.70103 11.5791 7.29355C10.9192 7.88607 10.4268 8.64179 10.1514 9.48481C9.45616 9.62739 8.79932 9.91672 8.22481 10.3335C7.65031 10.7502 7.17137 11.2848 6.82002 11.9015C6.28255 12.8254 6.05283 13.8963 6.16409 14.9594C6.27535 16.0225 6.72181 17.0227 7.43893 17.8153C7.21449 18.4884 7.13637 19.2017 7.20981 19.9074C7.28325 20.6132 7.50654 21.2951 7.86477 21.9076C8.39713 22.8334 9.2097 23.5663 10.1854 24.0006C11.161 24.4349 12.2494 24.5483 13.2936 24.3243C13.7647 24.8548 14.3435 25.2786 14.9914 25.5676C15.6393 25.8566 16.3414 26.004 17.0508 26C18.1205 26.001 19.1628 25.662 20.0273 25.032C20.8918 24.4021 21.5338 23.5137 21.8606 22.4951C22.5558 22.3523 23.2125 22.0629 23.787 21.6461C24.3615 21.2294 24.8405 20.6949 25.192 20.0784C25.7231 19.1558 25.9489 18.0889 25.837 17.0303C25.7251 15.9716 25.2813 14.9754 24.5691 14.1842ZM17.0508 24.691C16.1747 24.6924 15.3261 24.3853 14.6538 23.8236L14.772 23.7566L18.7539 21.4581C18.853 21.4 18.9353 21.3171 18.9927 21.2176C19.0501 21.118 19.0806 21.0053 19.0812 20.8904V15.2763L20.7645 16.2501C20.7728 16.2544 20.78 16.2605 20.7855 16.268C20.791 16.2755 20.7947 16.2843 20.7962 16.2935V20.9456C20.7941 21.9383 20.3988 22.8898 19.6968 23.5917C18.9949 24.2936 18.0435 24.6889 17.0508 24.691ZM9.00018 21.2531C8.56083 20.4945 8.40308 19.6052 8.55468 18.7417L8.67302 18.8127L12.6589 21.1112C12.7575 21.1691 12.8698 21.1996 12.9841 21.1996C13.0984 21.1996 13.2107 21.1691 13.3094 21.1112L18.1784 18.3041V20.2478C18.1779 20.2579 18.1752 20.2677 18.1704 20.2766C18.1656 20.2855 18.1589 20.2932 18.1507 20.2991L14.1175 22.6251C13.2568 23.121 12.2345 23.255 11.275 22.9978C10.3156 22.7405 9.49742 22.1131 9.00018 21.2531ZM7.95152 12.5796C8.39392 11.8161 9.09221 11.2338 9.92277 10.9356V15.6666C9.92127 15.7809 9.95047 15.8935 10.0073 15.9927C10.0642 16.0919 10.1466 16.174 10.246 16.2304L15.0913 19.0256L13.4079 19.9994C13.3988 20.0042 13.3887 20.0068 13.3783 20.0068C13.368 20.0068 13.3579 20.0042 13.3488 19.9994L9.32352 17.6773C8.4644 17.1793 7.83764 16.3612 7.58049 15.402C7.32334 14.4429 7.45675 13.421 7.95152 12.56V12.5796ZM21.7818 15.7928L16.9207 12.97L18.6002 12C18.6093 11.9951 18.6195 11.9926 18.6298 11.9926C18.6401 11.9926 18.6502 11.9951 18.6594 12L22.6846 14.3261C23.3001 14.6812 23.8018 15.2041 24.1312 15.8337C24.4607 16.4632 24.6042 17.1735 24.5451 17.8816C24.486 18.5898 24.2267 19.2664 23.7974 19.8327C23.3682 20.3989 22.7867 20.8314 22.1208 21.0796V16.3486C22.1174 16.2345 22.0843 16.1232 22.0248 16.0258C21.9653 15.9283 21.8816 15.8481 21.7818 15.7928ZM23.4573 13.2736L23.339 13.2026L19.3611 10.8844C19.2619 10.8262 19.1489 10.7955 19.0338 10.7955C18.9188 10.7955 18.8058 10.8262 18.7066 10.8844L13.8417 13.6914V11.7478C13.8406 11.7379 13.8423 11.728 13.8465 11.7189C13.8506 11.7099 13.8572 11.7022 13.8654 11.6966L17.8906 9.3744C18.5075 9.01899 19.2129 8.84659 19.9242 8.87736C20.6355 8.90813 21.3234 9.14079 21.9073 9.54813C22.4912 9.95548 22.9471 10.5207 23.2216 11.1776C23.4961 11.8345 23.5779 12.556 23.4574 13.2577L23.4573 13.2736ZM12.9229 16.7191L11.2396 15.7493C11.2312 15.7442 11.224 15.7374 11.2185 15.7292C11.213 15.721 11.2094 15.7118 11.2079 15.7021V11.0618C11.2089 10.35 11.4124 9.65307 11.7948 9.05264C12.1772 8.45222 12.7226 7.97305 13.3673 7.67118C14.012 7.3693 14.7293 7.2572 15.4353 7.34796C16.1414 7.43873 16.807 7.72861 17.3544 8.18373L17.236 8.25081L13.2542 10.5491C13.1551 10.6073 13.0728 10.6902 13.0154 10.7897C12.958 10.8893 12.9276 11.002 12.9269 11.1169L12.9229 16.7191ZM13.8376 14.748L16.0059 13.4981L18.1784 14.748V17.2475L16.0139 18.4972L13.8416 17.2475L13.8376 14.748Z" fill="black"/>
</g>
<defs>
<clipPath id="clip0_6392_25884">
<rect width="20" height="20" fill="white" transform="translate(6 6)"/>
</clipPath>
</defs>
</svg>
