<svg width="20" height="20" viewBox="0 0 20 20" fill="none" xmlns="http://www.w3.org/2000/svg">
<g clip-path="url(#clip0_4268_60859)">
<path d="M18.5691 8.18423C18.7927 7.51079 18.8701 6.79739 18.796 6.09168C18.7218 5.38596 18.498 4.70419 18.1393 4.0919C17.6077 3.16642 16.7958 2.43369 15.8208 1.99936C14.8459 1.56503 13.7581 1.45153 12.7145 1.67523C12.1216 1.0157 11.3656 0.523789 10.5224 0.248906C9.67921 -0.0259764 8.77853 -0.0741542 7.91083 0.109212C7.04313 0.292578 6.23896 0.701031 5.57907 1.29355C4.91918 1.88607 4.42682 2.64179 4.15143 3.48481C3.45616 3.62739 2.79932 3.91672 2.22481 4.33347C1.65031 4.75023 1.17137 5.28481 0.820017 5.90148C0.282546 6.82542 0.0528341 7.89634 0.164092 8.95943C0.275351 10.0225 0.721813 11.0227 1.43893 11.8153C1.21449 12.4884 1.13637 13.2017 1.20981 13.9074C1.28325 14.6132 1.50654 15.2951 1.86477 15.9076C2.39713 16.8334 3.2097 17.5663 4.18536 18.0006C5.16102 18.4349 6.24938 18.5483 7.2936 18.3243C7.76465 18.8548 8.34345 19.2786 8.99136 19.5676C9.63926 19.8566 10.3414 20.004 11.0508 20C12.1205 20.001 13.1628 19.662 14.0273 19.032C14.8918 18.4021 15.5338 17.5137 15.8606 16.4951C16.5558 16.3523 17.2125 16.0629 17.787 15.6461C18.3615 15.2294 18.8405 14.6949 19.192 14.0784C19.7231 13.1558 19.9489 12.0889 19.837 11.0303C19.7251 9.97163 19.2813 8.9754 18.5691 8.18423ZM11.0508 18.691C10.1747 18.6924 9.3261 18.3853 8.65377 17.8236L8.77202 17.7566L12.7539 15.4581C12.853 15.4 12.9353 15.3171 12.9927 15.2176C13.0501 15.118 13.0806 15.0053 13.0812 14.8904V9.27631L14.7645 10.2501C14.7728 10.2544 14.78 10.2605 14.7855 10.268C14.791 10.2755 14.7947 10.2843 14.7962 10.2935V14.9456C14.7941 15.9383 14.3988 16.8898 13.6968 17.5917C12.9949 18.2936 12.0435 18.6889 11.0508 18.691ZM3.00018 15.2531C2.56083 14.4945 2.40308 13.6052 2.55468 12.7417L2.67302 12.8127L6.65885 15.1112C6.75747 15.1691 6.86975 15.1996 6.9841 15.1996C7.09845 15.1996 7.21073 15.1691 7.30935 15.1112L12.1784 12.3041V14.2478C12.1779 14.2579 12.1752 14.2677 12.1704 14.2766C12.1656 14.2855 12.1589 14.2932 12.1507 14.2991L8.11752 16.6251C7.25679 17.121 6.23447 17.255 5.27502 16.9978C4.31558 16.7405 3.49742 16.1131 3.00018 15.2531ZM1.95152 6.57965C2.39392 5.81612 3.09221 5.23375 3.92277 4.93565V9.66665C3.92127 9.78094 3.95047 9.89355 4.00733 9.99271C4.06419 10.0919 4.14662 10.174 4.24602 10.2304L9.09135 13.0256L7.40793 13.9994C7.39882 14.0042 7.38867 14.0068 7.37835 14.0068C7.36803 14.0068 7.35788 14.0042 7.34877 13.9994L3.32352 11.6773C2.4644 11.1793 1.83764 10.3612 1.58049 9.40204C1.32334 8.44291 1.45675 7.42095 1.95152 6.55998V6.57965ZM15.7818 9.79281L10.9207 6.96998L12.6002 5.99998C12.6093 5.99514 12.6195 5.99261 12.6298 5.99261C12.6401 5.99261 12.6502 5.99514 12.6594 5.99998L16.6846 8.32606C17.3001 8.68119 17.8018 9.20407 18.1312 9.83365C18.4607 10.4632 18.6042 11.1735 18.5451 11.8816C18.486 12.5898 18.2267 13.2664 17.7974 13.8327C17.3682 14.3989 16.7867 14.8314 16.1208 15.0796V10.3486C16.1174 10.2345 16.0843 10.1232 16.0248 10.0258C15.9653 9.92833 15.8816 9.8481 15.7818 9.79281ZM17.4573 7.27356L17.339 7.20256L13.3611 4.8844C13.2619 4.82617 13.1489 4.79547 13.0338 4.79547C12.9188 4.79547 12.8058 4.82617 12.7066 4.8844L7.84168 7.6914V5.74781C7.84065 5.73793 7.8423 5.72795 7.84647 5.71893C7.85063 5.70991 7.85716 5.70218 7.86535 5.69656L11.8906 3.3744C12.5075 3.01899 13.2129 2.84659 13.9242 2.87736C14.6355 2.90813 15.3234 3.14079 15.9073 3.54813C16.4912 3.95548 16.9471 4.52066 17.2216 5.17759C17.4961 5.83452 17.5779 6.55602 17.4574 7.25773L17.4573 7.27356ZM6.92293 10.7191L5.2396 9.74931C5.23118 9.74424 5.22398 9.73738 5.2185 9.72921C5.21303 9.72105 5.20942 9.71178 5.20793 9.70206V5.06181C5.20886 4.34996 5.41242 3.65307 5.79481 3.05264C6.1772 2.45222 6.72262 1.97305 7.3673 1.67118C8.01198 1.3693 8.72928 1.2572 9.43532 1.34796C10.1414 1.43873 10.807 1.72861 11.3544 2.18373L11.236 2.25081L7.25418 4.54915C7.15508 4.60727 7.0728 4.69017 7.01542 4.78971C6.95805 4.88925 6.92755 5.00201 6.92693 5.1169L6.92293 10.7191ZM7.8376 8.74798L10.0059 7.49815L12.1784 8.74798V11.2475L10.0139 12.4972L7.8416 11.2475L7.8376 8.74798Z" fill="black"/>
</g>
<defs>
<clipPath id="clip0_4268_60859">
<rect width="20" height="20" fill="white"/>
</clipPath>
</defs>
</svg>
