<svg width="24" height="24" viewBox="0 0 24 24" fill="none" xmlns="http://www.w3.org/2000/svg">
<path fill-rule="evenodd" clip-rule="evenodd" d="M14.359 4.35573C12.4651 3.77125 10.4216 3.91068 8.62457 4.74698C7.47113 5.28376 6.41876 6.11608 5.47633 7.04084H7C7.55228 7.04084 8 7.48855 8 8.04084C8 8.59312 7.55228 9.04084 7 9.04084H3.2C2.53726 9.04084 2 8.50358 2 7.84084V4.04084C2 3.48855 2.44772 3.04084 3 3.04084C3.55228 3.04084 4 3.48855 4 4.04084V5.68742C5.07032 4.62662 6.33475 3.60664 7.78071 2.93372C10.027 1.88835 12.5813 1.71407 14.9488 2.44465C17.3162 3.17524 19.3281 4.75868 20.5947 6.88809C21.8612 9.01751 22.2921 11.5413 21.804 13.9703C21.3158 16.3994 19.9433 18.5607 17.9524 20.0355C15.9616 21.5102 13.4941 22.1934 11.0282 21.9527C8.56235 21.7119 6.27365 20.5643 4.60565 18.7323C2.93766 16.9003 2.00915 14.5143 2.00007 12.0367C1.99804 11.4844 2.44411 11.035 2.99639 11.033C3.54867 11.031 3.99803 11.4771 4.00005 12.0293C4.00732 14.0114 4.75013 15.9202 6.08452 17.3858C7.41892 18.8515 9.24988 19.7695 11.2226 19.9621C13.1953 20.1548 15.1692 19.6082 16.7619 18.4284C18.3546 17.2485 19.4526 15.5195 19.8432 13.5763C20.2337 11.633 19.889 9.61401 18.8757 7.91048C17.8625 6.20694 16.253 4.9402 14.359 4.35573ZM12 8.00001C12.5523 8.00001 13 8.44772 13 9.00001V12H15C15.5523 12 16 12.4477 16 13C16 13.5523 15.5523 14 15 14H12.2C11.5373 14 11 13.4627 11 12.8V9.00001C11 8.44772 11.4477 8.00001 12 8.00001Z" fill="#657077"/>
</svg>
