<svg width="24" height="24" viewBox="0 0 24 24" fill="none" xmlns="http://www.w3.org/2000/svg">
<path fill-rule="evenodd" clip-rule="evenodd" d="M11.4026 14.6119L11.44 14.5579L11.4053 14.5021C11.1447 14.0826 10.92 13.6676 10.7008 13.2629C10.663 13.1931 10.6254 13.1235 10.5877 13.0544L10.5045 12.9014L10.4143 13.0504C9.49828 14.5637 8.49302 15.6504 6.7499 15.6504C4.73663 15.6504 3.0999 14.0137 3.0999 12.0004C3.0999 9.97587 4.72538 8.35039 6.7499 8.35039C7.93105 8.35039 8.67717 8.7694 9.37339 9.49203C10.074 10.2185 10.6688 11.2725 11.279 12.3997L11.3785 12.5837C11.9557 13.651 12.5611 14.7703 13.4275 15.6784C14.3483 16.6442 15.6213 17.3504 17.2499 17.3504C20.1964 17.3504 22.5999 14.9469 22.5999 12.0004C22.5999 9.05017 20.2001 6.65039 17.2499 6.65039C15.0193 6.65039 13.642 7.84776 12.5979 9.31748L12.559 9.37217L12.5949 9.42886C12.9013 9.91313 13.1815 10.3891 13.4354 10.8529L13.5178 11.0034L13.6082 10.8575C14.5173 9.38904 15.5112 8.35039 17.2499 8.35039C19.2632 8.35039 20.8999 9.98712 20.8999 12.0004C20.8999 14.0249 19.2744 15.6504 17.2499 15.6504C16.6664 15.6504 16.1957 15.5445 15.786 15.3509C15.3757 15.157 15.0214 14.8728 14.674 14.5091C13.9783 13.7823 13.3812 12.7281 12.7672 11.6008L12.7054 11.487C12.1136 10.3983 11.4893 9.24992 10.5952 8.32128C9.66551 7.35652 8.39263 6.65039 6.7499 6.65039C3.80343 6.65039 1.3999 9.05392 1.3999 12.0004C1.3999 14.9506 3.79968 17.3504 6.7499 17.3504C8.99392 17.3504 10.3621 16.1131 11.4026 14.6119ZM13.4678 10.7044L13.5231 10.8049C13.5048 10.7715 13.4864 10.738 13.4678 10.7044ZM14.8692 14.8406C14.7788 14.7581 14.6899 14.6705 14.6016 14.5782L14.8692 14.8406ZM10.4999 13.1021C10.4799 13.1352 10.4598 13.1681 10.4397 13.2008C9.66592 14.4574 8.80457 15.4286 7.47198 15.6842C8.83924 15.4219 9.71042 14.4064 10.4999 13.1021ZM11.3669 12.3521L11.4648 12.533C11.4321 12.4726 11.3995 12.4123 11.3669 12.3521Z" fill="#657077"/>
</svg>
