<svg width="24" height="24" viewBox="0 0 24 24" fill="none" xmlns="http://www.w3.org/2000/svg">
<path fill-rule="evenodd" clip-rule="evenodd" d="M4 12C4 10.2335 5.19332 9.03964 6.40481 9.00097C6.45017 9.00418 6.49566 9.00429 6.54094 9.00132C7.23629 9.02905 8.0967 9.49297 8.9827 10.2372C9.8565 10.9711 10.582 11.8293 10.9452 12.2893L10.9556 12.3023L11.2256 12.6327C11.2276 12.6352 11.2296 12.6376 11.2316 12.64L11.4931 12.9582C11.8966 13.4677 12.7152 14.4389 13.7324 15.2935C14.7142 16.1185 16.0723 17 17.526 17L17.5297 17L17.5326 17C20.1299 17.0023 22 14.6217 22 12C22 9.37804 20.1296 6.99766 17.5311 7L17.5283 7.00001L17.5245 7C16.6846 7 15.8908 7.29379 15.2077 7.672C14.519 8.05334 13.8826 8.55393 13.3399 9.04804C12.9315 9.41985 12.9019 10.0523 13.2737 10.4607C13.6455 10.8691 14.278 10.8987 14.6864 10.5269C15.1597 10.096 15.6687 9.70286 16.1765 9.42172C16.6608 9.15354 17.0922 9.01603 17.4592 9.00133C17.5044 9.00429 17.5499 9.00418 17.5952 9.00097C18.8067 9.03964 20 10.2335 20 12C20 13.7667 18.8065 14.9603 17.5967 14.999C17.5513 14.9958 17.5059 14.9957 17.4606 14.9987C16.7654 14.9709 15.9051 14.5068 15.0189 13.7623C14.1451 13.028 13.4195 12.1698 13.0558 11.7101L13.0442 11.6956L12.7727 11.3652L12.7701 11.3621L12.5096 11.0432C12.1059 10.5325 11.2868 9.56062 10.269 8.70574C9.28705 7.8809 7.92907 7 6.4755 7L6.47173 7.00001L6.4689 7C3.87044 6.99766 2 9.37804 2 12C2 14.6217 3.87018 17.0023 6.4674 17L6.47028 17L6.474 17C7.34466 17 8.1665 16.6842 8.86848 16.2841C9.57715 15.8801 10.2295 15.3525 10.7799 14.8395C11.1838 14.4629 11.206 13.8302 10.8294 13.4262C10.4528 13.0222 9.82007 13 9.41609 13.3766C8.93301 13.8269 8.40651 14.2453 7.87808 14.5465C7.37212 14.8349 6.92128 14.9834 6.53933 14.9987C6.4941 14.9957 6.44866 14.9958 6.40334 14.999C5.19353 14.9603 4 13.7667 4 12Z" fill="#657077"/>
</svg>
