<svg width="24" height="24" viewBox="0 0 24 24" fill="none" xmlns="http://www.w3.org/2000/svg">
<path fill-rule="evenodd" clip-rule="evenodd" d="M10.4 5.25C10.4 4.36634 11.1163 3.65 12 3.65C12.8837 3.65 13.6 4.36634 13.6 5.25C13.6 6.13366 12.8837 6.85 12 6.85C11.1163 6.85 10.4 6.13366 10.4 5.25ZM12 2.25C10.3431 2.25 9 3.59315 9 5.25C9 5.99951 9.27486 6.68482 9.72928 7.21064L4.11777 14.9265L4.28406 15.0474C4.11075 15.0163 3.93227 15 3.75 15C2.09315 15 0.75 16.3431 0.75 18C0.75 19.6569 2.09315 21 3.75 21C5.40685 21 6.75 19.6569 6.75 18C6.75 16.9631 6.22399 16.0491 5.42427 15.5103L10.8658 8.02819C11.2157 8.17118 11.5986 8.25 12 8.25C12.4014 8.25 12.7844 8.17117 13.1343 8.02816L18.5758 15.5103C17.776 16.0491 17.25 16.9631 17.25 18C17.25 19.6569 18.5931 21 20.25 21C21.9069 21 23.25 19.6569 23.25 18C23.25 16.3431 21.9069 15 20.25 15C20.0678 15 19.8894 15.0162 19.7161 15.0474L19.8823 14.9265L14.2708 7.21058C14.7252 6.68477 15 5.99948 15 5.25C15 3.59315 13.6569 2.25 12 2.25ZM2.15 18C2.15 17.1163 2.86634 16.4 3.75 16.4C4.63366 16.4 5.35 17.1163 5.35 18C5.35 18.8837 4.63366 19.6 3.75 19.6C2.86634 19.6 2.15 18.8837 2.15 18ZM20.25 16.4C19.3663 16.4 18.65 17.1163 18.65 18C18.65 18.8837 19.3663 19.6 20.25 19.6C21.1337 19.6 21.85 18.8837 21.85 18C21.85 17.1163 21.1337 16.4 20.25 16.4ZM10.5 17.6248C10.5 18.2461 10.1643 18.7498 9.75005 18.7498C9.33584 18.7498 9.00005 18.2461 9.00005 17.6248C9.00005 17.0035 9.33584 16.4998 9.75005 16.4998C10.1643 16.4998 10.5 17.0035 10.5 17.6248ZM12 18.7498C12.4143 18.7498 12.75 18.2461 12.75 17.6248C12.75 17.0035 12.4143 16.4998 12 16.4998C11.5858 16.4998 11.25 17.0035 11.25 17.6248C11.25 18.2461 11.5858 18.7498 12 18.7498ZM15 17.6248C15 18.2461 14.6643 18.7498 14.25 18.7498C13.8358 18.7498 13.5 18.2461 13.5 17.6248C13.5 17.0035 13.8358 16.4998 14.25 16.4998C14.6643 16.4998 15 17.0035 15 17.6248Z" fill="#657077"/>
</svg>
