<svg width="24" height="24" viewBox="0 0 24 24" fill="none" xmlns="http://www.w3.org/2000/svg">
<path fill-rule="evenodd" clip-rule="evenodd" d="M12 7C12.5523 7 13 6.55228 13 6C13 5.44772 12.5523 5 12 5C11.4477 5 11 5.44772 11 6C11 6.55228 11.4477 7 12 7ZM14.2802 7.9496C14.729 7.42525 15 6.74428 15 6C15 4.34315 13.6569 3 12 3C10.3431 3 9 4.34315 9 6C9 6.74448 9.27118 7.42563 9.72016 7.95004L5.61361 15.0628C5.41553 15.0216 5.21029 15 5 15C3.34315 15 2 16.3431 2 18C2 19.6569 3.34315 21 5 21C6.65685 21 8 19.6569 8 18C8 17.2798 7.74621 16.6188 7.32318 16.1017L11.4522 8.9501C11.6298 8.98287 11.8129 9 12 9C12.1873 9 12.3706 8.98284 12.5484 8.94999L16.6772 16.1013C16.2539 16.6185 16 17.2796 16 18C16 19.6569 17.3431 21 19 21C20.6569 21 22 19.6569 22 18C22 16.3431 20.6569 15 19 15C18.7899 15 18.5849 15.0216 18.387 15.0627L14.2802 7.9496ZM5 19C5.55228 19 6 18.5523 6 18C6 17.4477 5.55228 17 5 17C4.44772 17 4 17.4477 4 18C4 18.5523 4.44772 19 5 19ZM9.5 17C9.22386 17 9 17.2239 9 17.5V18.5C9 18.7761 9.22386 19 9.5 19C9.77614 19 10 18.7761 10 18.5V17.5C10 17.2239 9.77614 17 9.5 17ZM11.5 17.5C11.5 17.2239 11.7239 17 12 17C12.2761 17 12.5 17.2239 12.5 17.5V18.5C12.5 18.7761 12.2761 19 12 19C11.7239 19 11.5 18.7761 11.5 18.5V17.5ZM14.5 17C14.2239 17 14 17.2239 14 17.5V18.5C14 18.7761 14.2239 19 14.5 19C14.7761 19 15 18.7761 15 18.5V17.5C15 17.2239 14.7761 17 14.5 17ZM19 19C19.5523 19 20 18.5523 20 18C20 17.4477 19.5523 17 19 17C18.4477 17 18 17.4477 18 18C18 18.5523 18.4477 19 19 19Z" fill="#657077"/>
</svg>
