<svg width="24" height="24" viewBox="0 0 24 24" fill="none" xmlns="http://www.w3.org/2000/svg">
<path fill-rule="evenodd" clip-rule="evenodd" d="M22.825 8C22.9237 8.48655 22.9821 8.98777 22.9965 9.5C22.9988 9.58305 23 9.66639 23 9.75C23 9.83361 22.9988 9.91695 22.9965 10H14V1.0035C14.083 1.00117 14.1664 1 14.25 1C14.3336 1 14.417 1.00117 14.5 1.0035C15.0122 1.01787 15.5134 1.07627 16 1.17503C19.4285 1.87098 22.129 4.57152 22.825 8ZM16 3.22906C18.3214 3.85049 20.1495 5.67856 20.7709 8H16V3.22906Z" fill="#657077"/>
<path fill-rule="evenodd" clip-rule="evenodd" d="M10.0526 13.9474V4.12273C6.04765 4.80979 3 8.29898 3 12.5C3 17.1944 6.80558 21 11.5 21C15.701 21 19.1902 17.9524 19.8773 13.9474H10.0526ZM21.9857 13.0526C21.9952 12.8696 22 12.6854 22 12.5C22 12.3146 21.9952 12.1304 21.9857 11.9474H12.0526V2.01429C11.8696 2.0048 11.6854 2 11.5 2C11.3146 2 11.1304 2.0048 10.9474 2.01429C10.6456 2.02994 10.3472 2.05833 10.0526 2.09894C4.93856 2.80404 1 7.19207 1 12.5C1 18.299 5.70101 23 11.5 23C16.8079 23 21.196 19.0615 21.9011 13.9474C21.9417 13.6529 21.9701 13.3544 21.9857 13.0526Z" fill="#657077"/>
</svg>
