<svg width="24" height="24" viewBox="0 0 24 24" fill="none" xmlns="http://www.w3.org/2000/svg">
<mask id="path-1-inside-1_14218_85391" fill="white">
<path d="M21.9747 11.2886C22.1125 13.2213 21.6859 15.1524 20.7467 16.8472C19.8075 18.5419 18.3962 19.9273 16.6844 20.835C14.9725 21.7426 13.0338 22.1334 11.104 21.9598C9.17421 21.7862 7.3364 21.0557 5.81401 19.8571C4.29163 18.6585 3.15024 17.0434 2.52861 15.2082C1.90699 13.3731 1.83189 11.3968 2.31246 9.51978C2.79302 7.64272 3.80856 5.9457 5.23559 4.63503C6.66262 3.32436 8.43969 2.45649 10.3508 2.13694L12 12L21.9747 11.2886Z"/>
</mask>
<path d="M21.9747 11.2886C22.1125 13.2213 21.6859 15.1524 20.7467 16.8472C19.8075 18.5419 18.3962 19.9273 16.6844 20.835C14.9725 21.7426 13.0338 22.1334 11.104 21.9598C9.17421 21.7862 7.3364 21.0557 5.81401 19.8571C4.29163 18.6585 3.15024 17.0434 2.52861 15.2082C1.90699 13.3731 1.83189 11.3968 2.31246 9.51978C2.79302 7.64272 3.80856 5.9457 5.23559 4.63503C6.66262 3.32436 8.43969 2.45649 10.3508 2.13694L12 12L21.9747 11.2886Z" stroke="#657077" stroke-width="4" mask="url(#path-1-inside-1_14218_85391)"/>
<mask id="path-2-inside-2_14218_85391" fill="white">
<path d="M22.9614 10.1223C22.8408 8.75323 22.4392 7.4237 21.7818 6.21673C21.1244 5.00976 20.2253 3.95126 19.1405 3.10732C18.0557 2.26337 16.8086 1.65209 15.4771 1.31165C14.1455 0.971201 12.758 0.908894 11.4013 1.12861L13 11L22.9614 10.1223Z"/>
</mask>
<path d="M22.9614 10.1223C22.8408 8.75323 22.4392 7.4237 21.7818 6.21673C21.1244 5.00976 20.2253 3.95126 19.1405 3.10732C18.0557 2.26337 16.8086 1.65209 15.4771 1.31165C14.1455 0.971201 12.758 0.908894 11.4013 1.12861L13 11L22.9614 10.1223Z" stroke="#657077" stroke-width="4" mask="url(#path-2-inside-2_14218_85391)"/>
</svg>
