<svg width="24" height="24" viewBox="0 0 24 24" fill="none" xmlns="http://www.w3.org/2000/svg">
<g clip-path="url(#clip0_2823_15986)">
<path d="M12.0001 3V5.773C12.0014 5.86106 11.9553 5.94303 11.8794 5.98769C11.8035 6.03236 11.7095 6.03286 11.6331 5.989C10.9016 5.5713 9.976 5.73754 9.43559 6.38366C8.89517 7.02978 8.89517 7.97022 9.43559 8.61634C9.976 9.26246 10.9016 9.4287 11.6331 9.011C11.7095 8.96714 11.8035 8.96764 11.8794 9.01231C11.9553 9.05697 12.0014 9.13894 12.0001 9.227V12H14.7731C14.8612 12.0013 14.9431 11.9552 14.9878 11.8793C15.0325 11.8034 15.033 11.7094 14.9891 11.633C14.5714 10.9015 14.7376 9.9759 15.3838 9.43548C16.0299 8.89506 16.9703 8.89506 17.6164 9.43548C18.2626 9.9759 18.4288 10.9015 18.0111 11.633C17.9672 11.7094 17.9677 11.8034 18.0124 11.8793C18.0571 11.9552 18.139 12.0013 18.2271 12H21.0001" stroke="#657077" stroke-width="2" stroke-linecap="round" stroke-linejoin="round"/>
<path d="M12 21V18.227C11.9987 18.1389 12.0448 18.057 12.1207 18.0123C12.1966 17.9676 12.2906 17.9671 12.367 18.011C13.0985 18.4287 14.0241 18.2624 14.5645 17.6163C15.1049 16.9702 15.1049 16.0298 14.5645 15.3837C14.0241 14.7375 13.0985 14.5713 12.367 14.989C12.2906 15.0329 12.1966 15.0324 12.1207 14.9877C12.0448 14.943 11.9987 14.861 12 14.773V12H9.227C9.13894 11.9987 9.05697 12.0448 9.0123 12.1207C8.96764 12.1966 8.96714 12.2906 9.011 12.367C9.4287 13.0985 9.26246 14.0241 8.61634 14.5645C7.97022 15.1049 7.02978 15.1049 6.38366 14.5645C5.73754 14.0241 5.5713 13.0985 5.989 12.367C6.03286 12.2906 6.03236 12.1966 5.98769 12.1207C5.94303 12.0448 5.86106 11.9987 5.773 12H3" stroke="#657077" stroke-width="2" stroke-linecap="round" stroke-linejoin="round"/>
<path d="M12 3H7.034C4.80608 3 3 4.80608 3 7.034V16.966C3 19.1939 4.80608 21 7.034 21H16.966C19.1939 21 21 19.1939 21 16.966V12" stroke="#657077" stroke-width="2" stroke-linecap="round" stroke-linejoin="round"/>
<path d="M21 9V7.034C21 4.80608 19.1939 3 16.966 3H15" stroke="#657077" stroke-width="2" stroke-linecap="round" stroke-linejoin="round"/>
</g>
<defs>
<clipPath id="clip0_2823_15986">
<rect width="24" height="24" fill="white"/>
</clipPath>
</defs>
</svg>
