<svg width="32" height="32" viewBox="0 0 32 32" fill="none" xmlns="http://www.w3.org/2000/svg">
<path fill-rule="evenodd" clip-rule="evenodd" d="M23.7082 13C23.9013 13.6478 24 14.3215 24 15H17L17 8C17.6785 8 18.3522 8.09865 19 8.2918C19.2298 8.36031 19.4564 8.44073 19.6788 8.53284C20.5281 8.88463 21.2997 9.40024 21.9497 10.0503C22.5998 10.7003 23.1154 11.4719 23.4672 12.3212C23.5593 12.5436 23.6397 12.7702 23.7082 13ZM19 10.4174C19.5725 10.6673 20.0934 11.0224 20.5355 11.4645C20.9776 11.9066 21.3327 12.4275 21.5826 13H19V10.4174Z" fill="#4781D1"/>
<path fill-rule="evenodd" clip-rule="evenodd" d="M14 18.0001V11.032C11.6868 11.7204 10 13.8632 10 16.4C10 19.4928 12.5072 22 15.6 22C18.1368 22 20.2796 20.3132 20.9681 18.0001H14ZM23.1897 16.8C23.1965 16.6676 23.2 16.5342 23.2 16.4C23.2 16.2659 23.1965 16.1325 23.1897 16.0001H16V8.81039C15.8675 8.80353 15.7342 8.80005 15.6 8.80005C15.4658 8.80005 15.3325 8.80353 15.2 8.81039C14.7906 8.83162 14.3898 8.88525 14 8.96877C10.5709 9.70353 8 12.7516 8 16.4C8 20.5974 11.4026 24 15.6 24C19.2485 24 22.2965 21.4291 23.0313 18.0001C23.1148 17.6103 23.1684 17.2095 23.1897 16.8Z" fill="#4781D1"/>
<rect opacity="0.15" width="32" height="32" rx="8" fill="#4781D1"/>
</svg>
