<svg width="24" height="24" viewBox="0 0 24 24" fill="none" xmlns="http://www.w3.org/2000/svg">
<path fill-rule="evenodd" clip-rule="evenodd" d="M6.2327 6.68048C7.08985 5.75739 8.73829 5.74204 9.80585 6.72027C10.817 7.74489 10.7742 9.28069 9.81945 10.1672C8.75178 11.1586 7.19303 11.1461 6.3327 10.2196C5.35307 9.16459 5.32379 7.6593 6.2327 6.68048ZM4.76711 5.31957C6.50466 3.44836 9.4419 3.65773 11.1754 5.26267C11.1816 5.26833 11.1877 5.27408 11.1938 5.27993C11.1999 5.28578 11.2058 5.29168 11.2117 5.29765C12.9825 7.0734 13.0199 9.92467 11.1804 11.6328C9.44803 13.2414 6.60678 13.454 4.86711 11.5805C3.24674 9.83546 3.07602 7.14075 4.76711 5.31957ZM4 19.0006C4 17.1744 5.21526 16.0006 6.33333 16.0006H9.66667C10.7847 16.0006 12 17.1744 12 19.0006C12 19.5529 12.4477 20.0006 13 20.0006C13.5523 20.0006 14 19.5529 14 19.0006C14 16.4268 12.2153 14.0006 9.66667 14.0006H6.33333C3.78474 14.0006 2 16.4268 2 19.0006C2 19.5529 2.44772 20.0006 3 20.0006C3.55228 20.0006 4 19.5529 4 19.0006ZM15 14.0006C15 13.4483 15.4477 13.0006 16 13.0006H18.5C20.6319 13.0006 22 14.9268 22 17.0006C22 17.5529 21.5523 18.0006 21 18.0006C20.4477 18.0006 20 17.5529 20 17.0006C20 15.6744 19.2014 15.0006 18.5 15.0006H16C15.4477 15.0006 15 14.5529 15 14.0006ZM16.5075 7.40616C16.9928 6.9209 17.9703 6.86644 18.6119 7.42502C19.2235 8.05599 19.1629 8.97747 18.6314 9.45576C17.9372 10.0806 16.9865 10.0221 16.5437 9.53009C15.9189 8.83586 15.9773 7.8852 16.4694 7.44235C16.4824 7.43062 16.4951 7.41856 16.5075 7.40616ZM15.112 5.97336C16.4217 4.68496 18.6092 4.73836 19.9622 5.94933C19.9711 5.95723 19.98 5.96532 19.9887 5.9736C19.9974 5.98187 20.006 5.99026 20.0143 5.99877C21.3764 7.36813 21.4302 9.62762 19.9694 10.9423C18.6636 12.1175 16.4143 12.376 15.0571 10.868C13.887 9.56788 13.6257 7.33229 15.112 5.97336Z" fill="#657077"/>
</svg>
