<svg width="20" height="20" fill="none" xmlns="http://www.w3.org/2000/svg"><path fill-rule="evenodd" clip-rule="evenodd" d="M0 5a3 3 0 0 1 3-3h3.4c1.196 0 2.357.44 3.225 1.243.134.123.259.255.375.392.116-.137.241-.269.375-.392A4.751 4.751 0 0 1 13.6 2H17a3 3 0 0 1 3 3v8.5a3 3 0 0 1-3 3h-4.3c-.475 0-.916.175-1.23.466A1.41 1.41 0 0 0 11 18a1 1 0 1 1-2 0 1.41 1.41 0 0 0-.47-1.034A1.814 1.814 0 0 0 7.3 16.5H3a3 3 0 0 1-3-3V5zm9 9.89a3.876 3.876 0 0 0-1.7-.39H3a1 1 0 0 1-1-1V5a1 1 0 0 1 1-1h3.4c.713 0 1.383.263 1.866.71.48.445.734 1.03.734 1.623v8.558zm2 0a3.876 3.876 0 0 1 1.7-.39H17a1 1 0 0 0 1-1V5a1 1 0 0 0-1-1h-3.4c-.713 0-1.383.263-1.866.71A2.214 2.214 0 0 0 11 6.333v8.558z" fill="#657077"/></svg>