<svg width="20" height="20" fill="none" xmlns="http://www.w3.org/2000/svg"><g clip-path="url(#a)"><path fill-rule="evenodd" clip-rule="evenodd" d="M6 0a1 1 0 0 1 1 1v1h6V1a1 1 0 1 1 2 0v1h2a3 3 0 0 1 3 3v12a3 3 0 0 1-3 3H3a3 3 0 0 1-3-3V5a3 3 0 0 1 3-3h2V1a1 1 0 0 1 1-1zM5 4H3a1 1 0 0 0-1 1v2h16V5a1 1 0 0 0-1-1h-2v1a1 1 0 1 1-2 0V4H7v1a1 1 0 0 1-2 0V4zm13 5H2v8a1 1 0 0 0 1 1h14a1 1 0 0 0 1-1V9z" fill="#657077"/></g><defs><clipPath id="a"><path fill="#fff" d="M0 0h20v20H0z"/></clipPath></defs></svg>