<svg width="20" height="20" fill="none" xmlns="http://www.w3.org/2000/svg"><path d="M13.075 12.625c-.417-.298-.537-.857-.37-1.341A5.502 5.502 0 0 0 8.91 4.183C8.403 4.048 8 3.62 8 3.096c0-.585.498-1.054 1.07-.932A7.503 7.503 0 0 1 14.47 12.27c-.221.557-.909.702-1.396.354z" fill="#657077"/><path fill-rule="evenodd" clip-rule="evenodd" d="m7.131 14.988.184.012H15a3 3 0 1 0-.255-5.99l-1.541.129-.512-1.46a5.5 5.5 0 1 0-5.56 7.309zm7.448-7.97A7.5 7.5 0 1 0 7 16.983V17h8.001a5 5 0 1 0-.42-9.983z" fill="#657077"/></svg>