<svg width="20" height="20" fill="none" xmlns="http://www.w3.org/2000/svg"><g clip-path="url(#a)" fill="#657077"><path fill-rule="evenodd" clip-rule="evenodd" d="M7.39 11.545a1 1 0 0 0-1.784.902v.002l.002.002.002.005.006.011a2.34 2.34 0 0 0 .07.127 5.092 5.092 0 0 0 .962 1.154C7.355 14.375 8.458 15 10 15c1.543 0 2.646-.625 3.352-1.252a5.094 5.094 0 0 0 .962-1.154l.054-.095.016-.032.006-.011.003-.005.001-.003a1 1 0 0 0-1.784-.903v.001a2.263 2.263 0 0 1-.12.188 3.099 3.099 0 0 1-.467.519c-.418.372-1.066.747-2.023.747-.957 0-1.604-.375-2.023-.747a3.094 3.094 0 0 1-.567-.675 1.045 1.045 0 0 1-.019-.032v-.001z"/><path fill-rule="evenodd" clip-rule="evenodd" d="M10 18a8 8 0 1 0 0-16 8 8 0 0 0 0 16zm0 2c5.523 0 10-4.477 10-10S15.523 0 10 0 0 4.477 0 10s4.477 10 10 10z"/><path d="M8.5 7.25a1.25 1.25 0 1 1-2.5 0 1.25 1.25 0 0 1 2.5 0zM14 7.25a1.25 1.25 0 1 1-2.5 0 1.25 1.25 0 0 1 2.5 0z"/></g><defs><clipPath id="a"><path fill="#fff" d="M0 0h20v20H0z"/></clipPath></defs></svg>