<svg width="20" height="20" fill="none" xmlns="http://www.w3.org/2000/svg"><path fill-rule="evenodd" clip-rule="evenodd" d="M2.796.83A2.726 2.726 0 0 1 4.75 0h6.155a2.99 2.99 0 0 1 .226.009 3 3 0 0 1 1.925.9l4.095 4.212A3 3 0 0 1 18 7.212V17.2c0 .734-.283 1.443-.796 1.97a2.725 2.725 0 0 1-1.954.83H4.75a2.726 2.726 0 0 1-1.954-.83A2.826 2.826 0 0 1 2 17.2V2.8c0-.734.283-1.443.796-1.97zM10 2H4.75a.726.726 0 0 0-.52.224A.826.826 0 0 0 4 2.8v14.4c0 .221.086.428.23.576.143.147.33.224.52.224h10.5c.19 0 .377-.077.52-.224A.827.827 0 0 0 16 17.2V8h-3a3 3 0 0 1-3-3V2zm5.216 4H13a1 1 0 0 1-1-1V2.692L15.216 6zM6 13a1 1 0 0 1 1-1h6a1 1 0 1 1 0 2H7a1 1 0 0 1-1-1z" fill="#657077"/></svg>