<svg width="20" height="20" fill="none" xmlns="http://www.w3.org/2000/svg"><path fill-rule="evenodd" clip-rule="evenodd" d="M12.06 1.446a5.66 5.66 0 0 1 4.404 0 5.73 5.73 0 0 1 1.862 1.268 5.832 5.832 0 0 1 1.24 1.89 5.905 5.905 0 0 1 0 4.449 5.833 5.833 0 0 1-1.24 1.89L10.713 18.7a1 1 0 0 1-1.427 0l-7.612-7.757A5.875 5.875 0 0 1 0 6.828c0-1.54.6-3.02 1.674-4.114A5.693 5.693 0 0 1 5.737 1c1.528 0 2.99.62 4.064 1.714l.199.203.199-.203a5.732 5.732 0 0 1 1.861-1.268zM14.262 3c-.488 0-.972.098-1.424.289a3.73 3.73 0 0 0-1.211.826l-.914.93a1 1 0 0 1-1.427 0l-.913-.93A3.693 3.693 0 0 0 5.737 3c-.985 0-1.933.4-2.636 1.115A3.875 3.875 0 0 0 2 6.828c0 1.022.398 1.997 1.101 2.714L10 16.572l6.898-7.03c.348-.355.625-.777.815-1.243a3.907 3.907 0 0 0 0-2.942 3.833 3.833 0 0 0-.815-1.242 3.733 3.733 0 0 0-1.212-.826A3.659 3.659 0 0 0 14.262 3z" fill="#657077"/></svg>