<svg width="20" height="20" fill="none" xmlns="http://www.w3.org/2000/svg"><g clip-path="url(#a)"><path fill-rule="evenodd" clip-rule="evenodd" d="M3 2a1 1 0 0 0-1 1v14a1 1 0 0 0 .65.937L13.292 7.293a1 1 0 0 1 1.414 0L18 10.586V3a1 1 0 0 0-1-1H3zm17 10.999V3a3 3 0 0 0-3-3H3a3 3 0 0 0-3 3v14a3 3 0 0 0 3 3h14a3 3 0 0 0 3-3v-4.001zm-2 .415-4-4L5.414 18H17a1 1 0 0 0 1-1v-3.586zM6.5 6a.5.5 0 1 0 0 1 .5.5 0 0 0 0-1zM4 6.5a2.5 2.5 0 1 1 5 0 2.5 2.5 0 0 1-5 0z" fill="#657077"/></g><defs><clipPath id="a"><path fill="#fff" d="M0 0h20v20H0z"/></clipPath></defs></svg>