<svg width="20" height="20" fill="none" xmlns="http://www.w3.org/2000/svg"><g clip-path="url(#a)"><path fill-rule="evenodd" clip-rule="evenodd" d="M10.448 3.008a1 1 0 0 0-.895 0l-5.65 2.825 5.65 2.825a1 1 0 0 0 .895 0l5.65-2.825-5.65-2.825zM8.658 1.22a3 3 0 0 1 2.684 0l7.44 3.72a1 1 0 0 1 0 1.789l-7.44 3.72a3 3 0 0 1-2.683 0L1.22 6.727a1 1 0 0 1 0-1.79L8.659 1.22zM.774 9.553a1 1 0 0 1 1.341-.447l7.44 3.719a1 1 0 0 0 .894 0l7.439-3.72a1 1 0 0 1 .894 1.79l-7.439 3.719a3 3 0 0 1-2.683 0l-7.439-3.72a1 1 0 0 1-.447-1.341zm0 4.166a1 1 0 0 1 1.341-.447l7.44 3.72a1 1 0 0 0 .894 0l7.439-3.72a1 1 0 0 1 .894 1.79l-7.439 3.719a3 3 0 0 1-2.683 0L1.22 15.06a1 1 0 0 1-.447-1.342z" fill="#657077"/></g><defs><clipPath id="a"><path fill="#fff" d="M0 0h20v20H0z"/></clipPath></defs></svg>