<svg width="20" height="20" fill="none" xmlns="http://www.w3.org/2000/svg"><g clip-path="url(#a)"><path fill-rule="evenodd" clip-rule="evenodd" d="M3.68 5.094A7.965 7.965 0 0 0 2 10c0 1.849.627 3.551 1.68 4.906l2.148-2.149A4.977 4.977 0 0 1 5 10c0-1.02.305-1.967.828-2.757L3.68 5.094zM5.094 3.68l2.149 2.148A4.977 4.977 0 0 1 10 5c1.02 0 1.967.305 2.757.828l2.149-2.148A7.965 7.965 0 0 0 10 2a7.965 7.965 0 0 0-4.906 1.68zM16.32 5.094l-2.148 2.149C14.695 8.033 15 8.98 15 10c0 1.02-.305 1.967-.828 2.757l2.148 2.149A7.965 7.965 0 0 0 18 10a7.966 7.966 0 0 0-1.68-4.906zM14.906 16.32l-2.149-2.148A4.977 4.977 0 0 1 10 15a4.977 4.977 0 0 1-2.757-.828L5.094 16.32A7.966 7.966 0 0 0 10 18a7.965 7.965 0 0 0 4.906-1.68zM0 10C0 4.477 4.477 0 10 0s10 4.477 10 10-4.477 10-10 10S0 15.523 0 10zm10-3a3 3 0 1 0 0 6 3 3 0 0 0 0-6z" fill="#657077"/></g><defs><clipPath id="a"><path fill="#fff" d="M0 0h20v20H0z"/></clipPath></defs></svg>