<svg width="20" height="20" fill="none" xmlns="http://www.w3.org/2000/svg"><path fill-rule="evenodd" clip-rule="evenodd" d="M8.608.377a2.76 2.76 0 0 1 2.786 0l6.222 3.602a2.79 2.79 0 0 1 1.014 1.025c.242.425.37.906.37 1.394v7.204c0 .488-.128.97-.37 1.394a2.79 2.79 0 0 1-1.014 1.025l-.004.003-6.218 3.598-.002.001a2.76 2.76 0 0 1-2.784 0h-.002l-6.218-3.6-.004-.002a2.789 2.789 0 0 1-1.014-1.025A2.818 2.818 0 0 1 1 13.602V6.398c0-.488.128-.97.37-1.394A2.79 2.79 0 0 1 2.384 3.98l.004-.003 6.22-3.6zM11 17.539l5.606-3.244.002-.001a.79.79 0 0 0 .285-.29A.819.819 0 0 0 17 13.6V7.4l-6 3.2v6.94zm-1-8.672 2.005-1.07-6.001-3.429a1.005 1.005 0 0 1-.137-.094L3.719 5.517 10 8.867zM3 7.4v6.2c0 .143.037.282.107.404.07.122.168.221.285.29h.002L9 17.54V10.6L3 7.4zm4.856-4.277 6.14 3.509c.03.017.06.036.088.056l2.197-1.171-5.897-3.413a.76.76 0 0 0-.768 0l-.004.003-1.756 1.016z" fill="#657077"/></svg>