<svg width="20" height="20" fill="none" xmlns="http://www.w3.org/2000/svg"><g clip-path="url(#a)"><path fill-rule="evenodd" clip-rule="evenodd" d="M16.5 2a1.5 1.5 0 1 0 0 3 1.5 1.5 0 0 0 0-3zM13 3.5a3.5 3.5 0 1 1 1.114 2.56L6.9 9.669a3.508 3.508 0 0 1 .08 1.204l6.815 3.407a3.5 3.5 0 1 1-.775 1.849L6.205 12.72a3.5 3.5 0 1 1-.32-4.782L13.1 4.332A3.511 3.511 0 0 1 13 3.5zM3.5 9a1.5 1.5 0 1 0 0 3 1.5 1.5 0 0 0 0-3zm13 6a1.5 1.5 0 1 0 0 3 1.5 1.5 0 0 0 0-3z" fill="#657077"/></g><defs><clipPath id="a"><path fill="#fff" d="M0 0h20v20H0z"/></clipPath></defs></svg>