<svg width="20" height="20" fill="none" xmlns="http://www.w3.org/2000/svg"><g clip-path="url(#a)"><path fill-rule="evenodd" clip-rule="evenodd" d="M10 0a1 1 0 0 1 .896.555l2.547 5.126 5.7.827a1 1 0 0 1 .552 1.709l-4.12 3.985.972 5.628a1 1 0 0 1-1.448 1.056L10 16.223l-5.099 2.663a1 1 0 0 1-1.448-1.056l.972-5.628-4.12-3.985a1 1 0 0 1 .551-1.709l5.7-.827L9.106.555A1 1 0 0 1 10 0zm0 3.247L8.115 7.04a1 1 0 0 1-.752.545l-4.204.61 3.036 2.937a1 1 0 0 1 .29.889l-.717 4.156 3.77-1.968a1 1 0 0 1 .925 0l3.77 1.968-.718-4.156a1 1 0 0 1 .29-.89l3.036-2.936-4.204-.61a1 1 0 0 1-.752-.545L10 3.247z" fill="#657077"/></g><defs><clipPath id="a"><path fill="#fff" d="M0 0h20v20H0z"/></clipPath></defs></svg>