<svg width="20" height="20" fill="none" xmlns="http://www.w3.org/2000/svg"><path fill-rule="evenodd" clip-rule="evenodd" d="M3.254 3.552A10.157 10.157 0 0 1 10 1c2.49 0 4.896.908 6.746 2.552a9.83 9.83 0 0 1 2.703 3.96c.337.92.107 1.827-.434 2.473A2.894 2.894 0 0 1 16.795 11H11v4.6c0 .364.147.718.418.982.27.265.643.418 1.036.418s.765-.153 1.037-.418c.27-.264.418-.618.418-.982a1 1 0 1 1 2 0c0 .91-.37 1.776-1.02 2.412a3.483 3.483 0 0 1-2.435.988c-.909 0-1.785-.353-2.435-.988A3.373 3.373 0 0 1 9 15.6V11H3.205c-.879 0-1.693-.384-2.22-1.015A2.474 2.474 0 0 1 .55 7.512a9.83 9.83 0 0 1 2.704-3.96zM16.794 9a.896.896 0 0 0 .687-.297.477.477 0 0 0 .09-.502 7.83 7.83 0 0 0-2.154-3.155A8.157 8.157 0 0 0 10 3a8.157 8.157 0 0 0-5.418 2.046 7.83 7.83 0 0 0-2.154 3.155.477.477 0 0 0 .09.502.896.896 0 0 0 .686.297h13.59z" fill="#657077"/></svg>