<svg width="20" height="20" fill="none" xmlns="http://www.w3.org/2000/svg"><g clip-path="url(#a)"><path fill-rule="evenodd" clip-rule="evenodd" d="M11.402.084a1 1 0 0 1 .588 1.057L11.153 7h4.737c1.687 0 2.616 1.96 1.548 3.267l-7.664 9.366a1 1 0 0 1-1.764-.774L8.847 13H4.11c-1.687 0-2.616-1.96-1.548-3.266L10.226.367a1 1 0 0 1 1.176-.283zm-1.9 4.325L4.11 11H10a1 1 0 0 1 .99 1.141l-.493 3.45L15.89 9H10a1 1 0 0 1-.99-1.141l.493-3.45z" fill="#657077"/></g><defs><clipPath id="a"><path fill="#fff" d="M0 0h20v20H0z"/></clipPath></defs></svg>