<svg width="30" height="30" fill="none" xmlns="http://www.w3.org/2000/svg"><path fill-rule="evenodd" clip-rule="evenodd" d="M10.35 7h-2.7a.65.65 0 0 0-.65.65v2.7c0 .359.291.65.65.65h2.7a.65.65 0 0 0 .65-.65v-2.7a.65.65 0 0 0-.65-.65Zm0 6h-2.7a.65.65 0 0 0-.65.65v2.7c0 .358.291.65.65.65h2.7a.65.65 0 0 0 .65-.65v-2.7a.65.65 0 0 0-.65-.65Zm-2.7 6h2.7a.65.65 0 0 1 .65.65v2.7a.65.65 0 0 1-.65.65h-2.7a.65.65 0 0 1-.65-.65v-2.7a.65.65 0 0 1 .65-.65Zm8.7-12h-2.7a.65.65 0 0 0-.65.65v2.7c0 .359.291.65.65.65h2.7a.65.65 0 0 0 .65-.65v-2.7a.65.65 0 0 0-.65-.65Zm-2.7 6h2.7a.65.65 0 0 1 .65.65v2.7a.65.65 0 0 1-.65.65h-2.7a.65.65 0 0 1-.65-.65v-2.7a.65.65 0 0 1 .65-.65Zm2.7 6h-2.7a.65.65 0 0 0-.65.65v2.7c0 .358.291.65.65.65h2.7a.65.65 0 0 0 .65-.65v-2.7a.65.65 0 0 0-.65-.65Zm3.3-12h2.7a.65.65 0 0 1 .65.65v2.7a.65.65 0 0 1-.65.65h-2.7a.65.65 0 0 1-.65-.65v-2.7a.65.65 0 0 1 .65-.65Zm2.7 6h-2.7a.65.65 0 0 0-.65.65v2.7c0 .358.291.65.65.65h2.7a.65.65 0 0 0 .65-.65v-2.7a.65.65 0 0 0-.65-.65Zm-2.7 6h2.7a.65.65 0 0 1 .65.65v2.7a.65.65 0 0 1-.65.65h-2.7a.65.65 0 0 1-.65-.65v-2.7a.65.65 0 0 1 .65-.65Z" fill="#657077"/></svg>