<svg width="30" height="30" fill="none" xmlns="http://www.w3.org/2000/svg"><g clip-path="url(#a)"><path fill-rule="evenodd" clip-rule="evenodd" d="M15.007 7.026a7.952 7.952 0 0 0-5.643 2.337l-.007.008-.007.006-.003.004-.019.017a14.173 14.173 0 0 0-.395.412c-.09.1-.195.216-.311.348h2.536v2H6.027a1 1 0 0 1-1-1V6.026h2v2.918a22.092 22.092 0 0 1 .796-.868l.1-.101.029-.028.004-.004a9.952 9.952 0 0 1 7.051-2.917c5.512 0 9.98 4.468 9.98 9.98 0 5.512-4.468 9.98-9.98 9.98-5.512 0-9.98-4.468-9.98-9.98h2a7.98 7.98 0 1 0 7.98-7.98ZM13.999 9v7a1 1 0 0 0 1 1h4v-2h-3V9h-2Z" fill="#657077"/></g><defs><clipPath id="a"><path fill="#fff" transform="translate(5 5)" d="M0 0h20v20H0z"/></clipPath></defs></svg>