<svg width="30" height="30" fill="none" xmlns="http://www.w3.org/2000/svg"><path fill-rule="evenodd" clip-rule="evenodd" d="M23 15a8 8 0 1 1-16 0 8 8 0 0 1 16 0Zm2 0c0 5.523-4.477 10-10 10S5 20.523 5 15 9.477 5 15 5s10 4.477 10 10ZM14.5 9a.5.5 0 0 0-.5.5v1c0 .07.014.137.04.198a3.613 3.613 0 0 0-1.273.444c-.78.469-1.267 1.269-1.267 2.358 0 1.053.569 1.744 1.246 2.173.587.372 1.326.593 1.903.766l.064.019c.663.2 1.142.35 1.47.559.26.164.317.286.317.483 0 .218-.048.318-.076.361a.43.43 0 0 1-.197.15c-.275.126-.75.176-1.386.118a10.338 10.338 0 0 1-1.718-.328 12.71 12.71 0 0 1-.735-.224l-.038-.014-.008-.003-.342.94-.341.94h.002l.005.002.015.006.054.019a14.9 14.9 0 0 0 .861.264c.387.105.877.222 1.404.306v.463a.5.5 0 0 0 .5.5h1a.5.5 0 0 0 .5-.5v-.385a3.607 3.607 0 0 0 1.054-.283c.398-.18.776-.463 1.05-.884.273-.423.396-.916.396-1.448 0-1.053-.569-1.744-1.246-2.173-.587-.371-1.325-.592-1.903-.765l-.064-.02c-.663-.199-1.142-.35-1.47-.559-.26-.164-.317-.286-.317-.483 0-.411.139-.548.296-.643.238-.143.646-.232 1.204-.232.534 0 1.088.081 1.523.168a9.673 9.673 0 0 1 .651.154l.033.01h.006L17.5 12l.287-.958h-.003l-.005-.002-.014-.005-.052-.014a11.804 11.804 0 0 0-1.748-.338A.5.5 0 0 0 16 10.5v-1a.5.5 0 0 0-.5-.5h-1Z" fill="#657077"/></svg>