<svg width="30" height="30" fill="none" xmlns="http://www.w3.org/2000/svg"><path fill-rule="evenodd" clip-rule="evenodd" d="M12.014 9.019C11.982 7.339 13.354 6 15 6s3.02 1.339 2.987 3.019c-.026 1.392-.108 2.68-.46 3.633-.184.498-.466.978-.918 1.33-.465.362-1.019.518-1.61.518-.591 0-1.145-.156-1.61-.519-.452-.352-.734-.832-.917-1.33-.352-.953-.434-2.24-.46-3.632ZM15 8a.977.977 0 0 0-.988.981c.027 1.424.118 2.386.337 2.979.101.275.204.392.27.444.053.041.151.096.38.096.23 0 .328-.055.38-.096.067-.052.17-.169.271-.444.22-.593.311-1.555.338-2.979A.977.977 0 0 0 15 8Zm-2.968 9.272-.001.002c-.24.268-.48.713-.697 1.323-.212.598-.378 1.29-.504 1.997-.253 1.416-.33 2.797-.33 3.406h-2c0-.718.086-2.218.361-3.758.138-.773.328-1.578.588-2.312.255-.72.602-1.442 1.091-1.99.586-.654 1.36-.784 2.013-.7.622.078 1.21.352 1.66.623.484.29 1.088.29 1.571 0 .452-.271 1.04-.545 1.661-.624.653-.083 1.427.047 2.013.702.489.546.836 1.268 1.091 1.989.26.734.45 1.54.588 2.312.275 1.54.362 3.04.362 3.758h-2c0-.609-.078-1.99-.33-3.406a12.933 12.933 0 0 0-.505-1.997c-.216-.61-.457-1.055-.697-1.323l-.001-.002c-.025-.028-.067-.074-.268-.049-.236.03-.55.154-.885.355a3.527 3.527 0 0 1-3.628 0c-.334-.2-.648-.325-.884-.355-.202-.025-.244.021-.269.05Zm-1.02-8.235c0-.087 0-.173.004-.258A2.002 2.002 0 0 0 10 8.5c-1.086 0-2.032.887-1.985 2.04.024.576.084 1.305.266 1.916.09.302.233.656.48.951.268.322.682.593 1.227.593.544 0 .957-.27 1.226-.589.123-.146.221-.308.3-.47-.4-1.125-.475-2.55-.5-3.904Zm7.975 0c-.025 1.363-.102 2.8-.51 3.928.075.153.167.304.283.442.268.322.682.593 1.227.593.544 0 .957-.27 1.226-.589.247-.293.393-.646.486-.948.187-.61.253-1.34.28-1.917C22.034 9.387 21.085 8.5 20 8.5c-.365 0-.714.1-1.015.277.004.086.005.173.003.26Zm1.321 6.457c.4.519.721 1.12.98 1.747.127-.068.25-.145.368-.234.096-.072.192-.127.278-.164a.733.733 0 0 1 .132-.043c.361.607.702 1.662.854 2.7h-.94a22.789 22.789 0 0 1 .343 2h.676c1.071 0 2.082-.898 1.922-2.126-.167-1.284-.601-2.745-1.195-3.691-.424-.678-1.104-.929-1.748-.886-.582.04-1.118.308-1.522.61a.77.77 0 0 1-.148.088ZM7.887 20.151c.04-.209.083-.427.133-.65h-.94c.15-1.037.49-2.09.849-2.7.032.007.075.02.128.043.086.036.182.09.278.162.12.09.246.168.375.236.26-.627.58-1.229.98-1.747a.781.781 0 0 1-.16-.092c-.404-.302-.94-.568-1.523-.605-.646-.04-1.323.215-1.744.893-.586.946-1.018 2.401-1.185 3.683C4.918 20.6 5.93 21.5 7 21.5h.677c.055-.433.124-.888.21-1.349Z" fill="#657077"/></svg>