<svg width="30" height="30" fill="none" xmlns="http://www.w3.org/2000/svg"><path fill-rule="evenodd" clip-rule="evenodd" d="M14.252 22.505c1.631 0 3.153-.476 4.434-1.296l2.268 2.268c.337.337.785.523 1.262.523a1.786 1.786 0 0 0 1.262-3.047l-2.268-2.267a8.203 8.203 0 0 0 1.295-4.434c0-4.55-3.702-8.252-8.253-8.252C9.702 6 6 9.702 6 14.252c0 4.55 3.702 8.253 8.252 8.253Zm5.776-8.253a5.782 5.782 0 0 0-5.775-5.775 5.782 5.782 0 0 0-5.775 5.775 5.782 5.782 0 0 0 5.775 5.776 5.782 5.782 0 0 0 5.775-5.776Z" fill="#657077"/></svg>