<svg width="30" height="30" fill="none" xmlns="http://www.w3.org/2000/svg"><path fill-rule="evenodd" clip-rule="evenodd" d="M6.245 7.8a.655.655 0 0 1 .476-.54l8.102-2.236a.664.664 0 0 1 .354 0l8.102 2.235c.253.07.44.282.476.54.047.335 1.12 8.257-1.63 12.197-2.747 3.936-6.8 4.945-6.97 4.986a.668.668 0 0 1-.31 0c-.17-.041-4.223-1.05-6.97-4.986-2.75-3.94-1.677-11.862-1.63-12.197Zm10.473 14.393c-.742.403-1.365.636-1.718.751a10.475 10.475 0 0 1-1.718-.751 10.965 10.965 0 0 1-3.766-3.341c-1.017-1.457-1.437-3.903-1.506-6.362a30.27 30.27 0 0 1 .119-3.544L15 7.05l6.871 1.896c.075.807.159 2.097.119 3.544-.069 2.459-.49 4.905-1.505 6.362a10.964 10.964 0 0 1-3.767 3.34Zm2.671-9.46a.5.5 0 0 0 0-.708l-.707-.707a.5.5 0 0 0-.707 0l-3.89 3.89-1.06-1.061a.5.5 0 0 0-.707 0l-.707.707a.5.5 0 0 0 0 .707l2.121 2.121a.5.5 0 0 0 .707 0l4.95-4.95Z" fill="#657077"/></svg>