<svg width="30" height="30" fill="none" xmlns="http://www.w3.org/2000/svg"><g clip-path="url(#a)"><path fill-rule="evenodd" clip-rule="evenodd" d="M12.54 8.542a.793.793 0 0 0-1.447.112L9.913 12h10.173l-1.181-3.346a.793.793 0 0 0-1.447-.112c-1.054 1.959-3.864 1.959-4.918 0ZM22.206 12l-1.415-4.012c-.807-2.286-3.944-2.529-5.094-.394a.793.793 0 0 1-1.396 0c-1.15-2.135-4.287-1.892-5.094.394L7.792 12H5.999a1 1 0 0 0-1 1v1h20v-1a1 1 0 0 0-1-1h-1.793ZM7 16a1 1 0 0 0-1 1H5v.882a2 2 0 0 0 1 1.732V22a1 1 0 0 0 1 1h4a3 3 0 0 0 3-3v-1 1a1 1 0 0 1 2-.012V20a3 3 0 0 0 3 3h4a1 1 0 0 0 1-1v-2.387a2 2 0 0 0 .999-1.731V17h-1a1 1 0 0 0-1-1h-6a1 1 0 0 0-1 1h-2a1 1 0 0 0-1-1H7Zm1 5v-3h4v2a1 1 0 0 1-1 1H8Zm14-3v3h-3a1 1 0 0 1-1-1v-2h4Z" fill="#657077"/></g><defs><clipPath id="a"><path fill="#fff" transform="translate(5 5)" d="M0 0h20v20H0z"/></clipPath></defs></svg>