<svg width="30" height="30" fill="none" xmlns="http://www.w3.org/2000/svg"><path fill-rule="evenodd" clip-rule="evenodd" d="M15 6a1 1 0 0 1 .909.581l2.305 4.997 5.464.648a1 1 0 0 1 .561 1.727l-4.04 3.736 1.073 5.397a1 1 0 0 1-1.47 1.068l-4.801-2.688-4.802 2.688a1 1 0 0 1-1.469-1.068l1.072-5.397-4.04-3.736a1 1 0 0 1 .562-1.727l5.464-.648 2.305-4.997A1 1 0 0 1 15 6Zm0 3.388-1.63 3.536a1 1 0 0 1-.79.574l-3.868.459 2.86 2.644a1 1 0 0 1 .301.929l-.759 3.82 3.398-1.903a1 1 0 0 1 .977 0l3.399 1.903-.76-3.82a1 1 0 0 1 .303-.93l2.859-2.643-3.868-.459a1 1 0 0 1-.79-.574l-1.631-3.536Z" fill="#657077"/></svg>