<svg width="30" height="30" fill="none" xmlns="http://www.w3.org/2000/svg"><path fill-rule="evenodd" clip-rule="evenodd" d="M15 11a3 3 0 1 0 0-6 3 3 0 0 0 0 6Zm7 12a3 3 0 1 0 0-6 3 3 0 0 0 0 6Zm-11-3a3 3 0 1 1-6 0 3 3 0 0 1 6 0Zm-.802-10.959c-.09-.202-.34-.25-.517-.118a8.869 8.869 0 0 0-3.46 5.794c-.043.292.251.512.538.439a5.053 5.053 0 0 1 1.649-.14.211.211 0 0 0 .225-.171 6.466 6.466 0 0 1 2.188-3.763.22.22 0 0 0 .042-.282c-.198-.326-.31-.693-.419-1.052-.074-.244-.148-.484-.246-.707Zm8.938 1.761a.22.22 0 0 0 .041.282 6.465 6.465 0 0 1 2.186 3.761c.02.106.117.18.225.172a5.049 5.049 0 0 1 1.649.138c.286.072.58-.147.537-.44a8.87 8.87 0 0 0-3.46-5.792c-.176-.132-.427-.084-.516.118-.098.222-.17.463-.244.707-.11.36-.22.728-.418 1.054ZM17.51 22.203a.211.211 0 0 0-.262-.105c-.7.26-1.458.402-2.25.402a6.457 6.457 0 0 1-2.247-.4.211.211 0 0 0-.262.105 5.015 5.015 0 0 1-.967 1.344c-.21.208-.173.573.1.686a8.85 8.85 0 0 0 3.376.665 8.85 8.85 0 0 0 3.378-.667c.273-.112.31-.477.101-.685a5.014 5.014 0 0 1-.967-1.345Z" fill="#657077"/></svg>