<svg width="30" height="30" fill="none" xmlns="http://www.w3.org/2000/svg"><g clip-path="url(#a)"><path fill-rule="evenodd" clip-rule="evenodd" d="M21.36 11.632a1.5 1.5 0 1 1 2.121 2.121l-3.535 3.536a.5.5 0 0 1-.707 0l-1.415-1.414a.5.5 0 0 1 0-.707l3.536-3.536Zm-12.72 3.28c.155-1.096.508-2.179.885-3.094l8.114 8.114c-.916.377-1.999.73-3.095.884-1.71.24-3.126-.034-4.144-1.052l-.009-.009-.005-.005-.004-.004-.007-.007-.003-.003-.002-.002-.008-.008-.009-.009-.002-.002-.009-.009-.006-.005-.004-.005-.006-.006-.004-.004-.003-.003-.007-.007-.01-.01-.01-.01-.007-.007-.003-.003-.003-.003-.007-.007-.005-.005-.005-.005-.007-.006-.003-.004-.003-.003-.007-.007-.01-.01-.001-.001-.01-.01-.008-.008-.002-.002-.001-.001-.01-.009-.006-.007-.003-.003-.004-.004-.007-.006-.005-.006-.005-.005-.005-.005-.005-.005-.004-.004-.006-.006-.007-.007-.004-.004-.003-.003-.007-.007-.008-.008-.002-.002-.002-.002-.009-.009-.009-.009-.001-.001-.001-.001-.01-.01-.009-.009-.002-.002-.01-.009-.009-.01-.001-.001-.01-.01-.01-.01-.01-.01-.01-.01-.002-.002-.01-.01-.008-.008-.002-.002-.001-.001-.009-.009-.008-.008-.002-.002-.003-.003-.008-.008-.007-.007-.003-.003-.003-.003-.007-.007-.006-.006-.005-.004-.004-.005-.006-.006-.005-.004-.005-.006-.007-.007-.003-.003-.003-.003-.008-.008-.008-.008-.002-.002-.001-.001-.009-.009-.01-.01-.001-.001-.01-.01-.007-.007-.003-.003-.003-.003-.007-.007-.005-.005-.005-.005-.006-.006-.004-.004-.002-.002-.008-.008-.01-.01-.01-.01-.007-.007-.003-.003-.004-.004-.006-.006-.004-.004-.006-.006-.008-.008-.002-.002-.01-.01-.007-.007-.002-.002-.004-.004-.006-.006-.004-.004-.006-.006-.008-.008C8.675 18.039 8.4 16.622 8.64 14.912Zm1.11 6.91c3.293 2.307 8.055.344 10.172-.744.569-.292.655-1.036.203-1.489L9.867 9.332c-.452-.453-1.196-.366-1.489.203-1.088 2.116-3.05 6.878-.743 10.17a.996.996 0 0 0-.064.059L5.45 21.885a1 1 0 0 0 0 1.414l.707.707a1 1 0 0 0 1.414 0l2.122-2.12.058-.064Zm8.074-15.847a1.5 1.5 0 0 0-2.121 0l-3.535 3.536a.5.5 0 0 0 0 .707l1.414 1.414a.5.5 0 0 0 .707 0l3.535-3.535a1.5 1.5 0 0 0 0-2.122Z" fill="#657077"/></g><defs><clipPath id="a"><path fill="#fff" transform="translate(5 5)" d="M0 0h20v20H0z"/></clipPath></defs></svg>