<svg width="30" height="30" fill="none" xmlns="http://www.w3.org/2000/svg"><g clip-path="url(#a)" fill-rule="evenodd" clip-rule="evenodd" fill="#657077"><path d="M5 11.875C5 10.839 5.84 10 6.875 10h16.25C24.16 10 25 10.84 25 11.875V17h-2v6.125C23 24.16 22.16 25 21.125 25H8.875A1.875 1.875 0 0 1 7 23.125V17H5v-5.125ZM16.25 23H21v-6h-4.75v6Zm-2.5-6v6H9v-6h4.75Zm2.5-2H23v-3h-6.75v3Zm-2.5-3v3H7v-3h6.75ZM9.962 7.339c.142-.212.262-.285.334-.314a.616.616 0 0 1 .354-.015c.385.073.9.362 1.48.84.556.46 1.073 1.01 1.458 1.456a15.484 15.484 0 0 1 .564.694h1.697l.105-.132c.107-.132.264-.319.457-.537.39-.439.914-.982 1.477-1.437.585-.474 1.107-.766 1.497-.844.176-.034.283-.017.352.01.063.024.17.086.3.28.136.201.187.464-.162.995-.347.528-.97 1.103-1.734 1.665h2.977c.157-.184.301-.373.428-.566.582-.886.916-2.071.152-3.21-.32-.477-.734-.834-1.238-1.03a2.607 2.607 0 0 0-1.463-.106c-.879.175-1.711.72-2.368 1.252a14.75 14.75 0 0 0-1.617 1.556 14.363 14.363 0 0 0-1.61-1.588c-.653-.54-1.488-1.094-2.379-1.263a2.603 2.603 0 0 0-1.478.126c-.505.205-.919.57-1.243 1.053-.753 1.12-.356 2.297.211 3.14.146.216.314.429.497.636h2.994c-.798-.595-1.462-1.205-1.832-1.755-.376-.557-.294-.78-.21-.906Z"/></g><defs><clipPath id="a"><path fill="#fff" transform="translate(5 5)" d="M0 0h20v20H0z"/></clipPath></defs></svg>