<svg width="20" height="20" fill="none" xmlns="http://www.w3.org/2000/svg"><g clip-path="url(#a)"><path fill-rule="evenodd" clip-rule="evenodd" d="M10 2a2 2 0 1 0 0 4 2 2 0 0 0 0-4zM6 4a4 4 0 1 1 5 3.874v10.063a8 8 0 0 0 6.803-6.174.52.52 0 0 0-.14-.493A.912.912 0 0 0 17 11h-.7a1 1 0 1 1 0-2h.7c1.578 0 3.174 1.347 2.754 3.204a10 10 0 0 1-19.508 0C-.174 10.347 1.422 9 3 9h.7a1 1 0 1 1 0 2H3a.912.912 0 0 0-.664.27.52.52 0 0 0-.14.493A8 8 0 0 0 9 17.937V7.874A4.002 4.002 0 0 1 6 4z" fill="#657077"/></g><defs><clipPath id="a"><path fill="#fff" d="M0 0h20v20H0z"/></clipPath></defs></svg>