<svg width="20" height="20" fill="none" xmlns="http://www.w3.org/2000/svg"><path fill-rule="evenodd" clip-rule="evenodd" d="M8.881 17.527a1 1 0 0 0-1.775.92v.002l.002.003.002.004.006.011a1.225 1.225 0 0 0 .054.095 2.924 2.924 0 0 0 .643.719C8.29 19.663 9.007 20 10 20c.993 0 1.71-.337 2.187-.72a2.922 2.922 0 0 0 .643-.718 1.869 1.869 0 0 0 .054-.095l.006-.01.002-.005.001-.003.001-.002a1 1 0 0 0-1.775-.92.915.915 0 0 1-.181.192c-.148.119-.43.281-.938.281-.507 0-.79-.163-.938-.28a.916.916 0 0 1-.181-.193zM16.564 14C15.69 12.653 15 10.287 15 6c0-1.702-1.901-4-5-4S5 4.298 5 6c0 4.287-.69 6.653-1.564 8h13.128zM10 0C6 0 3 3 3 6c0 4.172-.688 6.075-1.257 6.935l-.005.007C1.403 13.448 1 14.058 1 14.664 1 15.402 1.598 16 2.336 16h15.328c.738 0 1.336-.598 1.336-1.336 0-.606-.403-1.216-.738-1.722l-.005-.007C17.688 12.075 17 10.172 17 6c0-3-3-6-7-6z" fill="#657077"/></svg>