<svg width="20" height="20" fill="none" xmlns="http://www.w3.org/2000/svg"><path fill-rule="evenodd" clip-rule="evenodd" d="M5.714 2a.64.64 0 0 0-.471.225A.992.992 0 0 0 5 2.89V15.94l3.145-2.474a3 3 0 0 1 3.71 0L15 15.94V2.89a.992.992 0 0 0-.243-.664.64.64 0 0 0-.471-.225H5.714zM3.762.881C4.262.331 4.962 0 5.714 0h8.572c.753 0 1.453.33 1.952.881A2.99 2.99 0 0 1 17 2.89V18a1 1 0 0 1-1.618.786l-4.764-3.749a1 1 0 0 0-1.236 0l-4.764 3.749A1 1 0 0 1 3 18V2.889c0-.737.265-1.46.762-2.008z" fill="#657077"/></svg>