<svg width="20" height="20" fill="none" xmlns="http://www.w3.org/2000/svg"><path fill-rule="evenodd" clip-rule="evenodd" d="M6.118 2.53A1 1 0 0 1 7 2h6a1 1 0 0 1 .882.53l.809 1.514h2.673a2.68 2.68 0 0 1 1.846.731c.5.475.79 1.13.79 1.825v8.844c0 .695-.29 1.35-.79 1.825a2.68 2.68 0 0 1-1.846.731H2.636a2.68 2.68 0 0 1-1.846-.73c-.5-.476-.79-1.131-.79-1.826V6.6c0-.695.29-1.35.79-1.825a2.68 2.68 0 0 1 1.846-.73H5.31l.809-1.516zM7.6 4 6.79 5.515a1 1 0 0 1-.882.53H2.636a.68.68 0 0 0-.468.18A.518.518 0 0 0 2 6.6v8.844c0 .131.054.267.168.376a.68.68 0 0 0 .468.18h14.728a.68.68 0 0 0 .468-.18.518.518 0 0 0 .168-.376V6.6a.518.518 0 0 0-.168-.375.68.68 0 0 0-.468-.18H14.09a1 1 0 0 1-.882-.53L12.4 4H7.6zM10 9a2 2 0 1 0 0 4 2 2 0 0 0 0-4zm-4 2a4 4 0 1 1 8 0 4 4 0 0 1-8 0z" fill="#657077"/></svg>