<svg width="20" height="20" fill="none" xmlns="http://www.w3.org/2000/svg"><g clip-path="url(#a)"><path fill-rule="evenodd" clip-rule="evenodd" d="M0 1a1 1 0 0 1 1-1h3.82l1 5h12.578a1.5 1.5 0 0 1 1.474 1.776l-1.083 5.777A3 3 0 0 1 15.84 15H8.16a3 3 0 0 1-2.949-2.447L4.018 6.19 3.18 2H1a1 1 0 0 1-1-1zm6.205 6 .972 5.184A1 1 0 0 0 8.16 13h7.68a1 1 0 0 0 .983-.816L17.795 7H6.205zM5 18a2 2 0 1 1 4 0 2 2 0 0 1-4 0zm11 0a2 2 0 1 1 4 0 2 2 0 0 1-4 0z" fill="#657077"/></g><defs><clipPath id="a"><path fill="#fff" d="M0 0h20v20H0z"/></clipPath></defs></svg>