<svg width="20" height="20" fill="none" xmlns="http://www.w3.org/2000/svg"><path fill-rule="evenodd" clip-rule="evenodd" d="M4.75 4a.736.736 0 0 0-.525.222.792.792 0 0 0-.225.556v12.444c0 .211.083.411.225.556A.737.737 0 0 0 4.75 18h10.5a.737.737 0 0 0 .525-.222.792.792 0 0 0 .225-.556V4.778a.792.792 0 0 0-.225-.556A.736.736 0 0 0 15.25 4H13.5a1 1 0 1 1 0-2h1.75c.735 0 1.436.297 1.95.82.514.521.8 1.226.8 1.958v12.444c0 .732-.286 1.437-.8 1.959a2.736 2.736 0 0 1-1.95.819H4.75a2.736 2.736 0 0 1-1.95-.82 2.792 2.792 0 0 1-.8-1.958V4.778c0-.732.286-1.437.8-1.959A2.736 2.736 0 0 1 4.75 2H6.5a1 1 0 0 1 0 2H4.75z" fill="#657077"/><path fill-rule="evenodd" clip-rule="evenodd" d="M8 2v1h4V2H8zm-2-.25C6 .784 6.784 0 7.75 0h4.5C13.216 0 14 .784 14 1.75v1.5A1.75 1.75 0 0 1 12.25 5h-4.5A1.75 1.75 0 0 1 6 3.25v-1.5z" fill="#657077"/></svg>