<svg width="20" height="20" fill="none" xmlns="http://www.w3.org/2000/svg"><g clip-path="url(#a)" fill="#657077"><path fill-rule="evenodd" clip-rule="evenodd" d="M10 18a8 8 0 1 0 0-16 8 8 0 0 0 0 16zm0 2c5.523 0 10-4.477 10-10S15.523 0 10 0 0 4.477 0 10s4.477 10 10 10z"/><path fill-rule="evenodd" clip-rule="evenodd" d="M7.39 14.455a1 1 0 0 1-1.784-.902v-.002l.002-.002.002-.005.006-.011a2.06 2.06 0 0 1 .07-.127 5.096 5.096 0 0 1 .962-1.154C7.354 11.626 8.458 11 10 11c1.543 0 2.646.625 3.352 1.253a5.097 5.097 0 0 1 .962 1.153l.053.095.017.032.006.011.002.005.002.003a1 1 0 0 1-1.784.903l-.001-.001a2.26 2.26 0 0 0-.12-.188 3.1 3.1 0 0 0-.466-.519C11.604 13.375 10.957 13 10 13c-.957 0-1.604.375-2.023.747a3.098 3.098 0 0 0-.568.675.966.966 0 0 0-.018.032v.001z"/><path d="M8.5 7.25a1.25 1.25 0 1 1-2.5 0 1.25 1.25 0 0 1 2.5 0zM14 7.25a1.25 1.25 0 1 1-2.5 0 1.25 1.25 0 0 1 2.5 0z"/></g><defs><clipPath id="a"><path fill="#fff" d="M0 0h20v20H0z"/></clipPath></defs></svg>