<svg width="20" height="20" fill="none" xmlns="http://www.w3.org/2000/svg"><g clip-path="url(#a)"><path fill-rule="evenodd" clip-rule="evenodd" d="M10 2a8 8 0 1 0 0 16 8 8 0 0 0 0-16zM0 10C0 4.477 4.477 0 10 0s10 4.477 10 10-4.477 10-10 10S0 15.523 0 10zm6.5-2.5a1 1 0 0 1 1-1h.008a1 1 0 1 1 0 2H7.5a1 1 0 0 1-1-1zm5 0a1 1 0 0 1 1-1h.008a1 1 0 1 1 0 2H12.5a1 1 0 0 1-1-1zM6 13a1 1 0 0 1 1-1h6a1 1 0 1 1 0 2H7a1 1 0 0 1-1-1z" fill="#657077"/></g><defs><clipPath id="a"><path fill="#fff" d="M0 0h20v20H0z"/></clipPath></defs></svg>