<svg width="20" height="20" fill="none" xmlns="http://www.w3.org/2000/svg"><g clip-path="url(#a)"><path fill-rule="evenodd" clip-rule="evenodd" d="M9.085 2.418a6.003 6.003 0 1 1 8.49 8.49l-.005.003-1.64 1.622c-.082.13-.193.24-.324.32l-3.319 3.28a3 3 0 0 1-2.109.867H4.414l-2.707 2.707a1 1 0 1 1-1.414-1.414L3 15.586V9.82a3 3 0 0 1 .864-2.106l5.22-5.296zM6.415 15h3.763a1 1 0 0 0 .703-.289L12.612 13H8.414l-2 2zm.869-3.698L5 13.586V9.82a1 1 0 0 1 .288-.702L10.5 3.83a4.003 4.003 0 0 1 5.66 5.66L14.636 11h-4.22l3.292-3.293a1 1 0 0 0-1.414-1.414l-4.99 4.99a1.217 1.217 0 0 0-.02.02z" fill="#657077"/></g><defs><clipPath id="a"><path fill="#fff" d="M0 0h20v20H0z"/></clipPath></defs></svg>