<svg width="20" height="20" fill="none" xmlns="http://www.w3.org/2000/svg"><path fill-rule="evenodd" clip-rule="evenodd" d="M2.962 3C2.317 3 2 3.44 2 3.744V5h2V3H2.962zm0-2C1.44 1 0 2.121 0 3.744v12.512C0 17.879 1.44 19 2.962 19h14.076C18.56 19 20 17.879 20 16.256V3.744C20 2.121 18.56 1 17.038 1H2.962zM6 3v6h8V3H6zm10 0v2h2V3.744c0-.303-.317-.744-.962-.744H16zm2 4h-2v2h2V7zm0 4h-2v2h2v-2zm0 4h-2v2h1.038c.645 0 .962-.44.962-.744V15zm-4 2v-6H6v6h8zM4 17v-2H2v1.256c0 .303.317.744.962.744H4zm-2-4h2v-2H2v2zm0-4h2V7H2v2z" fill="#657077"/></svg>