<svg width="20" height="20" fill="none" xmlns="http://www.w3.org/2000/svg"><path fill-rule="evenodd" clip-rule="evenodd" d="M17 4.013a9.372 9.372 0 0 1-8.11-1.11 5.372 5.372 0 0 0-4.678-.627L3 2.68v8.783a9.372 9.372 0 0 1 8.11 1.111 5.372 5.372 0 0 0 4.678.627L17 12.797V4.013zM1.412 1.1A.602.602 0 0 0 1 1.672v11.78c0 .387.379.66.745.538l1.834-.612a7.372 7.372 0 0 1 6.421.86 7.372 7.372 0 0 0 6.42.86l2.168-.723a.602.602 0 0 0 .412-.57V2.023a.566.566 0 0 0-.745-.537l-1.834.611A7.372 7.372 0 0 1 10 1.238a7.372 7.372 0 0 0-6.42-.86l-2.168.723z" fill="#657077"/><path d="M1 12a1 1 0 1 1 2 0v7a1 1 0 1 1-2 0v-7z" fill="#657077"/></svg>