<svg width="20" height="20" fill="none" xmlns="http://www.w3.org/2000/svg"><g clip-path="url(#a)"><path fill-rule="evenodd" clip-rule="evenodd" d="M6.143 2c-.325 0-.623.121-.833.317A.935.935 0 0 0 5 3c0 .242.102.49.31.683.21.196.508.317.833.317h2.45a5.834 5.834 0 0 0-.258-.492C7.82 2.634 7.122 2 6.143 2zM9 6v3H2V6h7zM3.18 4A2.877 2.877 0 0 1 3 3c0-.819.35-1.589.945-2.145A3.223 3.223 0 0 1 6.143 0C8.107 0 9.323 1.29 10 2.396 10.676 1.289 11.893 0 13.857 0c.812 0 1.604.3 2.198.855C16.65 1.41 17 2.18 17 3c0 .346-.062.684-.18 1H19a1 1 0 0 1 1 1v5a1 1 0 0 1-1 1h-1v8a1 1 0 0 1-1 1H3a1 1 0 0 1-1-1v-8H1a1 1 0 0 1-1-1V5a1 1 0 0 1 1-1h2.18zM4 11v7h5v-7H4zm7 0v7h5v-7h-5zm7-2h-7V6h7v3zm-4.143-5c.325 0 .623-.121.833-.317A.935.935 0 0 0 15 3a.935.935 0 0 0-.31-.683A1.224 1.224 0 0 0 13.857 2c-.979 0-1.677.634-2.192 1.508a5.85 5.85 0 0 0-.258.492h2.45z" fill="#657077"/></g><defs><clipPath id="a"><path fill="#fff" d="M0 0h20v20H0z"/></clipPath></defs></svg>