<svg width="20" height="20" fill="none" xmlns="http://www.w3.org/2000/svg"><path fill-rule="evenodd" clip-rule="evenodd" d="M10 3c-2.143 0-4.186.795-5.682 2.191C2.825 6.585 2 8.461 2 10.4v.6h2c.75 0 1.495.254 2.065.743.575.493.935 1.197.935 1.971v2.572c0 .774-.36 1.478-.935 1.971A3.18 3.18 0 0 1 4 19H3a3.18 3.18 0 0 1-2.065-.743C.36 17.764 0 17.06 0 16.286V10.4c0-2.516 1.072-4.914 2.954-6.67C4.834 1.974 7.369 1 10 1c2.63 0 5.166.975 7.046 2.73C18.928 5.485 20 7.883 20 10.4v5.886c0 .774-.36 1.478-.935 1.971A3.18 3.18 0 0 1 17 19h-1a3.18 3.18 0 0 1-2.065-.743C13.36 17.764 13 17.06 13 16.286v-2.572c0-.774.36-1.478.935-1.971A3.18 3.18 0 0 1 16 11h2v-.6c0-1.94-.825-3.815-2.318-5.209C14.186 3.795 12.143 3 10 3zm8 10h-2c-.31 0-.584.107-.763.261-.175.15-.237.318-.237.453v2.572c0 .135.062.302.237.453.18.154.452.261.763.261h1c.31 0 .584-.107.763-.261.175-.15.237-.318.237-.453V13zM2 16.286c0 .135.061.302.237.453.18.154.452.261.763.261h1c.31 0 .584-.107.763-.261.176-.15.237-.318.237-.453v-2.572c0-.135-.061-.303-.237-.453A1.183 1.183 0 0 0 4 13H2v3.286z" fill="#657077"/></svg>