<svg width="20" height="20" fill="none" xmlns="http://www.w3.org/2000/svg"><path fill-rule="evenodd" clip-rule="evenodd" d="M10.5 2c-1.73 0-3.385.675-4.603 1.87A6.296 6.296 0 0 0 4 8.364c0 2.454 1.633 4.868 3.47 6.771a24.198 24.198 0 0 0 3.03 2.642 24.207 24.207 0 0 0 3.03-2.642C15.367 13.232 17 10.818 17 8.364c0-1.682-.68-3.299-1.897-4.494A6.57 6.57 0 0 0 10.5 2zm0 17-.548.836-.003-.001-.006-.004-.02-.013a10.1 10.1 0 0 1-.324-.224 26.2 26.2 0 0 1-3.569-3.07C4.117 14.54 2 11.636 2 8.364c0-2.225.9-4.354 2.496-5.92A8.571 8.571 0 0 1 10.5 0c2.248 0 4.409.877 6.004 2.443A8.296 8.296 0 0 1 19 8.363c0 3.273-2.117 6.178-4.03 8.16a26.196 26.196 0 0 1-3.824 3.247 8.33 8.33 0 0 1-.07.048l-.02.013-.005.004h-.002c0 .001-.001.002-.549-.835zm0 0 .548.837a1.001 1.001 0 0 1-1.096 0L10.5 19zm0-12a1.5 1.5 0 1 0 0 3 1.5 1.5 0 0 0 0-3zM7 8.5a3.5 3.5 0 1 1 7 0 3.5 3.5 0 0 1-7 0z" fill="#657077"/></svg>