<svg width="20" height="20" fill="none" xmlns="http://www.w3.org/2000/svg"><path fill-rule="evenodd" clip-rule="evenodd" d="M10 2c-.805 0-1.57.311-2.131.856A2.835 2.835 0 0 0 7 4.889V8h6V4.889c0-.757-.309-1.489-.869-2.033A3.059 3.059 0 0 0 10 2zm5 6h1.222C17.677 8 19 9.104 19 10.636v5.728C19 17.896 17.677 19 16.222 19H3.778C2.323 19 1 17.896 1 16.364v-5.728C1 9.104 2.323 8 3.778 8H5V4.889c0-1.306.534-2.552 1.474-3.467A5.059 5.059 0 0 1 10 0c1.317 0 2.586.508 3.525 1.422A4.835 4.835 0 0 1 15 4.889V8zM3.778 10c-.51 0-.778.361-.778.636v5.728c0 .275.269.636.778.636h12.444c.51 0 .778-.361.778-.636v-5.728c0-.275-.269-.636-.778-.636H3.778z" fill="#657077"/></svg>