<svg width="20" height="20" fill="none" xmlns="http://www.w3.org/2000/svg"><g clip-path="url(#a)"><path fill-rule="evenodd" clip-rule="evenodd" d="M10.5 2a4.5 4.5 0 1 0 0 9 4.5 4.5 0 0 0 0-9zM4 6.5a6.5 6.5 0 1 1 10.067 5.435l.924 6.933a1 1 0 0 1-1.642.891L10.5 17.317 7.65 19.76a1 1 0 0 1-1.641-.891l.924-6.933A6.494 6.494 0 0 1 4 6.5zm4.837 6.285-.5 3.752L9.85 15.24a1 1 0 0 1 1.302 0l1.512 1.296-.5-3.752a6.51 6.51 0 0 1-3.325 0z" fill="#657077"/></g><defs><clipPath id="a"><path fill="#fff" d="M0 0h20v20H0z"/></clipPath></defs></svg>