<svg width="20" height="20" fill="none" xmlns="http://www.w3.org/2000/svg"><g clip-path="url(#a)"><path fill-rule="evenodd" clip-rule="evenodd" d="M16.432 2a1.568 1.568 0 0 0-1.108.46L3.257 14.526l-.832 3.048 3.049-.832L17.54 4.676A1.569 1.569 0 0 0 16.432 2zM15.067.272a3.568 3.568 0 0 1 3.888 5.818L6.7 18.345a1 1 0 0 1-.444.258l-4.993 1.362a1 1 0 0 1-1.228-1.228l1.362-4.993a1 1 0 0 1 .258-.444L13.91 1.045a3.568 3.568 0 0 1 1.157-.773z" fill="#657077"/></g><defs><clipPath id="a"><path fill="#fff" d="M0 0h20v20H0z"/></clipPath></defs></svg>