<svg width="20" height="20" fill="none" xmlns="http://www.w3.org/2000/svg"><g clip-path="url(#a)"><path fill-rule="evenodd" clip-rule="evenodd" d="M2.062 9h2.997c.227-2.363 1.078-4.627 2.46-6.608A8.009 8.009 0 0 0 2.062 9zM10 2.46C8.35 4.357 7.339 6.626 7.07 9h5.86c-.269-2.373-1.28-4.642-2.93-6.54zM12.93 11c-.269 2.373-1.28 4.642-2.93 6.54-1.65-1.898-2.661-4.167-2.93-6.54h5.86zM5.06 11H2.062a8.009 8.009 0 0 0 5.457 6.608C6.137 15.627 5.286 13.363 5.06 11zm7.422 6.608c1.382-1.981 2.233-4.245 2.46-6.608h2.997a8.009 8.009 0 0 1-5.457 6.608zM17.938 9h-2.997c-.227-2.363-1.078-4.627-2.46-6.608A8.009 8.009 0 0 1 17.938 9zM0 10C0 4.477 4.477 0 10 0s10 4.477 10 10-4.477 10-10 10S0 15.523 0 10z" fill="#657077"/></g><defs><clipPath id="a"><path fill="#fff" d="M0 0h20v20H0z"/></clipPath></defs></svg>