<svg width="20" height="20" fill="none" xmlns="http://www.w3.org/2000/svg"><path fill-rule="evenodd" clip-rule="evenodd" d="M8.92.345a3 3 0 0 1 2.16 0l5 1.928a3 3 0 0 1 1.92 2.8V10c0 2.443-1.229 4.499-2.603 6.04-1.381 1.548-2.997 2.678-3.98 3.292a2.664 2.664 0 0 1-2.834 0c-.983-.614-2.599-1.744-3.98-3.292C3.23 14.499 2 12.443 2 10V5.072a3 3 0 0 1 1.92-2.799l5-1.928zm1.44 1.866a1 1 0 0 0-.72 0l-5 1.928a1 1 0 0 0-.64.933V10c0 1.754.886 3.351 2.096 4.709 1.204 1.35 2.645 2.363 3.546 2.927.224.14.492.14.716 0 .901-.564 2.342-1.577 3.546-2.927C15.114 13.352 16 11.754 16 10V5.072a1 1 0 0 0-.64-.933l-5-1.928z" fill="#657077"/></svg>