<svg width="20" height="20" fill="none" xmlns="http://www.w3.org/2000/svg"><path fill-rule="evenodd" clip-rule="evenodd" d="M3 11a1 1 0 0 1 1 1v5.833a1 1 0 1 1-2 0V12a1 1 0 0 1 1-1zM3 1a1 1 0 0 1 1 1v5.833a1 1 0 1 1-2 0V2a1 1 0 0 1 1-1zM10 9a1 1 0 0 1 1 1v8a1 1 0 1 1-2 0v-8a1 1 0 0 1 1-1zM10 1a1 1 0 0 1 1 1v4.167a1 1 0 1 1-2 0V2a1 1 0 0 1 1-1zM17 13a1 1 0 0 1 1 1v4.167a1 1 0 1 1-2 0V14a1 1 0 0 1 1-1zM17 1a1 1 0 0 1 1 1v7.5a1 1 0 1 1-2 0V2a1 1 0 0 1 1-1z" fill="#657077"/><path fill-rule="evenodd" clip-rule="evenodd" d="M0 12a1 1 0 0 1 1-1h4a1 1 0 1 1 0 2H1a1 1 0 0 1-1-1zM6 7a1 1 0 0 1 1-1h6a1 1 0 1 1 0 2H7a1 1 0 0 1-1-1zM14 13a1 1 0 0 1 1-1h4a1 1 0 1 1 0 2h-4a1 1 0 0 1-1-1z" fill="#657077"/></svg>