<svg width="20" height="20" fill="none" xmlns="http://www.w3.org/2000/svg"><g clip-path="url(#a)"><path fill-rule="evenodd" clip-rule="evenodd" d="M5 3a3 3 0 0 1 3-3h4a3 3 0 0 1 3 3v1h2a3 3 0 0 1 3 3v10a3 3 0 0 1-3 3H3a3 3 0 0 1-3-3V7a3 3 0 0 1 3-3h2V3zm0 3H3a1 1 0 0 0-1 1v10a1 1 0 0 0 1 1h2V6zm2 12V6h6v12H7zm8 0h2a1 1 0 0 0 1-1V7a1 1 0 0 0-1-1h-2v12zM13 4H7V3a1 1 0 0 1 1-1h4a1 1 0 0 1 1 1v1z" fill="#657077"/></g><defs><clipPath id="a"><path fill="#fff" d="M0 0h20v20H0z"/></clipPath></defs></svg>