<svg width="20" height="20" fill="none" xmlns="http://www.w3.org/2000/svg"><g clip-path="url(#a)"><path fill-rule="evenodd" clip-rule="evenodd" d="M8.254 12.126c-2.231-2.24-2.34-4.155-2.29-4.848a.757.757 0 0 1 .235-.477l.842-.842a1 1 0 0 0 .276-.892l-.422-2.251A1 1 0 0 0 5.912 2H3.414c-.518 0-.943.394-.934.911.034 1.978.54 6.795 4.357 10.626l.02.02.019.019c3.83 3.815 8.431 4.109 10.314 4.047.5-.017.861-.439.854-.938l-.033-2.42a1 1 0 0 0-.753-.954l-2.292-.585a1 1 0 0 0-.954.262l-.9.9a.652.652 0 0 1-.259.168c-.495.159-2.206.453-4.566-1.897l-.017-.017-.016-.016zM5.912 0H3.414C1.891 0 .45 1.201.48 2.946c.038 2.193.59 7.652 4.962 12.024 4.394 4.395 9.671 4.722 11.814 4.652 1.706-.056 2.808-1.498 2.788-2.965l-.033-2.419a3 3 0 0 0-2.259-2.865l-2.292-.585a3 3 0 0 0-2.863.786l-.581.582a1.638 1.638 0 0 1-.254-.046c-.378-.097-1.096-.401-2.077-1.382C8.407 9.45 8.067 8.405 7.982 7.846l.473-.473a3 3 0 0 0 .828-2.674L8.86 2.448A3 3 0 0 0 5.912 0zm6.343 12.148-.005.002a.035.035 0 0 0 .005-.002z" fill="#657077"/></g><defs><clipPath id="a"><path fill="#fff" d="M0 0h20v20H0z"/></clipPath></defs></svg>