<svg width="20" height="20" fill="none" xmlns="http://www.w3.org/2000/svg"><path fill-rule="evenodd" clip-rule="evenodd" d="M0 4a3 3 0 0 1 3-3h8a3 3 0 0 1 3 3v1h1.662a3 3 0 0 1 2.138.896l1.338 1.36A3 3 0 0 1 20 9.36V11a3.001 3.001 0 0 1-2.37 2.934 3.5 3.5 0 1 1-6.294.066H8.664a3.5 3.5 0 1 1-6.294-.066A3.001 3.001 0 0 1 0 11V4zm5.5 10a1.5 1.5 0 1 0 0 3 1.5 1.5 0 0 0 0-3zm6.5-2V4a1 1 0 0 0-1-1H3a1 1 0 0 0-1 1v7a1 1 0 0 0 1 1h9zm2 0V7h1.662a1 1 0 0 1 .713.299l1.338 1.36a1 1 0 0 1 .287.7V11a1 1 0 0 1-1 1h-3zm.5 2a1.5 1.5 0 1 0 0 3 1.5 1.5 0 0 0 0-3z" fill="#657077"/></svg>